<svg version="1.2" xmlns="http://www.w3.org/2000/svg" viewBox="0 0 200 100" width="200" height="100">
	<title>KCPL-sgv-01-svg</title>
	<style>
		.s0 { fill: #ffffff;stroke: #ffffff;stroke-miterlimit:10;stroke-width: .4 } 
		.s1 { fill: #ffffff } 
		.s2 { fill: #0174ba } 
		.s3 { fill: #c4e8fa } 
		.s4 { fill: #373435 } 
	</style>
	<path id="Layer" class="s0" d="m122.6 91.6c-4.4 8.6-30.3 4-58-10.2-27.6-14.2-46.4-32.6-42-41.2 4.3-8.5 30.3-3.9 57.9 10.3 27.7 14.2 46.5 32.6 42.1 41.1z"/>
	<path id="Layer" fill-rule="evenodd" class="s1" d="m177.3 52.2q0 0-0.1 0 0 0 0 0-0.1 0-0.1 0 0 0-0.1-0.1 0 0 0 0-0.1 0-0.1 0 0 0-0.1 0 0 0-0.1 0 0 0-0.1 0-0.1 0-0.1 0.1-0.1 0-0.2 0 0 0-0.1 0.1-0.1 0-0.1 0-0.1 0.1-0.1 0.1-0.1 0-0.2 0.1 0 0-0.1 0.1v2.5h-0.6v-3.6h0.6v0.6q0.1-0.1 0.2-0.1 0-0.1 0.1-0.2 0.1 0 0.2 0 0.1-0.1 0.1-0.1 0.1-0.1 0.2-0.1 0 0 0.1 0 0.1 0 0.2 0 0-0.1 0.1-0.1 0 0 0.1 0 0 0 0 0 0 0 0.1 0 0 0.1 0 0.1 0.1 0 0.2 0zm-4 1.2h-2.6q0 0 0 0.1 0 0.1 0 0.2 0.1 0 0.1 0.1 0 0.1 0 0.1 0 0.1 0.1 0.1 0 0.1 0 0.1 0.1 0.1 0.1 0.1 0 0.1 0.1 0.1 0 0.1 0.1 0.1 0 0 0.1 0.1 0 0 0.1 0 0 0 0.1 0.1 0 0 0.1 0 0.1 0 0.1 0 0.1 0 0.2 0 0 0 0.1 0 0.1 0 0.2 0 0.1 0 0.1 0 0.1 0 0.2-0.1 0.1 0 0.2 0 0.1 0 0.1-0.1 0.1 0 0.2 0 0-0.1 0.1-0.1 0.1-0.1 0.1-0.1h0.1v0.7q-0.1 0-0.2 0-0.1 0-0.1 0.1-0.1 0-0.2 0-0.1 0-0.2 0.1 0 0-0.1 0-0.1 0-0.2 0-0.1 0-0.2 0 0 0-0.1 0-0.2 0.1-0.4 0-0.2 0-0.4-0.1-0.1 0-0.3-0.1-0.1-0.1-0.3-0.2-0.1-0.2-0.2-0.3-0.1-0.2-0.2-0.4 0-0.1-0.1-0.3 0-0.2 0-0.4 0-0.2 0-0.4 0.1-0.1 0.1-0.3 0.1-0.2 0.2-0.4 0.1-0.1 0.2-0.3 0.1-0.1 0.3-0.2 0.1-0.1 0.3-0.1 0.1-0.1 0.3-0.1 0.2-0.1 0.3-0.1 0.2 0 0.3 0 0.2 0.1 0.3 0.1 0.2 0.1 0.3 0.2 0.1 0 0.2 0.2 0.1 0.1 0.2 0.2 0.1 0.2 0.1 0.3 0.1 0.2 0.1 0.3 0 0.2 0 0.3zm-0.6-0.4q0-0.1 0-0.2 0-0.1 0-0.2 0-0.1-0.1-0.2 0-0.1-0.1-0.1-0.1-0.1-0.1-0.2-0.1 0-0.2 0-0.1-0.1-0.2-0.1-0.1 0-0.2 0-0.1 0-0.2 0-0.1 0-0.2 0.1-0.1 0-0.2 0.1-0.1 0-0.2 0.1 0 0.1-0.1 0.1 0 0.1-0.1 0.2 0 0.1 0 0.2-0.1 0.1-0.1 0.2zm-4 2.1q0 0-0.1 0 0 0-0.1 0.1 0 0 0 0-0.1 0-0.1 0-0.1 0-0.1 0-0.1 0-0.1 0-0.1 0-0.1 0 0 0-0.1 0-0.1 0-0.2 0-0.1 0-0.2 0-0.1-0.1-0.2-0.1-0.1-0.1-0.2-0.2-0.1-0.1-0.2-0.2 0-0.1 0-0.2-0.1-0.1-0.1-0.3 0-0.1 0-0.2v-1.9h-0.4v-0.5h0.4v-1h0.6v1h1.2v0.5h-1.2v1.6q0 0.3 0 0.5 0 0 0 0 0 0.1 0 0.1 0.1 0 0.1 0.1 0 0 0 0 0 0.1 0 0.1 0.1 0 0.1 0.1 0 0 0 0 0.1 0 0.1 0 0 0.1 0.1 0.1 0 0 0.1 0 0 0 0.1 0 0 0 0.1 0 0 0 0 0 0.1 0 0.1 0 0.1 0 0.1 0 0 0 0.1-0.1 0.1 0 0.2 0zm-3.4 0q-0.1 0-0.1 0-0.1 0-0.1 0-0.1 0-0.1 0 0 0-0.1 0.1 0 0-0.1 0 0 0-0.1 0 0 0-0.1 0 0 0 0 0-0.2 0-0.3 0-0.1 0-0.2-0.1-0.1 0-0.2-0.1-0.1 0-0.2-0.1 0-0.1-0.1-0.2-0.1-0.1-0.1-0.2 0-0.2 0-0.3-0.1-0.1 0-0.2v-1.9h-0.4v-0.5h0.4v-1h0.5v1h1.3v0.5h-1.3v1.6q0 0.3 0.1 0.4 0 0.1 0 0.1 0 0 0 0.1 0 0 0 0 0 0.1 0 0.1 0.1 0 0.1 0.1 0 0 0 0 0.1 0 0.1 0.1 0 0 0 0 0.1 0 0.1 0 0.1 0 0.1 0 0.1 0.1 0.1 0.1 0.1 0 0.1 0 0 0 0.1 0 0 0 0.1-0.1 0 0 0 0 0.1 0 0.1 0 0.2 0 0.2-0.1h0.1zm-3.7-1.6h-2.6q0 0 0 0.1 0 0.1 0.1 0.2 0 0 0 0.1 0 0.1 0 0.1 0.1 0.1 0.1 0.2 0 0 0 0.1 0.1 0 0.1 0.1 0.1 0 0.1 0 0 0.1 0.1 0.1 0 0 0.1 0.1 0 0 0.1 0 0 0 0.1 0.1 0.1 0 0.1 0 0.1 0 0.1 0 0.1 0 0.2 0 0 0 0.1 0 0.1 0 0.2 0 0.1 0 0.2 0 0.1 0 0.1 0 0.1-0.1 0.2-0.1 0.1 0 0.2-0.1 0 0 0.1 0 0.1-0.1 0.1-0.1 0.1 0 0.1-0.1h0.1v0.7q-0.1 0-0.2 0-0.1 0.1-0.1 0.1-0.1 0-0.2 0-0.1 0.1-0.1 0.1-0.1 0-0.2 0-0.1 0-0.2 0-0.1 0.1-0.1 0.1-0.1 0-0.2 0-0.2 0-0.4-0.1-0.2 0-0.3 0-0.2-0.1-0.4-0.2-0.1-0.1-0.3-0.2-0.1-0.2-0.2-0.3-0.1-0.2-0.2-0.3 0-0.2-0.1-0.4 0-0.2 0-0.4 0-0.2 0-0.3 0.1-0.2 0.1-0.4 0.1-0.2 0.2-0.3 0.1-0.2 0.2-0.3 0.1-0.2 0.3-0.3 0.1-0.1 0.3-0.1 0.1-0.1 0.3-0.1 0.2-0.1 0.3-0.1 0.2 0 0.3 0.1 0.2 0 0.3 0 0.2 0.1 0.3 0.2 0.1 0.1 0.2 0.2 0.2 0.1 0.2 0.2 0.1 0.2 0.2 0.3 0 0.2 0 0.3 0 0.2 0 0.4zm-0.5-0.5q0-0.1 0-0.2-0.1-0.1-0.1-0.2 0-0.1-0.1-0.2 0-0.1-0.1-0.1 0-0.1-0.1-0.1-0.1-0.1-0.2-0.1-0.1-0.1-0.2-0.1-0.1 0-0.2 0-0.1 0-0.2 0-0.1 0-0.2 0.1-0.1 0-0.2 0.1-0.1 0-0.1 0.1-0.1 0.1-0.2 0.1 0 0.1-0.1 0.2 0 0.1 0 0.2-0.1 0.1-0.1 0.2zm-4.2 0.4q0 0.1 0 0.2 0 0.1 0 0.2 0 0.1 0 0.2-0.1 0.1-0.1 0.2 0 0-0.1 0.1 0 0.1 0 0.2-0.1 0-0.1 0.1-0.1 0.1-0.1 0.2-0.1 0-0.1 0.1-0.1 0-0.2 0.1 0 0-0.1 0.1-0.1 0-0.1 0-0.1 0.1-0.2 0.1 0 0-0.1 0-0.1 0-0.2 0 0 0.1-0.1 0.1-0.1 0-0.2 0 0-0.1-0.1-0.1 0 0-0.1 0-0.1 0-0.1 0-0.1 0-0.2-0.1 0 0-0.1 0 0 0-0.1-0.1 0 0-0.1 0v0.2h-0.6v-5h0.6v1.8q0.1-0.1 0.1-0.1 0.1 0 0.2-0.1 0 0 0.1-0.1 0.1 0 0.1 0 0.1-0.1 0.2-0.1 0.1 0 0.2 0 0-0.1 0.1-0.1 0.1 0 0.2 0 0.1 0 0.3 0.1 0.1 0 0.2 0 0.2 0.1 0.3 0.2 0.1 0.1 0.2 0.2 0.1 0.2 0.1 0.3 0.1 0.2 0.2 0.4 0 0.1 0 0.3 0 0.2 0 0.4zm-0.6 0q0-0.1 0-0.3 0-0.1 0-0.2 0-0.1-0.1-0.3 0-0.1-0.1-0.2 0-0.1-0.1-0.1-0.1-0.1-0.2-0.1-0.1-0.1-0.2-0.1-0.1 0-0.2 0 0 0-0.1 0-0.1 0-0.1 0-0.1 0-0.2 0.1 0 0-0.1 0-0.1 0-0.1 0.1-0.1 0-0.1 0-0.1 0.1-0.2 0.1 0 0-0.1 0.1v2q0.1 0 0.1 0.1 0.1 0 0.1 0 0.1 0 0.1 0 0.1 0.1 0.2 0.1 0 0 0.1 0 0 0 0.1 0 0 0 0.1 0 0 0 0.1 0 0.1 0 0.2 0 0.1 0 0.2-0.1 0.1 0 0.2-0.1 0.1 0 0.1-0.1 0.1-0.1 0.2-0.2 0-0.2 0.1-0.3 0-0.1 0-0.3 0-0.1 0-0.2zm-6.5 0.7q0 0.2 0 0.3-0.1 0.1-0.1 0.2-0.1 0.1-0.1 0.2-0.1 0.1-0.2 0.1-0.1 0.1-0.3 0.2-0.1 0-0.2 0.1-0.2 0-0.3 0-0.2 0-0.3 0-0.1 0-0.2 0-0.1 0-0.2 0-0.1 0-0.1 0-0.1 0-0.2-0.1-0.1 0-0.2 0 0 0-0.1 0-0.1-0.1-0.1-0.1-0.1 0-0.2-0.1v-0.6h0.1q0 0 0.1 0.1 0.1 0 0.2 0.1 0 0 0.1 0 0.1 0.1 0.2 0.1 0.1 0 0.2 0.1 0 0 0.1 0 0.1 0 0.2 0 0.1 0 0.2 0 0 0 0.1 0 0.1 0 0.2 0 0 0 0.1 0 0.1-0.1 0.2-0.1 0 0 0.1-0.1 0 0 0-0.1 0.1 0 0.1-0.1 0 0 0-0.1 0 0 0-0.1 0 0 0-0.1-0.1 0-0.1 0 0-0.1 0-0.1-0.1 0-0.1-0.1-0.1 0-0.2 0 0 0-0.1-0.1 0 0-0.1 0-0.1 0-0.3-0.1-0.2 0-0.4 0-0.1-0.1-0.2-0.1-0.1 0-0.2-0.1 0 0-0.1-0.1-0.1 0-0.2-0.1 0-0.1 0-0.1-0.1-0.1-0.1-0.2 0 0 0-0.1-0.1-0.1-0.1-0.2 0 0 0.1-0.1 0 0 0-0.1 0 0 0-0.1 0 0 0-0.1 0.1 0 0.1-0.1 0 0 0.1-0.1 0 0 0-0.1 0.1 0 0.1 0 0.1-0.1 0.1-0.1 0.1-0.1 0.1-0.1 0.1 0 0.1 0 0.1-0.1 0.2-0.1 0 0 0.1 0 0.1 0 0.2 0 0-0.1 0.1-0.1 0.1 0 0.2 0 0.1 0 0.1 0 0.1 0 0.2 0.1 0.1 0 0.2 0 0 0 0.1 0 0.1 0 0.2 0.1 0 0 0.1 0 0.1 0 0.1 0 0.1 0.1 0.2 0.1v0.6h-0.1q0 0-0.1 0-0.1-0.1-0.1-0.1-0.1-0.1-0.2-0.1-0.1 0-0.1 0-0.1-0.1-0.2-0.1-0.1 0-0.1 0-0.1 0-0.2-0.1-0.1 0-0.2 0 0 0-0.1 0-0.1 0.1-0.2 0.1 0 0-0.1 0-0.1 0-0.1 0.1-0.1 0-0.2 0.1 0 0.1 0 0.2-0.1 0.1 0 0.2 0 0.1 0.1 0.2 0 0 0.1 0 0 0.1 0.1 0.1 0.1 0 0.1 0 0.1 0 0.1 0 0.2 0.1 0.4 0.1 0.2 0.1 0.3 0.1 0.1 0 0.2 0 0.1 0.1 0.2 0.1 0.1 0 0.1 0.1 0.1 0.1 0.2 0.1 0 0.1 0.1 0.2 0 0 0 0.1 0.1 0.1 0.1 0.2 0 0.1 0 0.1zm-4.6 0.7q0 0.1 0 0.3 0 0.2-0.1 0.4 0 0.1-0.1 0.3-0.1 0.1-0.2 0.3-0.1 0.1-0.3 0.2-0.1 0.1-0.3 0.1-0.2 0.1-0.3 0.1-0.2 0-0.4 0 0 0-0.1 0-0.1 0-0.1 0-0.1 0-0.2 0 0 0-0.1 0-0.1-0.1-0.1-0.1-0.1 0-0.2 0 0 0-0.1 0-0.1 0-0.1-0.1v-0.6q0 0.1 0.1 0.1 0.1 0 0.1 0 0.1 0 0.1 0 0.1 0.1 0.2 0.1 0 0 0.1 0 0.1 0 0.2 0 0 0 0.1 0.1 0.1 0 0.2 0 0 0 0.1 0 0.1 0 0.1-0.1 0.1 0 0.2 0 0 0 0.1 0 0 0 0.1 0 0-0.1 0.1-0.1 0 0 0-0.1 0.1 0 0.1 0 0 0 0.1-0.1 0 0 0-0.1 0 0 0 0 0-0.1 0.1-0.1 0-0.1 0-0.1 0-0.1 0-0.1 0-0.1 0-0.1 0-0.1 0-0.1v-0.3q-0.1 0-0.1 0.1-0.1 0-0.1 0.1-0.1 0-0.2 0 0 0.1-0.1 0.1-0.1 0-0.2 0 0 0.1-0.1 0.1-0.1 0-0.2 0-0.1 0-0.1 0-0.2 0-0.3 0-0.2 0-0.3-0.1-0.1-0.1-0.2-0.2-0.1 0-0.2-0.2-0.1-0.1-0.2-0.2-0.1-0.2-0.1-0.4-0.1-0.1-0.1-0.3 0-0.2 0-0.3 0-0.1 0-0.2 0-0.1 0-0.2 0-0.1 0.1-0.2 0-0.1 0-0.2 0-0.1 0.1-0.2 0-0.1 0.1-0.1 0-0.1 0.1-0.2 0 0 0.1-0.1 0-0.1 0.1-0.1 0-0.1 0.1-0.1 0.1 0 0.1-0.1 0.1 0 0.2 0 0-0.1 0.1-0.1 0.1 0 0.2 0 0-0.1 0.1-0.1 0.1 0 0.2 0 0 0 0.1 0 0 0 0.1 0 0.1 0 0.1 0.1 0.1 0 0.2 0 0 0 0.1 0 0 0 0.1 0.1 0 0 0.1 0 0.1 0 0.1 0.1v-0.2h0.6zm-0.6-0.5v-2q0 0-0.1 0-0.1 0-0.1-0.1-0.1 0-0.1 0-0.1 0-0.1 0-0.1 0-0.1 0-0.1-0.1-0.1-0.1-0.1 0-0.1 0-0.1 0-0.1 0-0.2 0-0.3 0-0.1 0.1-0.2 0.1-0.1 0-0.2 0.1 0 0.1-0.1 0.2-0.1 0.1-0.1 0.2-0.1 0.1-0.1 0.2-0.1 0.1-0.1 0.3 0 0.1 0 0.2 0 0.1 0 0.2 0 0.2 0 0.3 0.1 0.1 0.1 0.2 0.1 0.1 0.1 0.2 0.1 0.1 0.1 0.2 0.1 0 0.2 0.1 0.1 0 0.2 0 0.1 0 0.2 0 0.1 0 0.1 0 0.1 0 0.2 0 0 0 0.1 0 0.1-0.1 0.1-0.1 0.1 0 0.2 0 0-0.1 0.1-0.1 0 0 0.1-0.1 0 0 0.1 0zm-4.3 0.9h-0.6v-2q0 0 0-0.1 0-0.1 0-0.1 0-0.1 0-0.1 0-0.1 0-0.1 0-0.1 0-0.1-0.1-0.1-0.1-0.1 0-0.1 0-0.1 0 0 0-0.1-0.1 0-0.1 0 0-0.1 0-0.1-0.1 0-0.1 0 0-0.1-0.1-0.1 0 0-0.1 0 0 0-0.1 0 0 0-0.1 0 0 0-0.1 0 0 0-0.1 0 0 0-0.1 0-0.1 0-0.1 0-0.1 0.1-0.2 0.1 0 0-0.1 0-0.1 0.1-0.1 0.1-0.1 0.1-0.2 0.1 0 0-0.1 0.1v2.6h-0.6v-3.5h0.6v0.4q0.1-0.1 0.2-0.1 0-0.1 0.1-0.1 0.1-0.1 0.2-0.1 0 0 0.1-0.1 0.1 0 0.2 0 0-0.1 0.1-0.1 0.1 0 0.2 0 0 0 0.1 0 0.1 0 0.3 0 0.1 0 0.2 0.1 0.1 0 0.2 0.1 0.1 0.1 0.2 0.1 0.1 0.1 0.1 0.3 0.1 0.1 0.1 0.2 0.1 0.1 0.1 0.3 0 0.1 0 0.2zm-5 0h-0.6v-3.5h0.6zm0-4.1h-0.7v-0.6h0.7zm-2.7 4.1h-0.6v-2q0-0.1 0-0.1 0-0.1 0-0.2 0 0 0-0.1 0 0 0-0.1 0 0 0-0.1 0 0 0-0.1-0.1 0-0.1 0 0-0.1 0-0.1 0-0.1-0.1-0.1 0 0 0 0 0-0.1-0.1-0.1 0 0 0 0-0.1 0-0.1 0-0.1-0.1-0.1-0.1-0.1 0-0.1 0-0.1 0-0.1 0-0.1 0-0.2 0 0 0-0.1 0.1-0.1 0-0.1 0-0.1 0-0.1 0-0.1 0.1-0.2 0.1 0 0-0.1 0.1-0.1 0-0.1 0.1-0.1 0-0.1 0v2.7h-0.6v-4.9h0.6v1.7q0 0 0.1-0.1 0.1 0 0.1-0.1 0.1 0 0.2 0 0-0.1 0.1-0.1 0.1 0 0.2-0.1 0 0 0.1 0 0.1 0 0.2 0 0.1 0 0.1 0 0.2-0.1 0.3 0 0.1 0 0.2 0 0.1 0.1 0.2 0.1 0.1 0.1 0.2 0.2 0.1 0.1 0.2 0.2 0 0.1 0.1 0.3 0 0.1 0 0.2 0 0.2 0 0.3zm-4.6 0q0 0-0.1 0 0 0 0 0-0.1 0-0.1 0-0.1 0-0.1 0-0.1 0-0.1 0-0.1 0-0.1 0.1 0 0-0.1 0 0 0-0.1 0-0.1 0-0.2 0-0.1-0.1-0.2-0.1-0.1 0-0.2-0.1-0.1-0.1-0.2-0.1-0.1-0.1-0.1-0.2-0.1-0.1-0.1-0.3-0.1-0.1-0.1-0.2 0-0.1 0-0.3v-1.8h-0.4v-0.5h0.4v-1.1h0.6v1.1h1.2v0.5h-1.2v1.6q0 0.2 0 0.4 0 0 0 0.1 0 0 0.1 0.1 0 0 0 0 0 0.1 0 0.1 0 0 0 0.1 0.1 0 0.1 0 0 0 0 0 0.1 0.1 0.1 0.1 0 0 0.1 0 0 0 0.1 0 0 0 0.1 0 0 0 0.1 0 0 0 0.1 0 0 0 0 0 0.1 0 0.1 0 0 0 0.1 0 0.1 0 0.2-0.1zm-5.9-1.6h-2.6q0 0 0 0.1 0 0.1 0 0.1 0.1 0.1 0.1 0.2 0 0.1 0 0.1 0 0.1 0.1 0.1 0 0.1 0 0.1 0.1 0.1 0.1 0.1 0 0.1 0.1 0.1 0 0.1 0.1 0.1 0 0 0.1 0.1 0 0 0.1 0 0 0 0.1 0 0 0.1 0.1 0.1 0.1 0 0.1 0 0.1 0 0.2 0 0 0 0.1 0 0.1 0 0.2 0 0.1 0 0.1 0 0.1 0 0.2-0.1 0.1 0 0.2 0 0.1 0 0.1-0.1 0.1 0 0.2 0 0-0.1 0.1-0.1 0.1-0.1 0.1-0.1h0.1v0.6q-0.1 0.1-0.2 0.1-0.1 0-0.1 0.1-0.1 0-0.2 0-0.1 0-0.2 0.1 0 0-0.1 0-0.1 0-0.2 0-0.1 0-0.1 0-0.1 0-0.2 0-0.2 0.1-0.4 0-0.2 0-0.3-0.1-0.2 0-0.4-0.1-0.1-0.1-0.3-0.2-0.1-0.2-0.2-0.3-0.1-0.2-0.2-0.4 0-0.1-0.1-0.3 0-0.2 0-0.4 0-0.2 0-0.4 0.1-0.1 0.1-0.3 0.1-0.2 0.2-0.4 0.1-0.1 0.2-0.3 0.1-0.1 0.3-0.2 0.1-0.1 0.3-0.2 0.1 0 0.3 0 0.2-0.1 0.3-0.1 0.2 0 0.3 0 0.2 0.1 0.3 0.1 0.2 0.1 0.3 0.2 0.1 0 0.2 0.1 0.1 0.2 0.2 0.3 0.1 0.1 0.1 0.3 0.1 0.2 0.1 0.3 0 0.2 0 0.3zm-0.6-0.4q0.1-0.1 0-0.2 0-0.1 0-0.2 0-0.1-0.1-0.2 0-0.1-0.1-0.1-0.1-0.1-0.1-0.2-0.1 0-0.2-0.1-0.1 0-0.2 0-0.1 0-0.2 0-0.1 0-0.2 0-0.1 0-0.2 0.1-0.1 0-0.2 0.1-0.1 0-0.2 0.1 0 0-0.1 0.1 0 0.1-0.1 0.2 0 0.1 0 0.2-0.1 0.1-0.1 0.2zm-3.8 2.1h-0.8l-1.4-1.5-0.4 0.4v1.1h-0.6v-4.9h0.6v3.2l1.7-1.8h0.8l-1.7 1.6zm-5.2 0h-0.6v-0.3q-0.1 0-0.2 0.1-0.1 0-0.1 0.1 0 0-0.1 0 0 0 0 0-0.1 0-0.1 0.1 0 0-0.1 0 0 0-0.1 0 0 0-0.1 0.1 0 0 0 0-0.1 0-0.2 0 0 0-0.1 0 0 0-0.1 0 0 0-0.1 0-0.1 0-0.2 0-0.1 0-0.2 0-0.1-0.1-0.2-0.1-0.1-0.1-0.2-0.2-0.1-0.1-0.1-0.2-0.1 0-0.2-0.2 0-0.1 0-0.2 0-0.1 0-0.2 0-0.1 0-0.2 0 0 0-0.1 0-0.1 0.1-0.2 0-0.1 0-0.1 0.1-0.1 0.1-0.2 0.1 0 0.2-0.1 0 0 0.1-0.1 0.1 0 0.1 0 0.1-0.1 0.2-0.1 0.1 0 0.2-0.1 0.1 0 0.2 0 0.1 0 0.2 0 0.5-0.1 1-0.1v-0.1q0 0 0-0.1 0 0 0-0.1 0 0-0.1 0 0-0.1 0-0.1 0-0.1 0-0.1-0.1 0-0.1 0 0-0.1 0-0.1-0.1 0-0.1 0 0-0.1-0.1-0.1 0 0 0 0-0.1 0-0.1 0-0.1 0-0.1 0 0 0-0.1 0 0 0-0.1-0.1 0 0-0.1 0 0 0-0.1 0 0 0-0.1 0-0.1 0.1-0.1 0.1-0.1 0-0.2 0 0 0-0.1 0-0.1 0-0.1 0-0.1 0.1-0.2 0.1-0.1 0-0.1 0-0.1 0.1-0.2 0.1v-0.6q0.2-0.1 0.5-0.1 0.1 0 0.1 0 0.1-0.1 0.2-0.1 0.1 0 0.2 0 0 0 0.1 0 0.1 0 0.2 0 0.1 0 0.2 0 0 0 0.1 0.1 0.1 0 0.2 0 0 0 0.1 0 0.1 0 0.1 0.1 0.1 0 0.1 0 0.1 0.1 0.2 0.1 0 0 0.1 0.1 0 0 0 0.1 0.1 0 0.1 0.1 0 0 0.1 0.1 0 0 0 0.1 0 0.1 0 0.1 0.1 0.1 0.1 0.2 0 0.1 0 0.1zm-0.6-0.8v-1q-0.3 0-0.7 0 0 0-0.1 0-0.1 0.1-0.2 0.1 0 0-0.1 0-0.1 0-0.1 0-0.1 0-0.2 0.1 0 0-0.1 0 0 0-0.1 0.1 0 0-0.1 0 0 0.1-0.1 0.3 0 0.1 0 0.2 0 0.1 0 0.2 0.1 0.1 0.2 0.2 0 0.1 0.1 0.1 0.1 0 0.1 0.1 0.1 0 0.2 0 0 0 0.1 0 0.1 0 0.2 0 0 0 0.1 0 0.1-0.1 0.2-0.1 0 0 0.1 0 0.1-0.1 0.1-0.1 0.1 0 0.1-0.1 0.1 0 0.2 0 0-0.1 0.1-0.1zm-4.2 0.8h-0.6v-2q0-0.2 0-0.4 0-0.1 0-0.1-0.1 0-0.1-0.1 0 0 0-0.1 0 0 0-0.1 0 0-0.1 0 0 0 0-0.1 0 0-0.1 0 0 0 0-0.1-0.1 0-0.1 0-0.1 0-0.1 0-0.1 0-0.1 0-0.1 0-0.1 0-0.1 0-0.2 0 0 0-0.1 0 0 0-0.1 0-0.1 0.1-0.1 0.1-0.1 0-0.2 0.1 0 0-0.1 0 0 0.1-0.1 0.1-0.1 0.1-0.1 0.1 0 0.1 0 0.2 0 0.1 0 0.2v2.2h-0.6v-2q0-0.2 0-0.4 0-0.1 0-0.1 0 0 0-0.1-0.1 0-0.1-0.1 0 0 0-0.1 0 0 0 0-0.1 0-0.1-0.1 0 0-0.1 0 0 0 0-0.1-0.1 0-0.1 0-0.1 0-0.1 0-0.1 0-0.1 0-0.1 0-0.1 0-0.1 0-0.1 0-0.1 0-0.2 0 0 0-0.1 0 0 0.1-0.1 0.1-0.1 0-0.1 0.1-0.1 0-0.1 0-0.1 0.1-0.2 0.1 0 0.1-0.1 0.1v2.6h-0.6v-3.5h0.6v0.4q0.1-0.1 0.1-0.1 0.1-0.1 0.2-0.1 0.1 0 0.1-0.1 0.1 0 0.2-0.1 0 0 0.1 0 0.1 0 0.2-0.1 0 0 0.1 0 0.1 0 0.2 0 0 0 0.1 0 0.1 0 0.2 0 0.1 0.1 0.1 0.1 0.1 0 0.2 0.1 0 0 0.1 0 0 0.1 0.1 0.1 0 0.1 0.1 0.2 0 0 0 0.1 0.1-0.1 0.2-0.1 0.1-0.1 0.2-0.2 0 0 0.1-0.1 0.1 0 0.2-0.1 0.1 0 0.2 0 0 0 0.1-0.1 0.1 0 0.2 0 0.1 0 0.1 0 0.2 0 0.3 0 0.1 0 0.2 0.1 0.1 0 0.2 0.1 0.1 0.1 0.2 0.2 0.1 0.1 0.1 0.2 0.1 0.1 0.1 0.2 0.1 0.2 0.1 0.3 0 0.1 0 0.2z"/>
	<path id="Layer" class="s2" d="m102.6 31.2h3.5v6.1l4.8-6.1h4l-6.2 7.9 6.8 9.9h-4l-5.4-7.9v7.9h-3.5v-17.8z"/>
	<path id="Layer" class="s2" d="m141.1 33.9l-2.4 2.3q-0.5-0.6-1.1-1.1-0.6-0.5-1.3-0.8-0.7-0.3-1.5-0.5-0.8-0.2-1.5-0.2-1.2 0-2.4 0.4-1.1 0.5-1.9 1.3-0.9 0.9-1.3 2-0.5 1.1-0.5 2.3 0 0.4 0.1 0.9 0 0.4 0.1 0.8 0.1 0.4 0.3 0.7 0.1 0.4 0.3 0.8 0.2 0.3 0.4 0.6 0.3 0.3 0.5 0.6 0.3 0.3 0.6 0.5 0.3 0.3 0.7 0.4 0.3 0.2 0.7 0.4 0.4 0.1 0.8 0.2 0.4 0.1 0.8 0.2 0.4 0 0.8 0 0.4 0 0.7 0 0.4 0 0.7-0.1 0.3-0.1 0.7-0.2 0.3-0.1 0.6-0.2 0.4-0.2 0.8-0.4 0.3-0.2 0.6-0.5 0.4-0.3 0.7-0.5 0.3-0.3 0.6-0.6l2.3 2.4q-0.4 0.4-0.8 0.8-0.5 0.3-0.9 0.7-0.5 0.3-1 0.6-0.5 0.3-1 0.5-0.5 0.2-1 0.4-0.5 0.1-1 0.2-0.5 0.1-1 0.1-0.5 0.1-1 0.1-1 0-1.9-0.1-0.9-0.2-1.8-0.5-0.9-0.4-1.6-0.9-0.8-0.5-1.5-1.1-1.1-1.2-1.7-2.6-0.7-1.4-0.9-2.9-0.2-1.6 0.1-3.1 0.3-1.5 1.1-2.9 0.3-0.5 0.6-1 0.4-0.5 0.9-0.9 0.4-0.4 0.9-0.8 0.5-0.3 1-0.6 0.6-0.3 1.1-0.6 0.6-0.2 1.2-0.4 0.6-0.1 1.3-0.2 0.6-0.1 1.2-0.1 1.1 0 2.2 0.3 1.1 0.2 2.1 0.7 1 0.4 1.9 1.1 0.8 0.7 1.6 1.5z"/>
	<path id="Layer" fill-rule="evenodd" class="s2" d="m150.3 30.5h3.5q0.6 0 1.1 0 0.5 0 1.1 0.1 0.5 0 1 0.2 0.5 0.1 1 0.2 0.3 0.2 0.6 0.3 0.3 0.2 0.6 0.4 0.2 0.3 0.5 0.5 0.2 0.3 0.4 0.6 0.2 0.3 0.3 0.6 0.1 0.4 0.2 0.8 0.1 0.3 0.2 0.7 0 0.4 0 0.8 0 0.4 0 0.8-0.1 0.4-0.2 0.8-0.1 0.4-0.3 0.7-0.2 0.4-0.5 0.7-0.2 0.4-0.5 0.6-0.3 0.3-0.6 0.5-0.4 0.2-0.8 0.4-0.3 0.2-0.7 0.3-0.4 0-0.9 0.1-0.4 0.1-0.9 0.1-0.4 0-0.9 0-0.4 0.1-0.9 0v7.6h-3.3zm3.3 6.9h1.1q0.2 0 0.5 0 0.2 0 0.4 0 0.2-0.1 0.4-0.1 0.3 0 0.5-0.1 0.1 0 0.2-0.1 0.1 0 0.2-0.1 0.1-0.1 0.2-0.2 0.1-0.1 0.1-0.2 0.1-0.1 0.2-0.2 0-0.1 0.1-0.3 0-0.1 0-0.2 0-0.2 0-0.3 0-0.2 0-0.4 0-0.3-0.2-0.5-0.1-0.2-0.2-0.3-0.2-0.2-0.4-0.3-0.2-0.1-0.5-0.2-0.2-0.1-0.5-0.1-0.3 0-0.6-0.1-0.2 0-0.5 0.1h-1z"/>
	<path id="Layer" class="s2" d="m170 30.5h3.4v14.5h4.9v3.3h-8.3v-17.8z"/>
	<path id="Layer" fill-rule="evenodd" class="s2" d="m82.6 90.9c1.8 4.6 3.5 7.5 5.3 7.6q0.2-0.6 0.6-1.2 0.4-0.6 0.8-1.2 0.5-0.5 1-1 0.5-0.5 1.1-0.9-4.3-1.5-8.8-3.3z"/>
	<path id="Layer" fill-rule="evenodd" class="s2" d="m80.6 84.1q0.7 2 1.3 3.8c4.2 1.7 8.2 3.1 11.9 4.2 1.8-1.1 3.1-1.7 2.6-1.5-2.8 0.7-5.1-0.5-7.2-3.2q-4.1-1.4-8.6-3.3z"/>
	<path id="Layer" fill-rule="evenodd" class="s3" d="m81.4 50.9c28.9 15.5 48.6 35 44 43.6-4.6 8.6-31.8 3.1-60.7-12.4-28.9-15.4-48.6-35-44-43.6 3.9-7.3 24.3-4.4 48.1 6.3q0.2 0.5 0.5 1.1c-15.5-6.1-38.6-13.1-43.2-4.5-4.1 7.8 13.6 25.2 39.5 39.1 25.9 13.8 50.2 18.8 54.4 11.1 2.2-4.2-2.1-11.4-10.7-19.3-4.8-6.3-14.8-14.1-27.3-20.8-1.6-0.8-4.5-2.2-8.2-3.8q-0.2-0.4-0.3-0.8 3.9 1.9 7.9 4z"/>
	<path id="Layer" fill-rule="evenodd" class="s2" d="m109.7 60.7c-0.5 0.2-1 0.7-1 1.3-0.1 0.6 0.2 1.2 0.8 1.5 0.5 0.2 1.1 0.2 1.6-0.2 0.4-0.3 0.6-1 0.5-1.5q-0.1-0.3-0.3-0.5-0.2-0.3-0.4-0.4-0.3-0.2-0.6-0.2-0.3 0-0.6 0z"/>
	<path id="Layer" fill-rule="evenodd" class="s2" d="m76.7 55q0.8 2.2 1.6 4.4c2.1 6.2 4.1 12.2 6.2 17.1q-2.9-1.1-6-2.5c-2-6.6-4.2-14-6.7-21.3q2.4 1.1 4.9 2.3zm-13.2-27.5c4.2 6.5 8.6 15.3 13.1 27.3q-2.5-1.3-5-2.5-1-3-2.1-5.9-1.1-3-2.4-5.9-1.3-2.8-2.7-5.7-1.5-2.8-3-5.5 1-1 2.1-1.8z"/>
	<path id="Layer" fill-rule="evenodd" class="s2" d="m37.5 11c9.1 0.3 16.2 6.4 22 15.3q0.9-0.9 2-1.8c-9-12.7-17.2-14.6-24-13.5z"/>
	<path id="Layer" fill-rule="evenodd" class="s2" d="m123.5 76.5c-1.1-5.9-5.8-9.9-12.1-12.7q0.4-0.8 0.7-1.6c9.4 4.6 11.4 9.7 11.4 14.3z"/>
	<path id="Layer" fill-rule="evenodd" class="s2" d="m93.9 20.4c-0.6 0.1-1 0.6-1 1.2-0.1 0.6 0.2 1.2 0.7 1.5 0.5 0.2 1.2 0.2 1.7-0.2 0.4-0.3 0.6-0.9 0.5-1.5q-0.1-0.3-0.3-0.5-0.2-0.3-0.5-0.4-0.2-0.2-0.5-0.2-0.3 0-0.6 0.1z"/>
	<path id="Layer" fill-rule="evenodd" class="s2" d="m79.5 56.6c23 12.3 38.9 26.8 35.8 32.6-3.1 5.8-24.6 0.4-47.9-12.1-23.4-12.5-39.5-27.8-36.7-33.1 2.8-5.2 16.7-2.1 34.5 5.6q-0.1 0.2-0.3 0.5c-9.8-3.7-16.9-4.9-18.6-1.8-1.6 3.1 6.5 11.6 19.3 19.3q-0.1 0.2-0.1 0.5 0 0.2 0 0.5 0 0.2 0.1 0.4 0.1 0.3 0.2 0.5 0.3-0.1 0.6-0.2 0.3-0.1 0.7-0.1 0.3 0 0.6 0 0.4 0 0.7 0 1.5 0.9 3 1.7c16 8.5 30.7 12.2 32.8 8.3 2.1-4-17-18.3-25-22.6q-0.1-0.1-0.1-0.1zm-0.5-0.1c0.1 0.1-7.7-4.1 0 0zm28.7 24.9c-0.6 0.2-1 0.7-1 1.3-0.1 0.6 0.2 1.2 0.8 1.5 0.5 0.3 1.1 0.2 1.6-0.2 0.5-0.3 0.7-0.9 0.5-1.5q0-0.3-0.2-0.6-0.2-0.2-0.5-0.4-0.3-0.1-0.6-0.1-0.3-0.1-0.6 0zm-57.9-22c-0.7 0.2-1.1 0.8-1.2 1.5-0.1 0.6 0.3 1.3 0.9 1.6 0.6 0.3 1.3 0.3 1.8-0.1 0.6-0.4 0.8-1.1 0.6-1.8q-0.1-0.3-0.3-0.6-0.2-0.3-0.5-0.4-0.3-0.2-0.7-0.2-0.3-0.1-0.6 0zm-12.5-15.4c-0.6 0.2-1 0.7-1 1.2-0.1 0.6 0.2 1.2 0.7 1.5 0.5 0.2 1.2 0.2 1.6-0.2 0.5-0.3 0.7-0.9 0.5-1.5q-0.1-0.3-0.2-0.5-0.2-0.2-0.5-0.4-0.2-0.1-0.5-0.2-0.3 0-0.6 0.1zm45.2 34.5c-0.6 0.2-1.1 0.8-1.1 1.4-0.1 0.7 0.2 1.3 0.8 1.6 0.6 0.3 1.3 0.3 1.8-0.1 0.5-0.4 0.7-1.1 0.6-1.7q-0.1-0.4-0.3-0.6-0.2-0.3-0.5-0.4-0.3-0.2-0.6-0.2-0.4-0.1-0.7 0z"/>
	<path id="Layer" fill-rule="evenodd" class="s2" d="m61.2 25.3c-0.5 0.2-0.9 0.7-1 1.3 0 0.6 0.3 1.2 0.8 1.5 0.5 0.2 1.1 0.2 1.6-0.2 0.5-0.3 0.7-1 0.5-1.5q-0.1-0.3-0.3-0.5-0.1-0.3-0.4-0.4-0.3-0.2-0.6-0.2-0.3 0-0.6 0z"/>
	<path id="Layer" fill-rule="evenodd" class="s2" d="m82.6 78.8c-0.4 0.2-0.8 0.6-0.8 1.1-0.1 0.5 0.2 1 0.6 1.3 0.5 0.2 1 0.2 1.4-0.1 0.4-0.4 0.6-0.9 0.5-1.4q-0.1-0.2-0.3-0.4-0.1-0.2-0.3-0.4-0.3-0.1-0.5-0.1-0.3-0.1-0.6 0z"/>
	<path id="Layer" fill-rule="evenodd" class="s2" d="m92.6 23.1c-8.1 19.5-29.3 41.3-26.4 45.5 3.5-1.2 8.7 1.9 8 1.4-5-3.7 1.8-13.3 9-24.6q1.7-2.5 3.3-5.1 1.5-2.7 2.9-5.3 1.4-2.7 2.7-5.5 1.3-2.8 2.4-5.6-1-0.4-1.9-0.8z"/>
	<path id="Layer" fill-rule="evenodd" class="s2" d="m92.6 1c3.9 5.1 3.7 11.7 1.4 18.7q0.9 0.4 1.8 0.8c3.1-10.7 0.5-16.2-3.2-19.5z"/>
	<path id="Layer" fill-rule="evenodd" class="s2" d="m107.6 62.3c-17.6-6.3-43.5-5.9-44.4-10.2 2.9-1.5 4-6.8 3.9-6-0.6 5.5 9.8 6.9 21.5 9.1q2.5 0.4 5.1 1 2.5 0.5 5 1.2 2.4 0.7 4.9 1.5 2.4 0.8 4.8 1.7-0.3 0.8-0.8 1.7z"/>
	<path id="Layer" fill-rule="evenodd" class="s2" d="m107.9 81.8c-0.4 0.1-0.8 0.5-0.8 0.9 0 0.5 0.2 0.9 0.6 1.1 0.4 0.2 0.9 0.2 1.2-0.1 0.4-0.3 0.5-0.7 0.4-1.2q-0.1-0.2-0.2-0.4-0.1-0.1-0.3-0.2-0.2-0.2-0.5-0.2-0.2 0-0.4 0.1z"/>
	<path id="Layer" fill-rule="evenodd" class="s2" d="m49.9 59.8c-0.4 0.2-0.8 0.6-0.8 1.1-0.1 0.5 0.2 1 0.6 1.2 0.5 0.3 1 0.2 1.4-0.1 0.4-0.3 0.6-0.8 0.4-1.3q0-0.3-0.2-0.5-0.2-0.2-0.4-0.3-0.2-0.1-0.5-0.1-0.2-0.1-0.5 0z"/>
	<path id="Layer" fill-rule="evenodd" class="s2" d="m37.4 44.3c-0.4 0.1-0.7 0.5-0.8 0.9 0 0.5 0.2 0.9 0.6 1.1 0.4 0.3 0.9 0.2 1.3-0.1 0.3-0.2 0.5-0.7 0.4-1.1q-0.1-0.3-0.2-0.4-0.2-0.2-0.4-0.3-0.2-0.1-0.4-0.2-0.3 0-0.5 0.1z"/>
	<path id="Layer" class="s2" d="m102.6 31.2h3.5v6.1l4.8-6.1h4l-6.2 7.9 6.8 9.9h-4l-5.4-7.9v7.9h-3.5v-17.8z"/>
	<path id="Layer" class="s2" d="m141.1 33.9l-2.4 2.3q-0.5-0.6-1.1-1.1-0.6-0.5-1.3-0.8-0.7-0.3-1.5-0.5-0.8-0.2-1.5-0.2-1.2 0-2.4 0.4-1.1 0.5-1.9 1.3-0.9 0.9-1.3 2-0.5 1.1-0.5 2.3 0 0.4 0.1 0.9 0 0.4 0.1 0.8 0.1 0.4 0.3 0.7 0.1 0.4 0.3 0.8 0.2 0.3 0.4 0.6 0.3 0.3 0.5 0.6 0.3 0.3 0.6 0.5 0.3 0.3 0.7 0.4 0.3 0.2 0.7 0.4 0.4 0.1 0.8 0.2 0.4 0.1 0.8 0.2 0.4 0 0.8 0 0.4 0 0.7 0 0.4 0 0.7-0.1 0.3-0.1 0.7-0.2 0.3-0.1 0.6-0.2 0.4-0.2 0.8-0.4 0.3-0.2 0.6-0.5 0.4-0.3 0.7-0.5 0.3-0.3 0.6-0.6l2.3 2.4q-0.4 0.4-0.8 0.8-0.5 0.3-0.9 0.7-0.5 0.3-1 0.6-0.5 0.3-1 0.5-0.5 0.2-1 0.4-0.5 0.1-1 0.2-0.5 0.1-1 0.1-0.5 0.1-1 0.1-1 0-1.9-0.1-0.9-0.2-1.8-0.5-0.9-0.4-1.6-0.9-0.8-0.5-1.5-1.1-1.1-1.2-1.7-2.6-0.7-1.4-0.9-2.9-0.2-1.6 0.1-3.1 0.3-1.5 1.1-2.9 0.3-0.5 0.6-1 0.4-0.5 0.9-0.9 0.4-0.4 0.9-0.8 0.5-0.3 1-0.6 0.6-0.3 1.1-0.6 0.6-0.2 1.2-0.4 0.6-0.1 1.3-0.2 0.6-0.1 1.2-0.1 1.1 0 2.2 0.3 1.1 0.2 2.1 0.7 1 0.4 1.9 1.1 0.8 0.7 1.6 1.5z"/>
	<path id="Layer" fill-rule="evenodd" class="s2" d="m150.3 30.5h3.5q0.6 0 1.1 0 0.5 0 1.1 0.1 0.5 0 1 0.2 0.5 0.1 1 0.2 0.3 0.2 0.6 0.3 0.3 0.2 0.6 0.4 0.2 0.3 0.5 0.5 0.2 0.3 0.4 0.6 0.2 0.3 0.3 0.6 0.1 0.4 0.2 0.8 0.1 0.3 0.2 0.7 0 0.4 0 0.8 0 0.4 0 0.8-0.1 0.4-0.2 0.8-0.1 0.4-0.3 0.7-0.2 0.4-0.5 0.7-0.2 0.4-0.5 0.6-0.3 0.3-0.6 0.5-0.4 0.2-0.8 0.4-0.3 0.2-0.7 0.3-0.4 0-0.9 0.1-0.4 0.1-0.9 0.1-0.4 0-0.9 0-0.4 0.1-0.9 0v7.6h-3.3zm3.3 6.9h1.1q0.2 0 0.5 0 0.2 0 0.4 0 0.2-0.1 0.4-0.1 0.3 0 0.5-0.1 0.1 0 0.2-0.1 0.1 0 0.2-0.1 0.1-0.1 0.2-0.2 0.1-0.1 0.1-0.2 0.1-0.1 0.2-0.2 0-0.1 0.1-0.3 0-0.1 0-0.2 0-0.2 0-0.3 0-0.2 0-0.4 0-0.3-0.2-0.5-0.1-0.2-0.2-0.3-0.2-0.2-0.4-0.3-0.2-0.1-0.5-0.2-0.2-0.1-0.5-0.1-0.3 0-0.6-0.1-0.2 0-0.5 0.1h-1z"/>
	<path id="Layer" class="s2" d="m170 30.5h3.4v14.5h4.9v3.3h-8.3v-17.8z"/>
	<path id="Layer" fill-rule="evenodd" class="s4" d="m176 28.9v-2.9h1.2q0.1 0 0.2 0 0.1 0 0.2 0 0.1 0 0.1 0.1 0.1 0 0.2 0 0.1 0 0.1 0 0.1 0.1 0.1 0.1 0 0 0.1 0.1 0 0 0 0.1 0.1 0 0.1 0.1 0 0 0 0.1 0.1 0.1 0.1 0.1 0 0.1 0 0.1 0 0.1 0 0.2 0 0.1-0.1 0.1 0 0.1 0 0.2-0.1 0-0.1 0.1-0.1 0-0.1 0.1-0.1 0-0.2 0.1-0.1 0-0.1 0-0.1 0-0.2 0 0 0.1 0.1 0.1 0 0 0.1 0.1 0 0 0 0 0.1 0.1 0.1 0.1 0.1 0 0.1 0.1 0.1 0.1 0.1 0.1 0 0.1 0.1 0.1 0 0.1 0.1 0.2l0.3 0.5h-0.7l-0.4-0.6q-0.1-0.1-0.1-0.1 0-0.1-0.1-0.1 0-0.1 0-0.1-0.1-0.1-0.1-0.1 0-0.1-0.1-0.1 0 0 0 0 0 0-0.1 0 0 0 0-0.1 0 0-0.1 0 0 0 0 0-0.1 0-0.1 0-0.1 0-0.1 0h-0.1v1.2zm0.6-1.7h0.4q0.1 0.1 0.1 0.1 0.1 0 0.2-0.1 0 0 0.1 0 0.1 0 0.1 0 0.1 0 0.1 0 0 0 0 0 0 0 0.1-0.1 0 0 0 0 0 0 0-0.1 0 0 0 0 0 0 0.1-0.1 0 0 0 0 0-0.1 0-0.1-0.1 0-0.1-0.1 0 0 0 0 0 0 0-0.1 0 0-0.1 0 0 0 0 0-0.1-0.1-0.1-0.1 0 0 0 0-0.1 0-0.5 0h-0.4z"/>
	<path id="Layer" fill-rule="evenodd" class="s4" d="m177.1 24.7c1.4 0 2.6 1 2.8 2.3 0.3 1.3-0.4 2.7-1.7 3.2-1.2 0.5-2.7 0.1-3.4-1.1-0.8-1.1-0.6-2.6 0.3-3.6q0.2-0.2 0.5-0.3 0.2-0.2 0.5-0.3 0.2-0.1 0.5-0.1 0.3-0.1 0.5-0.1zm1.6 1.3q-0.3-0.3-0.7-0.5-0.4-0.2-0.9-0.2-0.4 0-0.8 0.2-0.4 0.2-0.7 0.5c-0.7 0.6-0.9 1.6-0.5 2.4 0.3 0.8 1.1 1.4 2 1.4 0.9 0 1.8-0.6 2.1-1.4 0.4-0.8 0.2-1.8-0.5-2.4z"/>
</svg>