<svg version="1.2" xmlns="http://www.w3.org/2000/svg" viewBox="0 0 512 512" width="150" height="150">
	<title>air-conditioning</title>
	<style>
		.s0 { fill: #0474bb } 
	</style>
	<path id="Path 0" fill-rule="evenodd" class="s0" d="m87.9 24c2.1 0 4 0.9 5.8 2.8 1.6 1.6 6.5 8 10.9 14.3 4.5 6.3 11.3 16.4 15.1 22.4 3.8 6 9 14.8 11.5 19.5 2.6 4.7 6 12 7.7 16.3 1.7 4.2 3.6 10.7 4.3 14.4 0.9 5.3 0.9 8.6 0 14.8-0.9 5.4-2.5 10.6-5.1 16-2.7 5.4-5.9 10-10 14.3-3.4 3.4-8.2 7.4-10.9 8.9-2.6 1.5-7.5 3.8-11 5-3.4 1.3-9.5 2.6-13.5 2.9-4.1 0.4-10.1 0.2-14.2-0.5-3.9-0.7-10.5-2.9-15-5.1-5.9-2.8-9.8-5.6-14.9-10.6-5-5.1-7.8-9-10.7-14.9-2.6-5.4-4.2-10.6-5.1-16-0.9-6.2-0.9-9.5 0-14.8 0.7-3.7 2.6-10.2 4.3-14.5 1.7-4.2 5.1-11.5 7.6-16.2 2.6-4.7 7.7-13.5 11.6-19.5 3.8-6 10.6-16.1 15.1-22.4 4.4-6.3 9.3-12.7 10.8-14.3 1.8-1.9 3.6-2.8 5.7-2.8zm-29.8 68c-3.3 6.3-6.9 14.4-8.1 18-1.8 5.3-2.1 7.8-1.6 13.5 0.4 4.8 1.5 9 3.7 13.5l3.1 6.5c3.4-10.1 6.2-15.9 8.4-19.5 2.2-3.6 6.5-9.9 9.6-14 3-4.1 7-9 8.7-10.8 2.1-2.2 4-3.2 6.1-3.2 2.1 0 4 1 6.1 3.2 1.7 1.8 5.7 6.7 8.7 10.8 3.1 4.1 7.4 10.4 9.6 14 2.2 3.6 5 9.4 6.2 13l2.2 6.5c4.8-10.1 6.4-15.5 6.8-18.5 0.4-3.2 0.1-8-0.6-11.5-0.7-3.4-4.2-11.7-7.9-19-3.6-7.2-11.9-21-18.4-30.8-6.4-9.7-12.1-17.7-12.6-17.7-0.6 0-6.2 7.8-12.5 17.2-6.3 9.5-14.1 22.5-17.5 28.8zm15.4 47c-1.2 2.4-1.6 4.8-1.2 7.5 0.4 2.2 1.5 5.1 2.5 6.5 1.1 1.4 3.2 3.4 4.6 4.5 2 1.5 4.3 2 8.6 2 4.4 0 6.5-0.5 8.7-2.1 1.5-1.2 3.6-3.2 4.6-4.5 1-1.3 2-4.2 2.4-6.4 0.4-2.7 0-5.1-1.2-7.5-0.9-1.9-4.4-7.7-7.8-12.8-3.4-5.1-6.5-9.2-6.8-9.2-0.3 0-3.3 4.2-6.6 9.2-3.4 5.1-6.9 10.9-7.8 12.8zm-33.5-107c1.9 0 3.9 0.9 5.5 2.5 1.6 1.6 2.5 3.6 2.5 5.5 0 1.8-0.9 4-2.5 5.5-1.5 1.6-3.5 2.5-5.5 2.5-1.9 0-3.9-0.9-5.5-2.5-1.6-1.6-2.5-3.6-2.5-5.5 0.1-1.9 1.1-4.1 2.5-5.5 1.5-1.6 3.5-2.5 5.5-2.5zm375.9 328c17-0.1 18.8 0.1 21.1 1.9 2.3 1.7 2.5 2.8 3.5 19.9l6.5-3.8c3.6-2.2 7.6-4 9-4 1.4 0 3.5 0.7 4.6 1.7 1.2 1 6 8.7 10.8 17 4.7 8.4 8.6 16.2 8.6 17.3 0 1.1-0.4 2.8-0.9 3.7-0.4 1-3.8 3.6-7.5 5.8-3.6 2.2-6.6 4.2-6.6 4.5 0 0.3 3 2.3 6.6 4.5 3.7 2.2 7.1 4.8 7.5 5.7 0.5 1 0.9 2.7 0.9 3.8 0 1.1-3.9 8.9-8.6 17.2-4.8 8.4-9.6 16.1-10.8 17.1-1.1 1-3.2 1.7-4.6 1.7-1.4 0-5.4-1.8-15.5-7.8l-0.5 9c-0.5 8.1-0.7 9.2-3 10.9-2.3 1.8-4.2 2-21 2-16.8 0-18.7-0.2-21-2-2.3-1.7-2.5-2.8-3.5-19.9l-6.5 3.8c-3.6 2.2-7.5 3.9-8.7 4-1.3 0-3.2-0.4-4.3-1-1.1-0.6-6-8.1-11-16.8-4.9-8.6-9-16.7-9-18 0-1.2 0.5-3.1 1-4.2 0.6-1.1 3.9-3.6 7.5-5.5 3.6-1.9 6.5-3.9 6.5-4.5 0-0.6-2.9-2.6-6.5-4.5-3.6-1.9-6.9-4.4-7.5-5.5-0.5-1.1-1-3-1-4.3 0-1.2 4.2-9.3 9.3-18.1 5-8.7 10-16.3 11-16.7 0.9-0.5 2.7-0.9 4-0.9 1.2 0.1 5.1 1.8 15.2 7.8l0.5-9c0.4-7.9 0.8-9.2 2.9-10.9 2.1-1.7 4.2-1.9 21-1.9zm-7.9 27.5c0 10.9-0.1 11.6-2.5 14-1.4 1.5-3.5 2.5-5.2 2.5-1.6-0.1-6.8-2.5-11.8-5.5-6.8-4-9.3-5.1-10.1-4.2-0.6 0.7-2.5 3.8-4.2 6.9-3 5.4-3.1 5.9-1.4 6.8 0.9 0.6 5.3 3.2 9.7 5.9 5.4 3.2 8.3 5.6 9 7.4q1 2.7 0 5.4c-0.7 1.9-3.8 4.4-10.5 8.4-5.7 3.4-9.4 6.2-9.2 7 0.2 0.8 1.9 4 3.8 7.1 3.2 5.5 3.5 5.7 5.7 4.5 1.2-0.8 5.5-3.2 9.5-5.5 3.9-2.3 8.3-4.2 9.7-4.2 1.4 0 3.6 1.1 5 2.5 2.4 2.4 2.5 3.1 2.5 14v11.5h16c0-22.4 0.1-23.1 2.5-25.5 1.3-1.4 3.6-2.5 5-2.5 1.4 0 6.8 2.5 12 5.5l9.5 5.5c5.6-9.7 7.3-12.9 7.3-13.4 0.1-0.5-4.1-3.4-9.3-6.5-6.7-4-9.8-6.5-10.5-8.4q-1-2.7 0-5.4c0.7-1.9 3.8-4.4 10.5-8.4 5.2-3.1 9.4-6 9.3-6.5 0-0.5-1.7-3.7-3.7-7.2l-3.6-6.2c-14.7 8.5-20.1 11-21.5 11-1.4 0-3.6-1.1-5-2.5-2.4-2.4-2.5-3.1-2.5-14v-11.5h-16zm-272-355.5c1.9 0 3.9 0.9 5.5 2.5 1.6 1.6 2.5 3.6 2.5 5.5 0 1.8-0.9 4-2.5 5.5-1.5 1.6-3.5 2.5-5.5 2.5-1.9 0-3.9-0.9-5.5-2.5-1.6-1.6-2.5-3.6-2.5-5.5 0.1-1.9 1.1-4.1 2.5-5.5 1.5-1.6 3.5-2.5 5.5-2.5zm88 24c1.9 0 3.9 0.9 5.5 2.5 1.6 1.6 2.5 3.6 2.5 5.5 0 1.8-0.9 4-2.5 5.5-1.5 1.6-3.5 2.5-5.5 2.5-1.9 0-3.9-0.9-5.5-2.5-1.6-1.6-2.5-3.6-2.5-5.5 0.1-1.9 1.1-4.1 2.5-5.5 1.5-1.6 3.5-2.5 5.5-2.5zm48 0c18.9 0 19 0 21.5 2.5 1.6 1.6 2.5 3.6 2.5 5.5 0 1.8-0.9 4-2.5 5.5-2.4 2.5-2.5 2.5-21.5 2.5-18.9 0-19 0-21.5-2.5-1.6-1.6-2.5-3.6-2.5-5.5 0.1-1.9 1.1-4.1 2.5-5.5 2.4-2.5 2.6-2.5 21.5-2.5zm-17.2 32.1c6.1-0.1 16.3 0.6 22.5 1.4 6.1 0.8 15.7 2.6 21.2 4 5.5 1.4 14.5 4.4 20 6.6 5.5 2.2 14.3 6.4 19.5 9.4 5.2 2.9 13.1 8 17.5 11.3 4.4 3.2 11.3 9 15.4 12.8 4.1 3.8 10.2 10.3 13.6 14.4 3.4 4.1 8.8 11.3 11.9 16 3.1 4.7 7.8 13 10.5 18.5 2.7 5.5 6.3 14.1 7.9 19 1.7 4.9 4 13.1 5.1 18 1.1 4.9 2.5 13.9 3.2 20 0.7 6.4 0.9 16.2 0.6 23.5-0.4 6.9-1.3 16.6-2.2 21.5-0.9 4.9-2.7 12.8-4 17.5-1.3 4.7-4.4 13.2-6.8 19-2.5 5.8-5.5 11.5-6.6 12.7-1.3 1.4-3.3 2.3-5.1 2.3-1.9 0-3.9-0.9-5.5-2.5-1.4-1.4-2.5-3.5-2.5-4.8 0-1.2 1.7-6.3 3.9-11.2 2.1-4.9 5-12.8 6.4-17.5 1.4-4.7 3.4-12.6 4.3-17.5 1.2-6.2 1.8-14.2 1.8-26 0.1-12.6-0.4-19.6-1.8-27-1-5.5-3.4-14.7-5.3-20.5-1.8-5.8-5.3-14.6-7.7-19.5-2.4-4.9-7.2-13.3-10.7-18.5-4.1-6.2-10.6-13.8-18.8-22.1-8.3-8.2-15.9-14.7-22.1-18.8-5.2-3.5-14-8.5-19.5-11.1-5.5-2.6-13.6-5.9-18-7.4-4.4-1.4-12.5-3.5-18-4.6-5.5-1.1-15.6-2.3-22.5-2.6-7.6-0.4-16.6-0.2-23 0.5-5.8 0.7-15 2.3-20.5 3.7-5.5 1.4-14.9 4.5-21 7.1-6 2.5-12.5 4.7-14.2 4.9-2.5 0.3-3.9-0.2-5.8-2.1-1.6-1.6-2.5-3.6-2.5-5.5 0-1.7 0.9-3.9 2-5 1.1-1.1 4.1-2.9 6.8-4.1 2.6-1.2 7.9-3.4 11.7-4.9 3.9-1.6 11.5-4 17-5.5 5.5-1.4 14.5-3.2 20-3.9 5.5-0.8 15.1-1.4 21.3-1.5zm-0.3 32c5 0 13.1 0.4 18 1 5 0.6 13.2 2.2 18.3 3.5 5 1.3 13.4 4.2 18.5 6.4 5 2.2 12.7 6.1 17.1 8.8 4.3 2.6 11.5 7.7 16 11.3 4.4 3.6 11.2 10.1 15 14.5 3.8 4.3 9.4 11.7 12.5 16.4 3 4.7 7.2 12.1 9.2 16.5 2 4.4 4.8 11.4 6.2 15.5 1.4 4.1 3.2 11.3 4.1 16 0.9 4.7 1.9 13.7 2.3 20 0.3 6.5 0 15.6-0.6 21-0.6 5.2-2.1 13.3-3.3 18-1.1 4.7-3.7 12.6-5.7 17.5-2 4.9-5.5 12.4-7.9 16.5-2.3 4.1-6.6 10.6-9.4 14.5-2.9 3.9-9.1 10.8-13.8 15.5-4.7 4.7-13 11.5-18.5 15.2-5.5 3.7-13.8 8.5-18.5 10.7-4.7 2.2-12.1 5.1-16.5 6.6-4.4 1.4-11.6 3.2-16 4.1-4.4 0.8-12.9 1.7-19 2.1-6.5 0.3-15.3 0.1-21.5-0.7-5.8-0.6-14.7-2.3-19.7-3.6-5.1-1.3-13.5-4.2-18.5-6.4-5.1-2.2-12.8-6.1-17.2-8.8-4.3-2.6-11.9-8.1-17-12.3-5-4.1-11.8-10.7-15-14.5-3.3-3.8-8.4-10.7-11.5-15.4-3-4.7-7.2-12.1-9.2-16.5-2.1-4.4-4.9-11.6-6.4-16-1.4-4.4-3.2-11.6-4.1-16-0.8-4.4-1.7-12.9-2.1-19-0.3-6.5-0.1-15.3 0.7-21.5 0.6-5.8 2.3-14.7 3.6-19.8 1.3-5 4.2-13.4 6.4-18.4 2.2-5.1 6.1-12.8 8.8-17.2 2.6-4.3 8.1-11.9 12.3-17 4.1-5 11.1-12.1 15.5-15.7 4.3-3.7 11.1-8.7 14.9-11.1 3.9-2.5 9.7-5.9 13-7.5 3.3-1.7 9.2-4.2 13-5.6 3.9-1.5 10.6-3.6 15-4.7 4.4-1 11.2-2.3 15-2.8 3.9-0.5 11.1-1 16-1.1zm-19.5 17.9c-4.1 0.7-11.5 2.6-16.5 4.2-4.9 1.6-12.8 4.9-17.5 7.3-4.7 2.4-11.6 6.7-15.5 9.5-3.8 2.9-9.8 8-13.3 11.3-3.5 3.4-8.9 9.6-12 13.7-3.1 4.1-7.5 11.1-9.9 15.5-2.3 4.4-5.5 11.6-7.2 16-1.6 4.4-3.7 11.8-4.7 16.5-1.4 6.2-1.8 12.7-1.8 24 0 11.3 0.4 17.8 1.8 24 1 4.7 3.1 12.1 4.7 16.5 1.7 4.4 4.9 11.6 7.2 16 2.4 4.4 6.8 11.4 9.9 15.5 3.1 4.1 8.5 10.3 12 13.7 3.5 3.3 9.5 8.4 13.3 11.3 3.9 2.8 10.8 7.1 15.5 9.5 4.7 2.4 12.6 5.7 17.5 7.3 5 1.6 12.2 3.6 16 4.3 4.2 0.8 13.1 1.4 22 1.4 10.6-0.1 17.5-0.6 23.5-1.9 4.7-1 12.1-3.1 16.5-4.7 4.4-1.7 11.6-4.9 16-7.2 4.4-2.4 11.4-6.8 15.5-9.9 4.1-3.1 10.7-8.9 14.5-12.9 3.9-4.1 9.4-10.8 12.1-14.9 2.8-4.1 6.8-10.9 8.9-15 2.1-4.1 5-11.3 6.5-16 1.5-4.7 3.4-11.6 4.1-15.5 0.8-4 1.4-13.2 1.4-21.5 0-8.3-0.6-17.5-1.4-21.5-0.7-3.8-2.6-10.8-4.1-15.5-1.5-4.7-4.4-11.9-6.5-16-2.1-4.1-6-10.9-8.8-15-2.8-4.1-9.1-11.6-14.1-16.6-5-5-12.5-11.3-16.6-14.1-4.1-2.8-10.4-6.5-14-8.3-3.6-1.8-9.4-4.4-13-5.7-3.6-1.4-10.3-3.4-15-4.4-5.4-1.3-13.6-2.1-22.5-2.4-7.7-0.2-14.7-0.2-15.5 0-0.8 0.2-4.9 0.9-9 1.5zm-128.7 54c1.5 0 3.8 1.1 5.2 2.5 1.4 1.4 2.5 3.5 2.5 4.8 0 1.2-1.4 6.4-3 11.5-1.7 5-3.8 13.4-4.7 18.5-1.2 6.6-1.7 14.3-1.7 27.2 0 15.4 0.4 19.7 2.6 30 1.4 6.6 4.4 16.9 6.7 23 2.3 6.1 6.4 15.1 9.1 20 2.8 4.9 7.9 12.8 11.4 17.5 3.5 4.7 10.8 12.8 16.2 18 5.5 5.2 14 12.3 18.9 15.8 5 3.5 13.5 8.5 19 11.2 5.5 2.7 14.7 6.5 20.5 8.3 5.8 1.9 15 4.3 20.5 5.3 7.4 1.4 14.5 1.9 27 1.9 12-0.1 19.7-0.6 26-1.8 5-1 12.8-2.9 17.5-4.4 4.7-1.4 12.6-4.3 17.5-6.4 5-2.1 10-3.9 11.3-3.9 1.2 0 3.3 1.1 4.7 2.5 1.5 1.5 2.5 3.6 2.5 5.3 0 1.5-0.6 3.5-1.3 4.4-0.7 0.9-4.1 3.1-7.7 4.8-3.6 1.8-9.4 4.3-13 5.7-3.6 1.3-10.8 3.5-16 4.8-5.2 1.4-12.9 3-17 3.7-4.1 0.7-15.4 1.2-25 1.2-9.6 0-20.9-0.5-25-1.2-4.1-0.7-12-2.4-17.5-3.8-5.5-1.4-14.7-4.5-20.5-6.8-5.8-2.4-13.2-5.8-16.5-7.6-3.3-1.9-9.4-5.6-13.5-8.3-4.1-2.7-10.9-7.8-15-11.2-4.1-3.4-10.6-9.5-14.4-13.6-3.7-4.1-9.2-10.5-12-14.4-2.9-3.9-7.4-10.6-10.1-15-2.7-4.4-6.8-12.4-9.2-17.7-2.3-5.4-5.6-14.2-7.2-19.5-1.6-5.4-3.7-14.3-4.7-19.8-1.3-7.3-1.8-15-1.8-29 0-15.6 0.4-20.9 2.2-30 1.2-6.1 3.5-15.4 5.2-20.7 2.1-6.9 3.7-10.3 5.3-11.3 1.2-0.8 3.4-1.5 5-1.5zm133.7 248c18.9 0 19 0 21.5 2.5 1.6 1.6 2.5 3.6 2.5 5.5 0 1.8-0.9 4-2.5 5.5-2.4 2.5-2.5 2.5-21.5 2.5-18.9 0-19 0-21.5-2.5-1.6-1.6-2.5-3.6-2.5-5.5 0.1-1.9 1.1-4.1 2.5-5.5 2.4-2.5 2.6-2.5 21.5-2.5zm48 0c1.9 0 3.9 0.9 5.5 2.5 1.6 1.6 2.5 3.6 2.5 5.5 0 1.8-0.9 4-2.5 5.5-1.5 1.6-3.5 2.5-5.5 2.5-1.9 0-3.9-0.9-5.5-2.5-1.6-1.6-2.5-3.6-2.5-5.5 0.1-1.9 1.1-4.1 2.5-5.5 1.5-1.6 3.5-2.5 5.5-2.5zm-30-287.6c5.9 0.2 8.9 1 14.3 3.4 3.7 1.8 8.7 5.2 11.2 7.7 2.5 2.5 6 7.5 7.8 11.2 3 6.3 3.2 7.5 3.1 16.8 0 8.7-0.4 10.7-2.7 15.5-1.4 3-4.4 8.9-6.7 13-2.9 5.5-4 8.7-4 11.7 0 2.5 0.8 5.5 1.8 7 1 1.6 2.2 3.6 2.5 4.5 0.4 1 2.5 2.7 4.7 3.8 3.1 1.6 6 2 13.3 2 5 0 11.9 0.5 15.2 1.1 3.3 0.6 8.4 2.3 11.4 3.7 2.9 1.5 7.5 5.1 10.2 7.9 2.7 2.9 6.1 7.9 7.7 11 2.4 5.1 2.7 7 2.7 15.8 0 9.1-0.3 10.6-3 16.5-1.7 3.6-4.9 8.3-7 10.5-2.2 2.3-6 5.3-8.5 6.7-2.5 1.5-7.4 3.5-11 4.4-4.4 1.1-8.3 1.4-12.2 1-3.2-0.3-8.2-1.5-11-2.5-3.2-1.2-7.7-4.1-11.2-7.3-3.6-3.3-7.8-8.5-10.9-13.8-2.7-4.7-5.9-9.6-7.1-10.8-1.2-1.3-3.3-3-4.8-3.8-1.6-0.8-5-1.4-7.8-1.4-2.7 0-6.2 0.6-7.7 1.4-1.6 0.8-3.7 2.5-4.9 3.8-1.2 1.2-4.4 6.1-7.1 10.8-3.1 5.3-7.3 10.5-10.9 13.8-3.5 3.2-8.1 6.2-11.4 7.4-4 1.6-7.8 2.2-14 2.2-6.1 0-9.9-0.6-13.5-2-2.7-1.1-7.2-3.6-10-5.5-2.7-2-6.5-5.8-8.3-8.5-1.8-2.7-4.2-7.4-5.3-10.4-1.7-4.4-2-7.2-1.7-14 0.3-6.6 1-9.8 3.1-14.3 1.5-3.1 4.9-8.1 7.6-11 2.7-2.8 7.3-6.4 10.2-7.9 3-1.4 8.1-3.1 11.4-3.7 3.3-0.6 10.2-1.1 15.3-1.1 7.2 0 10.1-0.4 13.2-2 2.2-1.1 4.3-2.8 4.7-3.8 0.3-0.9 1.5-3 2.6-4.7 1.6-2.4 1.9-4.1 1.5-8-0.4-3.5-2.2-7.9-6.1-15-3-5.5-6.1-12.3-6.8-15-0.6-2.8-1-8.1-0.7-12 0.3-5.1 1.3-8.8 3.6-13.8 1.8-3.7 5.2-8.7 7.7-11.2 2.5-2.5 6.8-5.6 9.5-7 2.8-1.4 6.7-2.9 8.8-3.5 2-0.5 7.1-0.8 11.2-0.6zm-19.5 23.8c-1.6 2-3.6 5.3-4.2 7.4-0.7 2.2-1.3 6-1.3 8.6 0 4 1.1 7 6.5 17.3 3.6 6.9 6.5 13.1 6.5 13.7 0 1 2.7 1.3 10 1.3 7.3 0 10-0.3 10-1.3 0-0.6 2.9-6.8 6.5-13.7 5.4-10.3 6.5-13.3 6.5-17.3 0-2.6-0.6-6.4-1.3-8.6-0.6-2.1-2.5-5.4-4.2-7.4-1.6-2-5.2-4.6-8-5.9-2.9-1.3-6.9-2.3-9.5-2.3-2.6 0-6.6 1-9.5 2.3-2.7 1.3-6.3 3.9-8 5.9zm4.8 69.7c-1.2 1.7-2.6 4.6-2.9 6.3-0.3 1.8-0.3 5.1 0.1 7.3q0.7 4 4.4 7.6c2.1 2.1 5.1 4 7.1 4.4 1.9 0.4 5.3 0.4 7.5 0q4-0.7 7.6-4.4c2.1-2.1 4-5.1 4.4-7.1 0.4-1.9 0.4-5.2 0.1-7.3-0.3-2-1.8-5.1-3.3-6.9-1.6-1.7-4.3-3.7-6-4.5-1.8-0.7-4.8-1.3-6.5-1.3-1.8 0.1-4.8 0.7-6.7 1.4-1.9 0.7-4.5 2.7-5.8 4.5zm-51.8 21c-1.6 0.7-4.5 2.4-6.4 3.9-1.9 1.5-4.5 4.9-5.8 7.7-1.4 3.2-2.3 6.9-2.3 10.2 0 2.9 0.6 6.8 1.3 8.5 0.8 1.8 2.7 4.8 4.3 6.7 1.6 1.8 4.7 4.3 6.9 5.4 2.8 1.5 5.9 2.1 10.6 2.2 5.6 0 7.3-0.4 11.5-3 4-2.5 6.2-5.1 11.9-14.2 3.9-6.2 7.7-12 8.7-13 1.5-1.7 1.4-2.1-1.6-6.3-1.8-2.5-3.9-6-4.7-7.8-0.8-1.9-2-3.2-2.9-3.1-0.8 0.1-7.6 0.5-15 0.9-7.4 0.4-14.8 1.3-16.5 1.9zm94.2 0.5c-0.6 1.7-2.5 5.1-4.3 7.6-3 4.2-3.1 4.6-1.6 6.3 1 1 4.9 6.8 8.7 13 5.7 9.1 7.9 11.7 11.9 14.2 4.2 2.6 5.9 3 11.5 3 4.7-0.1 7.8-0.7 10.6-2.2 2.2-1.1 5.3-3.6 6.9-5.4 1.6-1.9 3.5-4.9 4.3-6.7 0.7-1.7 1.3-5.6 1.3-8.5q0-5.2-2.5-10.5c-1.6-3.4-4-6.2-6.7-8.2-2.4-1.7-6.5-3.5-9.3-4-2.7-0.5-10.6-1-17.4-1.2l-12.3-0.4z"/>
</svg>