<svg version="1.2" xmlns="http://www.w3.org/2000/svg" viewBox="0 0 260 280" width="70" height="70">
	<title>image-removebg-preview (7)</title>
	<style>
		.s0 { opacity: 1;fill: #0474bb } 
	</style>
	<g id="Background">
		<path id="Path 0" fill-rule="evenodd" class="s0" d="m142.1 8.2l0.6 9.4c0.5 6.9 1.3 9.4 3.2 9.4 1.4 0 8.5-2.3 15.8-5.1 7.2-2.8 13.4-4.9 13.6-4.7 0.2 0.2-0.4 3.1-1.3 6.4-0.9 3.2-1.7 7.3-1.7 8.9 0 2.5 1.2 2.9 7.3 2.2 4-0.4 11.2-1.2 25.1-2.6l-4.2 8.5c-3.1 6.2-3.7 8.7-2.2 9.2 1.2 0.4 8.7 1.7 31.1 4.8l-6.8 6.6c-4.4 4.3-6.2 7.2-5.1 8.2 1 0.9 7.6 4.1 14.9 7.3 7.2 3.1 12.8 6.2 12.3 7-0.4 0.7-3.8 3-7.6 5.1-3.8 2.1-6.8 4.2-6.8 4.7 0.1 0.4 6 5.4 26.3 21.3l-8.9 2.5c-4.9 1.4-8.9 3.4-8.9 4.3 0.1 0.9 4.3 7.3 18.8 26.4h-9.4c-6.4 0-9.4 0.7-9.4 2.1 0 1.2 2.4 8.3 5.2 15.8 2.9 7.5 5 13.9 4.7 14.1-0.3 0.3-4.1-0.5-8.6-1.7-4.4-1.2-8.3-1.8-8.7-1.3-0.4 0.5-0.1 5.1 0.7 10.2 0.7 5.2 1.4 12.3 1.6 22.2l-7.7-4.3c-4.2-2.3-7.8-4.2-8.1-4.3-0.2 0-1.5 7.3-2.9 16.3-1.5 8.9-3 16.2-3.5 16.2-0.4 0-3.5-2.6-6.8-5.9-3.3-3.3-6.3-5.7-6.8-5.4-0.5 0.3-3.3 6.8-6.4 14.4-3 7.7-6.1 13.9-6.8 13.9-0.7 0-3.4-3.4-10.7-15.3l-21.3 27.2-3-10.2c-1.6-5.6-3.5-10.2-4.2-10.2-0.7 0-7.4 4.9-28.6 21.8l-1.7-21.4-14.5 6.5c-8 3.6-14.9 6.6-15.3 6.6-0.5 0 0.3-4.1 1.7-9.2 1.4-5.1 2.2-9.7 1.7-10.2-0.5-0.4-7.8 0.3-16.2 1.7-8.5 1.3-15.9 2.4-16.6 2.5-0.7 0 1-3.8 3.8-8.5 2.8-4.7 4.6-9.1 4.1-9.8-0.6-0.7-8.2-2.1-33-4.7l7.2-7.3c5.9-6.1 6.7-7.6 4.6-8.9-1.4-0.9-8.5-3.8-15.8-6.4-13.2-4.7-13.3-4.7-9.4-7.6 2.2-1.6 6.1-3.9 8.7-5.1 2.6-1.3 4.7-2.8 4.7-3.5-0.1-0.7-6.3-5.7-27.8-20.9l6.6-2c3.6-1.1 8-2.1 9.6-2.1 1.6-0.1 3.3-0.7 3.7-1.4 0.4-0.7-3.8-6.7-9.3-13.3-5.5-6.5-10.1-12.5-10.1-13.2 0-0.7 4.5-1.3 10.2-1.3 5.6 0 10.2-0.1 10.2-0.4 0.1-0.2-3-7.3-6.9-15.8-3.8-8.4-6.7-15.5-6.4-15.8 0.3-0.3 4.5 0.6 9.5 2.1 4.9 1.5 9.2 2.1 9.6 1.4 0.4-0.7-0.4-6.7-1.7-13.2-1.2-6.6-2.3-13.7-2.4-19.6l8.4 4.7c4.7 2.5 8.8 4.3 9.3 3.8 0.5-0.5 1.5-8 2.2-16.6 0.8-8.7 1.8-15.8 2.3-15.8 0.4 0 4 3.3 15 14.5l5.7-15.8c3.1-8.7 6.1-15.8 6.5-15.8 0.5 0 3 3.5 5.6 7.7 2.6 4.2 5.2 7.7 6 7.6 0.7 0 5.4-6.3 20-27.9l6 21.2 9.8-6.8c5.3-3.8 12-8.8 14.7-11.1zm-54.2 58.7c-4.7 2.8-12.3 8.9-16.8 13.7-4.6 4.7-10.9 14-14.1 20.5-3.9 8-6.2 15.8-7.1 23.6-0.7 6.4-0.8 12-0.4 12.4 0.5 0.4 7 0.8 14.5 0.8l13.7-0.1c2-13.9 4.7-21.7 7.3-26.2 2.5-4.6 7.1-10.6 10.1-13.2 3.1-2.7 8.5-6.4 12-8.1 3.5-1.8 8.9-3.7 11.9-4.3l5.6-1.1v-29c-8.6 0.1-15 1.5-19.6 3.1-4.7 1.6-12.4 5.2-17.1 7.9zm46.9 18c8.6 1.7 13.9 3.6 17.5 5.4 3.5 1.7 8.9 5.4 11.9 8.1 3 2.6 7.6 8.6 10.2 13.2 2.6 4.5 5.2 12.3 6 17.3l1.3 8.9c21.8 0 28.4-0.6 28.8-1.3 0.3-0.7-0.1-6.3-0.9-12.4-0.9-6.5-3.9-16-7.5-23.4-3.7-7.8-9.4-15.8-15.3-21.7-5.9-5.9-14-11.7-21.7-15.4-6.8-3.3-16.3-6.5-21.1-7.1l-8.7-1zm-24 40.9c-1.8 3.3-3.3 7.9-3.3 10.2 0 2.4 1.5 7 3.3 10.3 1.7 3.2 5.8 7.3 8.9 8.9 3.2 1.7 7.7 3 10 3 2.4 0 6.9-1.3 10-3 3.1-1.6 7.2-5.7 9-8.9 1.7-3.3 3.2-7.9 3.2-10.3 0-2.3-1.5-6.9-3.2-10.2-1.8-3.3-5.9-7.3-9-9-3.1-1.6-7.6-3-10-3-2.3 0-6.8 1.4-10 3-3.1 1.7-7.2 5.7-8.9 9zm-60.3 28.6c0.6 2.5 3.7 10.2 6.9 17 3.8 8 9.1 15.7 15.2 21.7 5.9 5.9 14 11.7 21.7 15.4 6.8 3.3 16.4 6.6 21.4 7.3l8.9 1.2v-29.8c-11.2-2.6-18.1-5.6-22.6-8.5-4.5-2.8-10.2-8.1-12.8-11.6-2.6-3.5-5.8-8.9-7.2-12l-2.6-5.6-29.9 0.2zm126.7 0.8c-1.3 3-4.4 8.4-7 11.9-2.6 3.6-8.4 8.8-12.8 11.6-4.5 2.9-11.4 6-15.4 6.9l-7.2 1.6v29.8c13.9-1.9 23.7-5.3 30.7-8.8 8-3.9 16.1-9.7 21.7-15.3 5.6-5.7 11.2-13.8 14.8-21.5 3.2-6.8 6.3-14.5 6.8-17l1-4.7h-30.3z"/>
	</g>
</svg>