<svg version="1.2" xmlns="http://www.w3.org/2000/svg" viewBox="0 0 512 512" width="100" height="100">
	<title>product</title>
	<style>
		.s0 { fill: #0474bb } 
	</style>
	<path id="Path 0" fill-rule="evenodd" class="s0" d="m256.5 24.5c2.2 0.2 26.1 7.5 53 16.2 26.9 8.8 50 16.5 51.3 17.2 1.3 0.6 2.6 2.6 3.2 4.9 0.6 2.3 1 29.3 1 70.2 0 40.9-0.4 67.9-1 70.3-0.7 2.5-1.9 4.2-3.7 5.1-1.6 0.7-25.3 8.6-52.8 17.5-27.5 8.8-50.7 16.1-51.5 16.1-0.8 0-24-7.3-51.5-16.1-27.5-8.9-51.2-16.8-52.8-17.5-1.8-0.9-3-2.6-3.7-5.1-0.6-2.4-1-29.3-1-69.8 0-36.3 0.2-67.3 0.5-69 0.3-1.7 1.3-3.9 2.3-5 1.1-1.4 9.4-4.6 24.2-9.3 12.4-4.1 35.1-11.5 50.5-16.6 20.2-6.7 29.1-9.3 32-9.1zm-70.7 40.4c0.1 0.3 15.9 5.7 35.2 11.9l35 11.2c54.3-17.4 70-22.7 70-23 0-0.3-15.6-5.6-34.7-11.8-19.2-6.2-35.2-11.2-35.8-11.2-0.6 0.1-16.5 5.1-35.4 11.2-18.9 6.2-34.3 11.4-34.3 11.7zm-20.3 130.3c62 20 80.3 25.8 80.8 25.8 0.4 0 0.7-26.6 0.7-59 0-32.4-0.1-59-0.3-59-0.1 0-17.8-5.6-39.2-12.5-21.4-6.9-39.7-12.8-40.7-13.1-1.5-0.5-1.6 3.8-1.5 58.6zm107.8-94.7l-8.3 2.5c0 91.5 0.4 118 0.8 118 0.4 0 18.7-5.8 40.7-12.9l40-12.9c0.4-91.6 0.2-118.1-0.2-118.1-0.4 0.1-15.2 4.8-32.8 10.5-17.6 5.8-35.7 11.6-40.2 12.9zm-237.3-14.9c2.5 0.3 7.2 1.8 10.5 3.3 3.3 1.6 7.6 4.1 9.4 5.7 1.9 1.6 4.7 4.7 6.2 6.9 1.5 2.2 3.7 7 4.9 10.5 2.2 6.4 2.2 7.1 0.7 76.5l5.4 1.4c3 0.8 8.3 2.8 11.9 4.5 3.9 1.9 8.6 5.4 12.3 9.1 4.5 4.6 7.2 8.7 11.2 17 3 6.1 9.9 20.4 15.4 31.8 9.4 19.3 10.6 21.2 17 27.5 3.7 3.7 10.4 10.1 14.8 14.2 4.4 4.2 9.8 10 12 13 2.2 3.1 5.6 8.5 7.6 12 1.9 3.6 4.7 9.9 6.1 14 1.4 4.2 3.3 12 4.1 17.5 0.8 5.5 1.5 12 1.5 18.5l5.3-2.5c2.9-1.3 6.4-2.5 7.7-2.5 1.4 0 3.5 0.8 4.8 1.7 1.2 1 8.1 14.1 15.4 29.3 7.9 16.5 13.2 28.8 13.2 30.8 0.1 2.2-0.6 4-2.4 5.6-1.3 1.3-24.7 13-52 25.9-27.2 13-53.7 25.6-59 28.1-5.2 2.6-10.6 4.6-12 4.7-1.3 0-3.6-1.1-5-2.4-1.3-1.4-8.2-14.5-15.1-29.3-7-14.8-12.9-27.6-13.3-28.6-0.3-1-0.1-3 0.4-4.5 0.6-1.5 2.7-3.7 4.8-4.9 2.7-1.6 3.9-3.1 4.5-5.5 0.4-1.9 0.8-7.4 0.8-12.4 0-7.6-0.4-9.7-2.6-14-1.4-2.7-16.5-21.8-33.6-42.5-17.1-20.6-32.8-40.4-34.9-44-2.1-3.5-5.1-9.8-6.8-14-1.6-4.1-4-12.2-5.2-18-1.6-7.7-2.1-12.6-1.7-18.5 0.2-4.4 5.9-42 12.6-83.7 6.7-41.7 12.6-76.7 13.1-77.8 0.6-1.1 2-2.7 3.3-3.5 1.6-1.1 3.5-1.4 6.7-0.9zm-7.5 94.2c-11.4 71.7-11.6 72.9-10.6 81.2 0.6 4.7 2.2 11.7 3.5 15.5 1.2 3.9 4 10.2 6 14 2.4 4.7 13.9 19.4 34.3 44 16.8 20.4 32 39.1 33.6 41.5 1.7 2.5 4 7 5 10 1.2 3.6 2 8.7 2.1 14.3 0.1 5.4 0.5 8.6 1.1 8.4 0.6-0.2 15.5-7.3 33.2-15.8l32.2-15.4c0.6-8.5 0.4-15-0.1-20-0.4-4.9-1.7-12.1-2.8-16-1.2-3.8-3.8-10.1-5.8-14-2-3.8-5.8-9.7-8.5-13-2.7-3.3-7.4-8.1-10.5-10.8-3.1-2.7-8.3-7.4-11.6-10.5-3.2-3.1-7.8-8.6-10.1-12.2-2.3-3.5-10-18.6-17.1-33.5-9.3-19.5-13.9-28.2-16.9-31.3-2.2-2.4-6.2-5.4-9-6.8-2.9-1.4-7.8-2.8-11.7-3.2-4.3-0.4-6.8-0.3-6.8 0.3 0.1 0.6 7.7 17 17 36.5 9.4 19.6 17 36.8 17 38.3 0 1.5-1 3.9-2.2 5.4-1.5 1.7-3.3 2.6-5.3 2.7-1.6 0-4.1-0.6-5.5-1.5-1.8-1.2-7.7-12.6-22.2-43.2-10.9-22.9-19.8-42.3-19.8-43.2 0-0.8 0.6-2.6 1.3-4 0.7-1.4 3.1-3.4 5.5-4.5 2.3-1.1 4.7-2 5.2-2 0.6 0 1.3-2.8 1.5-6.2 0.3-3.4 0.6-20 0.8-36.8 0.2-26.6 0-30.8-1.4-33.5-0.9-1.6-3.1-4.4-5-6.2-1.9-1.8-3.7-3.3-4.1-3.3-0.4 0-0.8 0.5-0.8 1 0 0.6-5.2 33.8-11.5 73.8zm66.8 252.7c-0.2 0.6 3.6 9.2 8.5 19.2l8.7 18.2c78.3-37.2 101.1-48.1 101.2-48.2 0-0.1-3.9-8.5-8.8-18.7-4.9-10.1-9.2-18.5-9.6-18.6-0.4-0.1-23 10.5-50.2 23.5-27.1 13-49.5 24.1-49.8 24.6zm383.2-347.4c1.1 0 3 0.6 4.3 1.4 1.2 0.9 2.7 2.4 3.2 3.5 0.6 1.1 6.5 36.1 13.2 77.8 6.7 41.7 12.4 79.3 12.6 83.7 0.3 5.5-0.3 11.3-1.7 18.3-1.1 5.6-3.5 13.7-5.2 18-1.7 4.3-4.8 10.7-6.9 14.2-2.1 3.6-17.8 23.4-34.9 44-17.1 20.7-32.2 39.8-33.6 42.5-2.1 4.3-2.5 6.4-2.5 14 0 5 0.4 10.5 0.8 12.4 0.5 2.4 1.8 3.9 4.5 5.5 2.1 1.2 4.2 3.4 4.8 4.9 0.5 1.5 0.7 3.5 0.3 4.5-0.3 1-6.3 13.8-13.2 28.6-7 14.8-13.7 27.9-15.1 29.2-1.3 1.4-3.5 2.4-5 2.4-1.4 0-6.8-2-12.1-4.6-5.2-2.5-31.7-15.1-59-28.1-27.2-12.9-50.6-24.6-52-25.9-1.7-1.6-2.4-3.4-2.4-5.6 0.1-2 5.4-14.3 13.3-30.8 7.3-15.2 14.1-28.3 15.4-29.3 1.2-0.9 3.4-1.7 4.7-1.7 1.4 0 4.9 1.2 13 5v-4.2c0-2.3 0.7-8.8 1.6-14.3 0.8-5.5 2.7-13.3 4.1-17.5 1.4-4.1 4.1-10.4 6.1-14 2-3.5 5.4-8.9 7.6-12 2.2-3 7.6-8.8 12-13 4.4-4.1 11.1-10.5 14.8-14.2 6.4-6.3 7.5-8.2 16.9-27.5 5.6-11.4 12.5-25.7 15.4-31.8 4.1-8.3 6.8-12.4 11.3-17 3.6-3.7 8.3-7.2 12.3-9.1 3.5-1.7 8.9-3.7 17.2-5.9l-0.7-35c-0.8-34.4-0.7-35.1 1.4-41.5 1.3-3.5 3.5-8.3 5-10.5 1.5-2.2 4.3-5.3 6.1-6.8 1.9-1.6 5.6-4 8.2-5.3 2.6-1.3 6.4-2.8 8.5-3.3 2-0.5 4.6-0.9 5.7-1zm-16.3 29.4c-1.5 2.7-1.6 6.9-1.4 33.5 0.1 16.8 0.5 33.4 0.7 36.8 0.3 3.4 1 6.2 1.5 6.2 0.6 0 2.9 0.9 5.3 2 2.3 1.1 4.8 3.1 5.5 4.5 0.7 1.4 1.2 3.2 1.2 4 0 0.9-8.9 20.3-19.7 43.2-14.5 30.6-20.4 42-22.3 43.2-1.3 0.9-3.8 1.5-5.5 1.5-1.9-0.1-3.8-1-5.2-2.7-1.3-1.5-2.3-3.9-2.2-5.4 0-1.5 7.6-18.7 16.9-38.3 9.4-19.5 17-35.9 17-36.5 0-0.6-2.4-0.7-6.7-0.3-3.9 0.4-8.9 1.8-11.8 3.2-2.7 1.4-6.8 4.4-9 6.8-2.9 3.1-7.6 11.8-16.9 31.3-7 14.9-14.7 30-17 33.5-2.4 3.6-6.9 9.1-10.2 12.2-3.2 3.1-8.4 7.8-11.5 10.5-3.1 2.7-7.9 7.5-10.5 10.8-2.7 3.3-6.5 9.2-8.5 13-2 3.9-4.6 10.2-5.8 14-1.1 3.9-2.4 11.1-2.9 16-0.4 5-0.6 11.5-0.4 14.5l0.3 5.5c49.9 23.9 64.9 31 65.4 31.2 0.6 0.2 1.1-3 1.2-8.4 0.1-5.6 0.8-10.7 2.1-14.3 1-3 3.2-7.5 4.9-10 1.7-2.4 16.9-21.1 33.7-41.5 20.4-24.6 31.8-39.3 34.3-44 2-3.8 4.7-10.1 6-14 1.3-3.8 2.8-10.8 3.4-15.5 1.1-8.3 0.9-9.5-10.5-81.2-6.4-40-11.6-73.2-11.6-73.8 0-0.5-0.3-1-0.8-1-0.4 0-2.3 1.5-4.1 3.3-1.8 1.8-4 4.6-4.9 6.2zm-156.4 291.5l-7.5 15.5 101.2 48.4c13.7-28.2 17.4-36.8 17.2-37.4-0.2-0.5-22.6-11.5-49.7-24.5-27.1-12.9-49.6-23.6-50-23.8-0.4-0.2-1.4 1.2-2.3 3-0.8 1.8-4.8 10.3-8.9 18.8z"/>
</svg>