<svg version="1.2" xmlns="http://www.w3.org/2000/svg" viewBox="0 0 512 512" width="60" height="60">
	<title>telephone-call</title>
	<style>
		.s0 { fill: #0474bb } 
	</style>
	<path id="Path 0" fill-rule="evenodd" class="s0" d="m123.9 32c2.4 0 5 0.9 7.6 2.8 2.2 1.5 6.1 5.5 8.6 8.7 2.6 3.3 8.9 12.5 14.1 20.5 5.2 8 13.9 21.9 19.3 31 5.4 9.1 12.7 22.1 16.2 29 3.5 6.9 7.2 15.2 8.3 18.5 1.1 3.3 2 6.9 2 8 0 1.1-1.2 4-2.8 6.5-1.7 2.7-9.3 10-18.8 18.1-8.7 7.5-17.4 15.2-22.4 20.4l1.6 5.5c0.8 3 2.9 9.3 4.6 14 1.7 4.7 5.6 13.4 8.6 19.5 3 6.1 8 15.1 11.1 20 3 4.9 8.5 12.9 12.1 17.7 3.6 4.7 10.3 12.8 15 17.9 4.7 5.1 13.4 13.5 19.5 18.7 6.1 5.2 15.9 12.7 22 16.7 6.1 4.1 16.2 10.1 22.5 13.4 6.3 3.3 14.9 7.4 19 9.1 4.1 1.7 11.3 4.2 24.5 8.1l6-6.3c3.3-3.5 10.7-11.9 16.5-18.8 5.8-6.8 12.3-13.7 14.5-15.3 2.2-1.5 5.1-3.1 6.5-3.4 1.4-0.3 5.3 0.3 9 1.5 3.6 1.2 12.1 5 19 8.5 6.9 3.5 19.9 10.8 29 16.2 9.1 5.4 22.4 13.7 29.5 18.3 7.1 4.7 16.3 10.9 20.2 13.8 4 3 8.7 7.3 10.3 9.7 2 2.7 3.1 5.4 3.1 7.7 0 2.4-1.3 5.4-4 9.5-2.1 3.3-10.6 12.5-18.8 20.5-8.1 8-20.2 19-26.8 24.5-6.6 5.5-17.4 14.1-24 19-6.6 5-15.6 11.1-20 13.8-7.1 4.2-8.7 4.7-13.8 4.7-3.1 0-11-1.1-17.5-2.5-6.4-1.4-15.8-3.6-20.7-5.1-4.9-1.4-15.3-5.1-23-8.1-7.7-3.1-20.5-8.8-28.5-12.8-8-4-18.6-9.6-23.5-12.5-4.9-2.9-14.4-8.9-21-13.3-6.6-4.4-17.8-12.3-25-17.7-7.2-5.4-19.8-15.5-28-22.6-8.3-7-22-19.8-30.6-28.3-8.5-8.6-21.3-22.3-28.3-30.6-7-8.2-17.2-20.9-22.6-28-5.4-7.1-13.3-18.4-17.7-25-4.4-6.6-10.4-16.1-13.3-21-2.9-4.9-8.5-15.5-12.5-23.5-4-8-9.8-20.8-12.8-28.5-3.1-7.7-6.9-18.9-8.6-25-1.7-6.1-4-15.6-5.1-21.2-1.1-5.7-2-12.7-2-15.5 0-4.6 0.6-6.4 4.7-13.3 2.7-4.4 8.8-13.4 13.8-20 4.9-6.6 13.5-17.4 19-24 5.5-6.6 16.5-18.7 24.5-26.8 8-8.2 17.2-16.6 20.4-18.8 4.1-2.7 7-3.9 9.5-3.9zm148.4-0.3l12.1 0.6c6.7 0.3 17.3 1.4 23.6 2.5 6.3 1.2 16.9 3.7 23.5 5.7 6.6 2 16.7 5.6 22.5 8.1 5.8 2.5 15.4 7.3 21.4 10.7 5.9 3.4 15.6 9.8 21.5 14.2 5.8 4.3 15.8 13.1 22.1 19.5 6.4 6.3 15.2 16.3 19.5 22.1 4.4 5.9 10.8 15.6 14.2 21.5 3.4 6 8.2 15.6 10.7 21.4 2.5 5.8 6.1 15.9 8.1 22.5 2 6.6 4.5 17.2 5.6 23.5 1.1 6.3 2.3 17 3.4 36h-32.5l-0.5-5.2c-0.2-2.9-0.7-8.7-1-12.8-0.4-4.1-1.5-12-2.6-17.5-1.1-5.5-3.6-14.7-5.6-20.5-1.9-5.8-5.7-15-8.3-20.5-2.7-5.5-7.9-14.5-11.5-20-3.7-5.5-9.9-13.8-13.9-18.4-3.9-4.7-11.2-12-16.1-16.4-4.9-4.3-13.7-11-19.5-14.8-5.8-3.9-15.2-9.3-21-12.1-5.8-2.8-15-6.6-20.5-8.4-5.5-1.8-14.7-4.2-20.5-5.4-5.8-1.2-14.1-2.3-18.5-2.6-4.4-0.3-9.9-0.7-16.5-1.4zm-0.3 80.3h6.3c3.4 0 10.3 0.6 15.2 1.5 5 0.9 13.7 3.1 19.5 5.1 5.8 1.9 13.9 5.3 18 7.5 4.1 2.3 10 5.7 13 7.7 3 2 8.8 6.6 12.9 10.2 4.1 3.5 10.6 10.3 14.4 15 3.7 4.6 9.1 12.3 11.8 17 2.7 4.6 6.3 12.1 8 16.5 1.8 4.4 4.2 12.2 5.6 17.5 1.3 5.2 2.7 14.1 3.8 30h-32.5l-0.5-5.8c-0.3-3.1-1.2-9.3-2.1-13.7-0.9-4.4-2.7-11-4-14.5-1.4-3.6-4.1-9.5-6.1-13-2.1-3.6-6.4-9.9-9.7-13.9-3.4-4.1-9.7-10.3-14.1-13.8-4.4-3.5-12-8.4-17-10.9-4.9-2.4-13.5-5.6-19-6.9-5.5-1.4-11.6-2.5-13.5-2.5-1.9 0-5-0.3-10-1.5z"/>
</svg>