<svg version="1.2" xmlns="http://www.w3.org/2000/svg" viewBox="0 0 512 512" width="60" height="54">
	<title>4213179</title>
	<style>
		.s0 { opacity: 1;fill: #e7f4ff } 
		.s1 { fill: #3c75ff } 
		.s2 { fill: #446cff } 
		.s3 { opacity: 1;fill: #347fff } 
		.s4 { fill: #1e9aff } 
		.s5 { fill: #13a7ff } 
		.s6 { fill: #4d61ff } 
		.s7 { opacity: 1;fill: #09b4ff } 
		.s8 { fill: #298cff } 
		.s9 { opacity: 1;fill: #bae2ff } 
		.s10 { opacity: 1;fill: #ceeaff } 
		.s11 { opacity: .3;fill: #4071ff } 
		.s12 { opacity: .7;fill: #416fff } 
		.s13 { opacity: .3;fill: #11aaff } 
		.s14 { opacity: .5;fill: #288eff } 
	</style>
	<g id="Background">
		<path id="Path 0" class="s0" d="m282.5 1.1c-1.6 0.5-4.3 2.1-5.8 3.7-1.5 1.5-3.2 4.4-3.7 6.4-0.7 2.4-0.7 5.2 0 7.5 0.5 2.1 2.2 5 3.7 6.5 1.5 1.5 4.4 3.2 6.3 3.8 1.9 0.5 6.9 1 11 1 4.1 0 11.3 0.5 16 1 4.7 0.6 12.6 1.9 17.5 3 4.9 1 13.5 3.3 19 5 5.5 1.8 14.5 5.2 20 7.7 5.5 2.4 14.3 7 19.5 10.1 5.2 3.1 13.8 8.8 19 12.8 5.2 3.9 14.1 11.8 19.7 17.5 5.7 5.7 12.6 13.3 15.4 16.9 2.9 3.6 7.7 10.3 10.8 15 3 4.7 8.1 13.7 11.3 20l5.7 11.5c8.2-0.5 12.2-1.3 14.1-2.1 1.9-0.8 4.5-1.4 5.8-1.4 1.3 0 3.6-1.2 5.2-2.7l2.9-2.8c-11.4-23.3-17.9-34.7-21.7-40.5-3.9-5.8-10.6-14.8-15-20-4.3-5.2-12.4-13.7-17.8-18.9-5.4-5.1-14-12.4-18.9-16.1-4.9-3.7-12.6-9-17-11.7-4.4-2.8-12.9-7.5-19-10.5-6.1-3.1-15.5-7.2-21-9.3-5.5-2-15.9-5.2-23-7-7.1-1.8-18.2-4-24.5-4.8-6.3-0.9-16.2-1.8-22-2.1-5.8-0.2-11.9 0-13.5 0.5z"/>
		<path id="Path 1" class="s1" d="m232.1 363.7c-0.8 0.2-1.4 1.3-1.3 2.4 0.2 1.5-0.4 1.9-3.2 1.9-1.9 0-4.1 0.6-4.8 1.4-0.7 0.7-3.7 1.5-6.6 1.7-2.8 0.2-5.2 0.1-5.2-0.3 0-0.5-0.7-0.8-1.5-0.8-0.8 0-1.6-0.5-1.7-1-0.2-0.7-3.8-0.5-10.3 0.4-5.5 0.8-11.3 1.7-13 2.1-1.6 0.3-4 0.8-5.2 1.1-1.5 0.2-2.3 1.1-2.3 2.4 0 1.4-0.7 2-2.2 2-1.3 0-3.3 0.2-4.5 0.5-1.7 0.4-2.3 0-2.3-1.2 0-1.6-0.6-1.7-4.5-1-2.8 0.4-4.5 0.3-4.5-0.3 0-0.5 2.1-1.1 4.8-1.3l4.7-0.3c-7.8-0.3-9.5-0.8-9.5-1.6 0-0.9-2.4-1.6-6.7-2-3.8-0.5-8.7-0.8-11-0.8-2.4 0-5.2 0.6-6.3 1.3-1.7 1-2.2 0.9-2.8-0.1-0.5-1-1.6-1.1-4.7-0.3-2.2 0.5-4.3 0.8-4.7 0.6-0.5-0.3-2.5 0.2-4.5 1-2.1 0.9-4 1.1-4.3 0.6-0.3-0.5-1.6-0.4-3 0.1-2.4 0.9-1.7 1.7 17.5 20.4 11 10.7 20.1 19.2 20.3 18.9 0.1-0.3 1.9 1.4 4.1 3.8l3.8 4.2c9.5-5 13.2-6.5 14.3-6.5 1.1 0 4.8-0.9 8.3-2.1 4-1.3 6.3-1.7 6.5-1 0.1 0.6 0.8 0.8 1.5 0.5 0.6-0.4 46.2-0.6 101.2-0.6 55 0.1 104.9-0.2 110.8-0.6 6.4-0.4 11-1.2 11.5-1.9 0.4-0.6 2.5-1.4 4.7-1.6 2.2-0.3 5-0.8 6.3-1.1 1.2-0.3 2.2-0.8 2.2-1.1 0-0.3-1.3-2.4-2.9-4.7-1.6-2.4-4.2-5.5-5.8-7-1.5-1.5-11.6-8.6-22.3-15.8-10.7-7.1-20.3-13-21.2-13-1 0-2.7 0.5-3.8 1-1.1 0.6-2 1.7-2 2.5 0 0.8-1 1.7-2.2 2-1.3 0.3-3.3 0.5-4.5 0.5-1.3 0-2.3 0.5-2.3 1 0 0.6-2.3 0.9-5.5 0.8-3.1-0.2-5.9-0.8-6.3-1.5-0.5-0.8-7.9-1.1-25.7-1.1-13.7 0-29.7-0.6-35.5-1.2-5.8-0.7-11.5-1.6-12.7-2.1-1.3-0.5-2.7-0.9-3.3-0.9-0.6 0-1 1.4-1 3v3c-7-3.1-9.2-3.7-9.5-3.2-0.2 0.4-1.1 0.1-2-0.5-1.1-0.9-2.1-1-3.5-0.3-1.5 0.7-3.6 0.5-8-1-3.3-1.1-7-2-8.2-1.9-1.3 0-3 0.3-3.7 0.6z"/>
		<path id="Path 2" class="s2" d="m420.8 404.7c-0.3 0.4-2.3 0.8-4.5 1.1-2.2 0.2-4.5 0.8-5.1 1.4-0.5 0.6-5.9 1.5-11.8 1.9-6 0.5-55.9 0.8-110.9 0.7-55 0-100.6 0.2-101.3 0.6-0.6 0.3-1.3 0.1-1.5-0.5-0.1-0.7-2.4-0.3-6.5 1-3.4 1.2-7.1 2.1-8.2 2.1-1.1 0-4.7 1.4-8 3l-6 3c7.4 6.4 13.8 11.8 19 16 5.2 4.2 14.7 11.5 21 16.3 6.3 4.8 11.9 8.6 12.5 8.6 0.6 0 1.5-0.7 2.2-1.7 0.8-1 1.2-1.2 1.3-0.4 0 0.8 1 0.5 2.7-0.9 1.6-1.1 3.9-2.2 5.3-2.4 1.4-0.3 5.6-0.9 9.5-1.4 4.2-0.6 39.6-1 87-1.1 73.3 0 80.5 0.2 85.4 1.8 2.9 0.9 6.2 2.6 7.3 3.7 2 2 2 2 6.4-2.5 2.4-2.5 5.6-6.7 7.1-9.5 1.4-2.7 3.2-7.2 4-10 0.7-2.7 1.3-7.9 1.3-11.5 0-3.7-0.8-9.4-2-13.2-1.5-5.2-2.4-6.8-3.8-6.8-1 0-2.1 0.3-2.4 0.7z"/>
		<path id="Path 3" class="s3" d="m164.5 311c-0.3 0.6-1.6 1-3 1-2.1 0-2.5 0.5-2.8 3.3-0.2 2.9-0.5 3.2-3.7 3.5-2 0.2-4.3 1-5.3 1.8-0.9 0.8-1.4 1.6-1 1.8 0.5 0.3-3 1-7.7 1.6-6.1 0.8-8.6 0.9-8.8 0.1-0.1-0.8-1.4-0.8-4.4-0.1-2.4 0.6-4.5 0.7-4.8 0.2-0.3-0.5-5.9-0.8-12.5-0.7-6.6 0-12.6 0.4-13.3 0.8-0.6 0.4-1.3 0.2-1.4-0.4-0.2-0.9-1.2-0.9-4 0-2.1 0.6-4.3 0.9-4.8 0.6-0.5-0.3-2.7 0.2-4.7 1-2.4 1-4 1.2-4.3 0.5-0.3-0.5-1.9-0.1-3.7 1l-3.3 2c6.9 8.9 13 16.2 18.1 22 5 5.8 11.5 13.1 14.5 16.3 4.9 5.2 5.6 5.6 7.9 4.7 1.7-0.7 2.6-0.7 2.7 0 0.2 0.7 1.7 0.5 4-0.5 2.1-0.8 4.1-1.3 4.5-1 0.5 0.2 2.6-0.1 4.8-0.6 3.1-0.8 4.2-0.7 4.7 0.3 0.6 1 1.1 1.1 2.8 0 1.1-0.6 3.9-1.2 6.3-1.2 2.3 0 7.2 0.3 11 0.8 4.3 0.4 6.7 1.1 6.7 1.9 0 0.8 1.8 1.4 4.8 1.6l4.7 0.3c-7.4 0.3-9.5 0.8-9.5 1.4 0 0.6 1.7 0.7 4.5 0.2 3.9-0.6 4.5-0.5 4.5 1 0 1.3 0.6 1.7 2.2 1.3 1.3-0.3 3.3-0.5 4.5-0.5 1.6 0 2.3-0.6 2.3-2 0-1.3 0.8-2.2 2.2-2.4 1.3-0.3 3.6-0.8 5.3-1.1 1.7-0.4 7.5-1.3 13-2.1 6.5-0.9 10.1-1.1 10.3-0.4 0.1 0.5 0.9 1 1.7 1 0.8 0 1.5 0.3 1.5 0.7 0 0.5 2.4 0.6 5.2 0.4 2.9-0.2 5.9-1 6.6-1.7 0.7-0.8 2.9-1.4 4.8-1.4 2.7 0 3.4-0.4 3.4-2 0-1.1 0.7-2.2 1.5-2.5 0.8-0.3 2.5-0.5 3.7-0.5 1.5 0-0.4-1.5-5.7-4.5-4.4-2.5-12.3-7.8-17.5-11.8-5.2-4-16-13.6-24-21.3l-14.5-14.2-6.5 3.8c0-4-0.6-5-1.5-5-0.7 0-1.6 0.4-2 1zm131 19.4c-2.2 0.7-6 2.3-8.5 3.6-2.6 1.3-10.5 8.2-18.7 16.4-11.5 11.3-14 14.4-13 15.4 0.6 0.7 1.6 1.1 2.2 0.9 0.6-0.2 2.9 0.4 5.2 1.5l4.3 1.8c0-4.6 0.4-6 1-6 0.6 0 2 0.4 3.2 0.9 1.3 0.5 7 1.4 12.8 2.1 5.8 0.6 21.7 1.2 35.5 1.2 17.8 0 25.2 0.3 25.7 1.1 0.4 0.7 3.2 1.3 6.3 1.5 3.2 0.1 5.5-0.2 5.5-0.8 0-0.6 1-1 2.2-1 1.3 0 3.3-0.4 4.5-0.8 1.3-0.4 2.5-1.5 2.8-2.4 0.3-1.1 1.9-2.1 3.7-2.4 3.2-0.6 2.4-1.2-19.2-15.5-16.6-11-24.2-15.4-29-16.9-4.4-1.4-9.1-2-14.5-2-4.4 0.1-9.8 0.7-12 1.4z"/>
		<path id="Path 4" class="s4" d="m6.5 211.7c-1.1 0.2-1.9 0.5-1.8 0.6 0.2 0.1 1.6 4 3.2 8.7 1.5 4.7 4.5 12.6 6.6 17.5 2 5 5.8 13 8.3 18 2.6 4.9 5.3 9.5 5.9 10.2 0.7 0.7 2 1.3 2.8 1.3 0.9 0 1.5-0.9 1.5-2.5 0-2.2 0.5-2.5 4.2-2.7 3.4-0.2 4.4-0.7 4.6-2.3 0.2-1.7 1.3-2.1 7-2.7 3.7-0.5 11.4-0.8 17.2-0.7 6.8 0 9.8 0.3 8.5 0.9l-2 0.9c3.1 0.3 4.5 0.5 5 0.6 0.5 0.1 2.2 0.7 3.8 1.3 1.5 0.7 5.4 1.2 8.7 1.2 3.4 0 6.1 0.5 6.3 1.1 0.1 0.5 2.1 1.3 4.5 1.7 3.1 0.5 4.2 0.4 4.2-0.5 0-0.7 0.8-1.1 1.8-0.9 0.9 0.2 2.9 0.7 4.5 1l2.7 0.6v-13c8.6 0 9 0.2 9 2.5 0 1.9 0.5 2.5 2.3 2.5 1.2 0 3.2 0.2 4.5 0.5 1.2 0.3 2.2 1.2 2.2 2.3 0 1.3 1.1 1.9 4.7 2.5 2.7 0.4 5.6 0.7 6.6 0.7 0.9 0 1.7-0.6 1.7-1.2 0-0.7 6.7-8 14.9-16.3 11-11.1 15.6-16.5 17.8-21 1.7-3.3 3.3-7.5 3.7-9.2 0.6-3.3 0.6-3.3-3.2-3.2-2 0.1-37.9 0.1-79.7 0-41.8 0-77.7 0.3-79.8 0.7-2.7 0.5-3.7 0.4-3.7-0.5 0-0.8-1.2-1.3-3.3-1.2-1.7 0.1-4.1 0.3-5.2 0.6z"/>
		<path id="Path 5" class="s5" d="m152.8 151.6c-1.7 0.3-2.8 1-2.8 1.9 0 1.1-2 1.9-6.8 2.8-4.7 0.8-20.3 1.2-53.2 1.2-25.6 0-50.3-0.3-55-0.7-4.7-0.4-10.3-1.1-12.5-1.5-2.2-0.4-7.1-0.7-10.9-0.7l-6.9-0.1c-2.1 6.2-3.2 11.6-3.8 16-0.6 4.4-0.8 11.2-0.4 15 0.3 3.9 1 9.7 1.6 13 0.6 3.3 1.4 7.7 2 9.8l0.9 3.7c7.3-1.2 9.4-1.1 9.8-0.5 0.5 0.7 25.7 0.8 74.2 0.5 40.4-0.3 76.6-0.3 80.5 0.1 3.8 0.3 8.3 0.2 10-0.1 2.9-0.6 3-0.8 3.3-6.5 0.2-3.3-0.2-8.5-0.8-11.5-0.7-3-2.1-7.3-3.2-9.5-1.1-2.2-6.3-10.6-11.6-18.7-5.4-8.1-10.2-14.7-10.7-14.6-0.6 0-2.2 0.3-3.8 0.4z"/>
		<path id="Path 6" class="s6" d="m230 453.1c-3 0.4-6.8 1-8.5 1.3-1.7 0.2-4.2 1.4-5.8 2.5-1.9 1.5-2.8 1.7-3 0.8-0.2-0.7-0.9-0.3-1.5 1-1.1 2.2-0.6 2.7 10.3 9.8 6.3 4.1 15.9 10 21.3 13.1 5.3 3.1 13.5 7.6 18.2 9.9 4.7 2.3 13.7 6.3 20 8.8 6.3 2.5 16 5.7 21.5 7.1 5.5 1.4 14.3 3 19.5 3.6 5.2 0.6 12.2 0.8 15.5 0.5 3.3-0.4 8.9-1.3 12.5-2.1 3.6-0.9 9.6-3.2 13.5-5.1 5.8-3 10.7-7.3 27.9-24.2l20.9-20.6c-3.2-3.1-6.5-4.8-9.4-5.7-5-1.6-12-1.8-86.4-1.7-44.6 0.1-83.5 0.5-86.5 1z"/>
		<path id="Path 7" class="s7" d="m80.5 83.2c-3.3 0.4-8.9 2.2-12.5 3.9-5.7 2.6-9.6 6.1-31.6 28.2-19.3 19.5-25.7 26.6-28.2 31.2-1.7 3.3-3.2 6.2-3.2 6.5 0 0.3 3.5 0.8 7.7 1.2 4.3 0.4 9.2 1 10.8 1.3 1.6 0.3 6.8 0.9 11.5 1.3 4.7 0.4 29.4 0.7 55 0.7 32.9 0 48.5-0.4 53.3-1.3 4.7-0.8 6.7-1.6 6.7-2.7 0-0.9 0.9-1.5 2.3-1.5 1.2 0 2.8-0.4 3.4-0.8 0.9-0.5-4.1-8.7-16.1-26.7-10.3-15.5-19.2-27.7-22-30.3-2.5-2.3-7.4-5.5-10.8-7.2-3.5-1.6-8.3-3.2-10.8-3.5-2.5-0.3-5.6-0.7-7-0.9-1.4-0.1-5.2 0.1-8.5 0.6z"/>
		<path id="Path 8" class="s8" d="m114 258.5c0 5.7-0.2 6.4-1.8 6.1-0.9-0.2-2.9-0.7-4.5-1q-2.7-0.6-2.7 0.7c0 0.9-1.1 1-4.2 0.5-2.4-0.4-4.4-1.2-4.5-1.7-0.2-0.6-2.9-1.1-6.3-1.1-3.3 0-7.2-0.5-8.8-1.2-1.5-0.6-3.2-1.2-3.7-1.3-0.5-0.1-1.9-0.3-3-0.4l-2-0.2c3.3-1.5 0.3-1.8-6.5-1.8-5.8-0.1-13.5 0.2-17.2 0.7-5.7 0.6-6.8 1-7 2.7-0.2 1.6-1.2 2.1-4.5 2.3-3.8 0.2-4.3 0.5-4.3 2.7 0 2-0.4 2.4-2 2-1.1-0.3-2-0.3-2 0 0 0.3 2.1 4 4.7 8.3 2.5 4.2 7.8 12.4 11.6 18.2 3.9 5.8 10.9 15.7 15.6 22 4.7 6.3 8.8 11.8 9.1 12.3 0.3 0.5 2.1-0.1 4-1.2 2-1.2 3.7-1.6 4-1.1 0.3 0.7 1.9 0.5 4.3-0.5 2-0.8 4.2-1.3 4.7-1 0.5 0.3 2.7 0 4.8-0.6 2.8-0.9 3.8-0.9 4 0 0.1 0.6 0.8 0.8 1.5 0.4 0.6-0.4 6.6-0.8 13.2-0.8 6.6-0.1 12.2 0.2 12.5 0.7 0.3 0.5 2.4 0.4 4.8-0.2 3-0.7 4.3-0.7 4.5 0.1 0.1 0.8 2.6 0.7 8.7-0.1 4.7-0.6 8.2-1.3 7.8-1.6-0.5-0.2-0.2-1 0.5-1.8 0.6-0.8 3-1.5 5.2-1.7 3.7-0.4 4-0.6 4.3-3.7 0.2-2.7 0.6-3.2 2.7-3.2 1.4 0 2.7-0.4 3-1 0.3-0.6 1.2-1 2-1 0.9 0 1.6 1.1 1.8 2.5l0.2 2.5 6.5-4c-11.2-14-17.1-22.2-20.3-27.3-3.2-5-6.8-11.8-8-14.9l-2.2-5.7c-11.7-1-12.5-1.4-12.5-3.1 0-1.3-0.8-2.2-2.2-2.5-1.3-0.3-3.3-0.5-4.5-0.5-1.8 0-2.3-0.6-2.3-2.5 0-2.3-0.4-2.5-4.5-2.5h-4.5z"/>
		<path id="Path 9" class="s9" d="m499.5 187.6c-2.8 0.7-5.9 1.9-7 2.5-1.2 0.7-4.2 0.9-7.8 0.5-5.5-0.6-5.7-0.5-5.3 1.7 0.3 1.2 0.8 4 1.2 6.2 0.3 2.2 0.9 10.2 1.3 17.7 0.5 11.7 0.9 14 2.7 16.5 1.2 1.5 3.4 3.7 4.8 4.8 1.9 1.4 4.3 2 7.6 2 3.3 0 5.7-0.6 7.6-2 1.4-1.1 3.6-3.3 4.8-4.8 1.9-2.6 2.1-4 1.9-15-0.2-6.7-0.8-15.8-1.3-20.2-0.6-4.4-1.3-8.8-1.5-9.7-0.3-1-1.3-1.7-2.2-1.7-1 0.1-4 0.8-6.8 1.5z"/>
		<path id="Path 10" class="s10" d="m492.7 144.3c-1.5 1.5-3.8 2.7-5 2.7-1.2 0-3.9 0.6-5.9 1.5-2.1 0.8-5.8 1.5-8.3 1.5-2.5 0-4.7 0.3-5 0.7-0.2 0.5 1.1 5.1 2.9 10.3 1.8 5.2 4.4 13.9 5.7 19.2 2.3 9.3 2.5 9.7 5.4 10.3 1.6 0.3 4.5 0.5 6.3 0.5 1.7 0 3.4-0.3 3.6-0.8 0.2-0.4 3.8-1.6 8-2.7 4.2-1.1 7.6-2.5 7.6-3 0-0.6-1.1-5.5-2.4-11-1.4-5.5-3.8-14.3-5.5-19.5-1.7-5.2-3.4-10.1-3.9-10.9-0.6-1.1-1.3-0.9-3.5 1.2z"/>
		<path id="Path 11" class="s11" d="m187.5 324c3.8 3.9 7.2 7 7.5 7 0.3 0-2.5-3.1-6.2-7-3.7-3.8-7.1-7-7.5-7-0.4 0 2.4 3.1 6.2 7zm-65.5 63.3c7.4 7.5 13.6 13.7 13.8 13.7 0.1 0 0.2-0.1 0.2-0.2 0-0.2-6.2-6.4-13.7-13.8l-13.8-13.5z"/>
		<path id="Path 12" class="s12" d="m396 475.8l-21.5 21.7c33.7-33.3 43.5-43.1 43.5-43.3 0-0.1-0.1-0.2-0.3-0.2-0.1 0-9.9 9.8-21.7 21.7z"/>
		<path id="Path 13" class="s13" d="m36 114.8l-22.5 22.7c35.3-34.9 45.5-45.1 45.5-45.3 0-0.1-0.1-0.2-0.3-0.2-0.1 0-10.3 10.2-22.7 22.8zm122.2 132.4c-10.2 10.1-13.2 13.8-12.9 15.3l0.5 2c0.2-3.1 5.9-9.7 13.4-17.3 7.3-7.2 13-13.2 12.8-13.2-0.3 0-6.5 6-13.8 13.2z"/>
		<path id="Path 14" class="s14" d="m265.5 352.3l-14 14.2c22.1-21.7 28.5-28.1 28.5-28.3 0-0.1-0.1-0.2-0.3-0.2-0.1 0-6.5 6.4-14.2 14.2z"/>
		<path id="Path 15" class="s0" d="m282.5 61.1c-1.6 0.5-4.3 2.1-5.8 3.7-1.5 1.5-3.2 4.4-3.7 6.4-0.7 2.4-0.7 5.2 0 7.5 0.5 2.1 2.2 5 3.7 6.5 1.5 1.5 4.4 3.2 6.3 3.8 1.9 0.5 6.4 1 10 1 3.6 0 10.8 0.7 16 1.5 5.2 0.9 14.2 3.2 20 5.1 5.8 2 15 5.9 20.5 8.7 5.5 2.8 13.6 7.8 18 11.1 4.4 3.3 11.2 9.1 15.1 13 3.8 3.9 9.8 10.8 13.2 15.3 6.2 8.3 6.2 8.3 9.5 7.3 1.7-0.6 4.3-1.2 5.7-1.5 1.4-0.2 4.6-1.3 7.3-2.5 2.6-1.1 5.5-2 6.5-2 0.9 0 2.5-0.5 3.5-1.2 1.8-1.2 1.4-2-5.4-12.3-5.2-7.8-10.9-14.6-19.8-23.6-8.9-8.8-15.8-14.7-23.6-19.8-6.1-4.1-14.8-9.3-19.5-11.6-4.7-2.4-13-5.9-18.5-7.8-5.5-1.9-14.3-4.4-19.5-5.5-5.2-1.1-14.7-2.5-21-3.1-6.3-0.6-12.4-1.1-13.5-1-1.1 0-3.4 0.5-5 1zm0 60c-1.6 0.5-4.3 2.1-5.8 3.7-1.5 1.5-3.2 4.4-3.7 6.5-0.6 2.3-0.7 5.1-0.1 7.5 0.6 2.2 2.4 5 4.5 7 2.5 2.2 4.9 3.3 7.9 3.7 2.3 0.2 7.1 0.6 10.7 0.9 3.6 0.3 9.9 1.7 14 3.2 4.1 1.4 8.5 2.7 9.8 3 1.4 0.3 2.5-0.2 3.1-1.3 0.4-1 6.2-4.5 12.7-7.8 6.5-3.2 12.1-6.1 12.4-6.3 0.3-0.2-0.9-1.5-2.5-2.8-1.6-1.3-6.4-4.2-10.5-6.3-4.1-2.1-10.4-4.8-14-6-3.6-1.1-9.4-2.7-13-3.5-3.6-0.8-10.1-1.7-14.5-2-4.4-0.3-9.4-0.1-11 0.5z"/>
		<path id="Path 16" class="s8" d="m105 248.5c0 1.1 1.1 1.5 3.8 1.5l3.7-0.1c-5.4-2.3-7.1-2.9-7.3-2.9-0.1 0-0.2 0.7-0.2 1.5zm0 8.5c0 0.6 1.8 1 4 1 2.3 0 3.8-0.4 3.5-1-0.3-0.6-2.1-1-4-1-1.9 0-3.5 0.4-3.5 1z"/>
		<path id="Path 17" class="s9" d="m285.1 181.4c-0.1 1.1-1.1 1.6-3.5 1.6-2.1 0-4.1 0.8-5.4 2.2-1.2 1.3-2.6 4-3.2 6-0.6 2.4-0.7 5.2-0.1 7.5 0.6 2.3 2.4 5.1 4.5 7 2.6 2.4 4.9 3.5 8.3 3.9 2.7 0.3 5.7 0.8 6.8 1.2 1.1 0.3 3.1 1.6 4.5 2.7 1.4 1.2 3 3.5 3.7 5.1 0.6 1.6 1.4 5 1.7 7.6 0.4 3.5 1.5 5.8 3.8 8.4 1.8 1.9 4.9 4 6.8 4.6 1.9 0.5 5 0.7 6.7 0.4 1.8-0.3 4.9-2.1 6.9-3.9 2.2-2 3.9-4.7 4.6-7.2 0.7-2.8 0.6-6-0.2-10.5-0.6-3.6-2.5-9.4-4.3-13-1.7-3.6-5.4-8.8-8.2-11.6-2.7-2.8-7.9-6.5-11.5-8.3-3.6-1.7-8.5-3.4-11-3.6-2.5-0.3-5.9-0.8-7.6-1.1-2.4-0.5-3.2-0.3-3.3 1zm95.3 6.9c-2.2 0.5-9 1.1-15.2 1.3-6.5 0.2-11.2 0.8-11.2 1.4 0 0.6 2.5 1 5.7 1 3.1 0 5.4 0.2 5.1 0.5-0.3 0.3-2.6 0.6-5 0.7l-4.5 0.3c2.6 6.2 3.9 10.2 4.6 13 0.7 2.7 1.6 9.1 2 14.2 0.5 7.1 1.1 9.8 2.7 12 1.2 1.5 3.4 3.7 4.8 4.8 1.9 1.4 4.3 2 7.6 2 3.3 0 5.7-0.6 7.6-2 1.4-1.1 3.6-3.3 4.8-4.8 1.8-2.5 2.1-4.1 1.9-12-0.1-5.1-0.9-12.6-1.8-16.7-0.9-4.1-2.2-8.8-3-10.5-0.7-1.7-1.6-3.7-1.8-4.5-0.4-1.3-1.2-1.4-4.3-0.7zm61.6 0.9c-3 0.3-9.7 0.6-14.8 0.7l-9.2 0.1c0.9 4.3 1.8 9.3 2.6 14 0.8 4.7 1.4 11.8 1.4 15.7 0 4 0.5 8.5 1.1 10 0.5 1.6 2.2 4 3.7 5.6 1.5 1.5 4.3 3.2 6.2 3.8 1.9 0.6 5 0.8 6.7 0.5 1.8-0.3 4.9-2.1 6.9-3.9 2.2-1.9 3.9-4.8 4.6-7.2 0.7-2.8 0.7-7.7-0.2-16.5-0.6-6.9-1.7-15-2.3-18l-1.2-5.5z"/>
		<path id="Path 18" class="s10" d="m347.9 140.7c-0.2 0.5-5.8 3.5-12.3 6.8-6.5 3.3-12.3 6.8-12.7 7.8-0.5 0.9-1.3 1.5-1.9 1.2-0.5-0.3-1-0.2-1 0.3 0 0.4 2.8 2.3 6.2 4.2 3.3 1.9 8.8 6 12.2 9.1 3.3 3.1 8.1 8.9 10.6 12.8l4.5 7.1c17.8-0.7 24.7-1.1 26.8-1.4 2.4-0.4 3.7-1.1 3.7-2.1 0-0.8-1.4-4.3-3.1-7.7-1.8-3.5-5-9-7.2-12.3-2.2-3.3-7.2-9.3-11.1-13.4-3.9-4-8.7-8.6-10.7-10.2-2-1.6-3.8-2.6-4-2.2zm78.6 4.5c-1.6 0.6-5.2 1.9-8 2.9-2.7 1.1-5.9 2.1-7 2.3-1.1 0.2-3.6 0.8-5.5 1.4-1.9 0.6-3.9 0.8-4.3 0.4-0.5-0.4 1.5 3.8 4.4 9.3 2.9 5.5 6.7 14.1 8.5 19l3.2 9c8.3 0.5 14.9 0.4 20 0.1 8.3-0.5 9.2-0.8 9.2-2.6 0-1.1-1.4-6.4-3.1-11.7-1.7-5.4-5.4-14.7-8.2-20.6-2.9-5.9-5.4-10.7-5.7-10.6-0.3 0.1-1.8 0.6-3.5 1.1z"/>
	</g>
</svg>