<svg version="1.2" xmlns="http://www.w3.org/2000/svg" viewBox="0 0 154 91" width="194" height="115">
	<title>jnjbvjhnbdbjhbd-svg</title>
	<style>
		.s0 { fill: #faf7f2 } 
		.s1 { fill: #0174ba } 
		.s2 { fill: #c4e8fa } 
	</style>
	<path id="Layer" fill-rule="evenodd" class="s0" d="m146.8 47.3c-0.1 0-0.1 0-0.1 0q-0.2 0-0.3 0c-0.2 0-0.4 0-0.6 0.1-0.2 0-0.3 0.1-0.4 0.2v2.4h-0.5v-3.2h0.5v0.5c0.2-0.1 0.3-0.3 0.5-0.3 0.1-0.2 0.4-0.2 0.6-0.2 0.1 0 0.1 0 0.2 0 0 0 0 0 0.1 0zm-5.8 1.2c0 0.2 0 0.3 0.1 0.5 0.1 0.1 0.1 0.2 0.2 0.4 0.2 0 0.3 0.1 0.4 0.1 0.1 0 0.3 0.1 0.3 0.1 0.2 0 0.5 0 0.7-0.1 0.2-0.1 0.3-0.1 0.4-0.1v0.5c-0.2 0.1-0.3 0.1-0.5 0.3-0.2 0-0.5 0.1-0.6 0.1-0.4 0-1-0.1-1.3-0.5-0.3-0.3-0.5-0.7-0.4-1.2 0-0.5 0.1-0.9 0.4-1.3 0.3-0.3 0.8-0.5 1.2-0.4 0.3 0 0.7 0.1 0.9 0.4 0.2 0.4 0.4 0.6 0.3 1.1v0.1zm1.8-0.5c0-0.1-0.1-0.3-0.2-0.5-0.2-0.3-0.4-0.3-0.7-0.3-0.2 0-0.4 0.1-0.6 0.3q-0.4 0.3-0.4 0.5zm-3.7 1.9c-0.1 0-0.2 0-0.3 0.1q-0.1 0-0.2 0c-0.4 0-0.6-0.1-0.8-0.2-0.2-0.2-0.3-0.4-0.2-0.8v-1.7h-0.4v-0.4h0.4v-0.9h0.5v0.9h1.1v0.4h-1.1c0 0.3 0 1.8 0 1.9 0 0.2 0 0.2 0.1 0.3 0 0.1 0.1 0.1 0.3 0.2 0.1 0 0.2 0.1 0.2 0.1q0.2 0 0.3 0c0.1 0 0.2 0 0.2-0.1v0.2zm-3 0c-0.1 0-0.2 0-0.3 0.1q-0.2 0-0.3 0c-0.3 0-0.5-0.1-0.7-0.2-0.2-0.2-0.4-0.4-0.2-0.8v-1.7h-0.4v-0.4h0.4v-0.9h0.5v0.9h1.1v0.4h-1.1c0 0.3 0 1.8 0 1.9 0 0.2 0 0.2 0.1 0.3 0 0.1 0.1 0.1 0.2 0.2 0.1 0 0.2 0.1 0.3 0.1q0.1 0 0.3 0c0.1 0 0.2 0 0.2-0.1v0.2zm-3.3-1.4h-2.3c0 0.2 0 0.3 0.1 0.5 0 0.1 0.1 0.2 0.2 0.4 0.1 0 0.2 0.1 0.3 0.1 0.1 0 0.3 0.1 0.4 0.1 0.3 0 0.5 0 0.7-0.1 0.1-0.1 0.2-0.1 0.4-0.1v0.5c-0.3 0.1-0.4 0.1-0.5 0.3-0.2 0-0.4 0.1-0.7 0.1-0.4 0-0.9-0.1-1.2-0.5-0.3-0.3-0.6-0.7-0.4-1.2 0-0.5 0.1-0.9 0.4-1.3 0.3-0.3 0.7-0.5 1.1-0.4 0.5 0 0.8 0.1 0.9 0.4 0.2 0.4 0.5 0.6 0.4 1.1zm-0.5-0.5c0-0.1-0.1-0.3-0.2-0.6-0.2-0.2-0.5-0.2-0.7-0.2-0.2 0-0.5 0.1-0.7 0.2q-0.3 0.4-0.3 0.6zm-3.8 0.3c0 0.3 0 0.6-0.1 0.8-0.1 0.2-0.2 0.4-0.3 0.5-0.1 0.1-0.3 0.2-0.4 0.3-0.2 0.1-0.3 0.1-0.5 0.1-0.3 0-0.4 0-0.6-0.1-0.1 0-0.2-0.1-0.3-0.2v0.1h-0.6v-4.3h0.6v1.6c0.1-0.1 0.2-0.2 0.4-0.3 0.2-0.1 0.5-0.1 0.6-0.1 0.3 0 0.7 0.1 0.9 0.4q0.3 0.7 0.3 1.2zm-0.5 0c0-0.3 0-0.5-0.2-0.7q-0.1-0.4-0.6-0.4c-0.3 0-0.4 0-0.6 0.1-0.1 0.1-0.2 0.1-0.3 0.3v1.7c0.1 0.2 0.2 0.2 0.3 0.2 0.1 0 0.2 0 0.4 0 0.4 0 0.6-0.2 0.8-0.4 0.1-0.1 0.2-0.4 0.2-0.8zm-5.9 0.7c0 0.3-0.1 0.5-0.3 0.7q-0.4 0.3-0.9 0.3c-0.2 0-0.5 0-0.7-0.1-0.1 0-0.2-0.1-0.4-0.2v-0.6c0.2 0.1 0.3 0.2 0.4 0.4 0.2 0 0.5 0 0.7 0 0.2 0 0.4 0 0.5 0 0.2-0.2 0.3-0.3 0.3-0.4 0-0.1 0-0.2-0.1-0.3-0.2-0.1-0.4-0.1-0.5-0.2-0.1 0-0.2 0-0.3-0.1-0.1 0-0.2 0-0.4-0.2-0.2 0-0.3-0.2-0.5-0.3-0.1-0.1-0.2-0.2-0.2-0.4 0-0.2 0-0.3 0.1-0.5 0.1-0.1 0.1-0.2 0.2-0.3 0.1-0.1 0.2-0.2 0.3-0.2 0.3-0.2 0.4-0.2 0.6-0.2 0.2 0 0.4 0 0.7 0.2 0.2 0 0.2 0.1 0.4 0.2v0.5c-0.1-0.1-0.2-0.2-0.4-0.2-0.3-0.1-0.5-0.1-0.6-0.1-0.2 0-0.3 0-0.6 0.1-0.2 0.1-0.2 0.3-0.1 0.6 0 0 0 0.1 0.1 0.1 0.2 0.1 0.3 0.1 0.5 0.2 0.1 0 0.2 0 0.3 0 0.1 0 0.2 0 0.4 0.1q0.2 0 0.5 0.4c-0.1 0.2 0 0.3 0 0.5zm-4.1 0.6c0 0.4-0.1 0.9-0.5 1.2-0.3 0.3-0.6 0.4-1.1 0.4-0.2 0-0.3 0-0.5 0-0.3 0-0.4-0.1-0.5-0.1v-0.5c0.1 0 0.2 0.1 0.3 0.1 0.3 0 0.5 0.1 0.6 0.1 0.1 0 0.3 0 0.4-0.1 0.2 0 0.3-0.1 0.4-0.2 0-0.1 0-0.2 0-0.4 0-0.1 0-0.4 0-0.6 0 0.1-0.2 0.2-0.4 0.3-0.2 0.1-0.4 0.1-0.5 0.1-0.3 0-0.7-0.1-0.9-0.4-0.2-0.3-0.3-0.7-0.3-1.2 0-0.2 0-0.4 0.1-0.6 0.1-0.3 0.2-0.4 0.3-0.6 0.1-0.1 0.2-0.2 0.3-0.3 0.3-0.1 0.4-0.1 0.6-0.1 0.1 0 0.3 0 0.4 0.1 0.2 0 0.4 0.1 0.4 0.2v-0.1h0.5zm-0.5-0.5v-1.8c0-0.1-0.1-0.1-0.4-0.1q-0.1 0-0.3 0c-0.3 0-0.5 0.1-0.8 0.3-0.1 0.2-0.2 0.5-0.1 0.9 0 0.3 0 0.5 0.1 0.7 0.1 0.3 0.5 0.4 0.7 0.4 0.2 0 0.3 0 0.4-0.1 0.2-0.1 0.4-0.3 0.4-0.3zm-3.8 0.8h-0.6c0-0.1 0-2.1 0-2.2 0-0.1 0-0.2-0.1-0.2 0-0.2-0.1-0.2-0.2-0.3 0 0-0.1-0.1-0.2-0.1-0.3 0-0.4 0-0.5 0.1-0.2 0.1-0.3 0.3-0.4 0.3v2.4h-0.5v-3.1h0.5v0.3c0.1-0.1 0.3-0.2 0.5-0.3 0.2-0.1 0.4-0.1 0.6-0.1q0.4 0 0.8 0.3 0.3 0.3 0.3 0.9zm-4.5 0h-0.5v-3.1h0.5zm0-3.6h-0.6v-0.6h0.6zm-2.4 3.7h-0.5c0-0.1 0-2.1 0-2.2 0-0.1 0-0.2-0.1-0.4 0-0.1-0.1-0.1-0.2-0.2-0.1 0-0.2-0.1-0.4-0.1-0.2 0-0.3 0-0.4 0.1-0.2 0.1-0.3 0.2-0.4 0.4v2.4h-0.5v-4.5h0.5v1.6c0.1-0.1 0.3-0.1 0.5-0.2 0.2-0.1 0.3-0.1 0.6-0.1q0.4 0 0.8 0.2 0.3 0.3 0.3 1zm-4 0c-0.2 0-0.3 0-0.4 0.1q-0.1 0-0.3 0c-0.3 0-0.6-0.1-0.7-0.2-0.2-0.2-0.3-0.6-0.2-0.9v-1.6h-0.3v-0.4h0.3v-1h0.4v1h1.3v0.4h-1.3c0 0.1 0 1.7 0 1.8 0 0.1 0 0.2 0.2 0.4 0 0.1 0.1 0.1 0.2 0.2 0.1 0 0.2 0.1 0.3 0.1q0.2 0 0.3 0 0.2 0 0.2 0zm-5.3-1.5h-2.4c0 0.2 0 0.3 0.1 0.6 0 0 0.1 0.1 0.2 0.2 0.2 0.1 0.3 0.2 0.4 0.2 0.1 0 0.3 0.1 0.4 0.1 0.2 0 0.5 0 0.6-0.1 0.2-0.1 0.3-0.1 0.4-0.2v0.7c-0.2 0.1-0.3 0.1-0.5 0.2-0.1 0-0.4 0.1-0.6 0.1-0.4 0-1-0.1-1.2-0.4-0.4-0.4-0.6-0.8-0.5-1.3 0-0.4 0.1-1 0.5-1.2 0.2-0.4 0.7-0.6 1.1-0.5 0.4 0 0.7 0.1 0.9 0.5 0.2 0.2 0.4 0.6 0.3 1zm-0.5-0.4c0-0.3 0-0.5-0.1-0.6-0.3-0.2-0.5-0.2-0.7-0.2-0.2 0-0.6 0.1-0.8 0.2q-0.2 0.2-0.2 0.6zm-3.5 1.9h-0.8l-1.2-1.4-0.3 0.3v1.1h-0.5v-4.4h0.5v2.8l1.5-1.6h0.7l-1.5 1.5zm-4.8 0h-0.5v-0.4c0 0-0.1 0.2-0.2 0.2-0.1 0.1-0.1 0.1-0.2 0.1-0.1 0-0.2 0.1-0.3 0.1-0.1 0-0.3 0-0.4 0-0.4 0-0.6-0.1-0.8-0.4-0.1-0.2-0.3-0.3-0.3-0.6 0-0.3 0-0.5 0.2-0.7 0.1-0.1 0.2-0.3 0.3-0.3 0.2-0.2 0.4-0.2 0.8-0.3 0.3 0 0.5 0 0.8 0v-0.1c0-0.1 0-0.2-0.1-0.3 0-0.1-0.1-0.1-0.2-0.2-0.1 0-0.2-0.2-0.3-0.2q-0.2 0-0.3 0c-0.3 0-0.4 0-0.5 0.2-0.2 0-0.3 0.1-0.4 0.2v-0.6c0 0 0.1-0.1 0.3-0.1q0.3 0 0.7 0c0.2 0 0.4 0 0.6 0.1 0.1 0 0.3 0.1 0.4 0.2q0.2 0.2 0.3 0.4c0.1 0.2 0.1 0.3 0.1 0.4zm-0.5-0.6v-0.9c-0.2 0-0.3 0-0.6 0-0.2 0-0.3 0-0.5 0.1-0.2 0-0.4 0.1-0.5 0.2-0.2 0.2-0.2 0.6 0 0.9 0.1 0.1 0.3 0.1 0.6 0.1 0.2 0 0.3 0 0.5-0.1 0.3-0.1 0.4-0.2 0.5-0.3zm-3.7 0.6h-0.6c0 0 0-2 0-2.1 0-0.1 0-0.2-0.1-0.3 0-0.1-0.1-0.1-0.2-0.3-0.1 0-0.2-0.1-0.3-0.1-0.1 0-0.3 0-0.4 0.1-0.2 0.2-0.3 0.3-0.4 0.4q0 0.1 0 0.3v2h-0.6c0-0.1 0-2.1 0-2.2 0-0.1 0-0.2-0.1-0.3 0-0.2-0.1-0.2-0.2-0.3 0 0-0.1-0.1-0.3-0.1-0.1 0-0.3 0-0.4 0.1-0.1 0.1-0.3 0.3-0.4 0.4v2.4h-0.5v-3.1h0.5v0.2c0.1-0.1 0.3-0.2 0.5-0.2 0.2-0.1 0.3-0.1 0.6-0.1 0.1 0 0.3 0 0.4 0.1 0.1 0 0.4 0.1 0.4 0.3 0.2-0.2 0.4-0.3 0.6-0.3 0.2-0.1 0.4-0.1 0.5-0.1 0.3 0 0.6 0.1 0.8 0.2 0.2 0.2 0.3 0.6 0.2 0.9zm18.3-0.2v-0.1q0 0.1 0 0.1z"/>
	<path id="Layer" class="s1" d="m79.7 28.5h3.1v5.4l4.4-5.4h3.6l-5.5 7 6 8.9h-3.6l-4.9-7.1v7.1h-3.1z"/>
	<path id="Layer" class="s1" d="m114.3 30.8l-2.1 2c-1.3-1.4-3.1-2.3-4.9-2.3-2.9 0-5.5 2.3-5.5 5.3v0.1c0 0.9 0.3 2 0.8 2.8 0.4 0.8 1.1 1.4 1.9 2 0.9 0.4 1.9 0.7 2.9 0.7 0.8 0 1.7-0.3 2.4-0.5 0.9-0.4 1.7-1.1 2.4-1.8l2.1 2.1c-0.9 1.2-2.1 1.8-3.4 2.5-1.1 0.5-2.3 0.7-3.5 0.6-2.3 0.1-4.5-0.7-6.1-2.4-2.6-2.8-3.1-6.9-1.2-10.3 0.7-1.3 1.7-2.3 3.1-3 1.3-0.8 2.8-1.2 4.3-1.2 2.5 0.2 5 1.3 6.8 3.4z"/>
	<path id="Layer" fill-rule="evenodd" class="s1" d="m122.5 27.8h3.3c1.2-0.1 2.5 0.1 3.7 0.6 0.8 0.2 1.4 0.7 1.8 1.5 0.4 0.7 0.8 1.7 0.6 2.6 0 1-0.3 2-0.8 2.8-0.6 0.8-1.5 1.2-2.4 1.6-1 0.2-2.1 0.3-3.2 0.2v6.8h-3.1zm3.1 6.2h0.9c0.5 0 1.1 0 1.5-0.2 0.4-0.1 0.6-0.4 0.8-0.6 0.2-0.3 0.3-0.6 0.2-0.9 0-0.5-0.2-1-0.8-1.3-0.5-0.3-1.2-0.5-1.9-0.4h-0.9z"/>
	<path id="Layer" class="s1" d="m140.3 27.8h3.1v13.1h4.4v2.8h-7.5z"/>
	<path id="Layer" fill-rule="evenodd" class="s1" d="m61.8 82.1c1.5 4.3 3.1 6.8 4.7 7 0.5-1.6 1.8-2.9 3.1-4-2.6-0.8-5.1-1.8-7.8-3z"/>
	<path id="Layer" fill-rule="evenodd" class="s1" d="m60 76c0.4 1.2 0.7 2.4 1.1 3.5 3.8 1.4 7.3 2.8 10.6 3.8 1.6-1 2.9-1.5 2.4-1.5-2.6 0.7-4.6-0.4-6.5-2.8-2.4-0.9-5-1.9-7.6-3z"/>
	<path id="Layer" fill-rule="evenodd" class="s2" d="m60.6 46.1c26 13.9 43.8 31.5 39.6 39.2-4.2 7.7-28.7 2.8-54.6-11.2-26-13.9-43.8-31.4-39.7-39.2 3.6-6.5 21.9-4 43.5 5.7 0.1 0.3 0.2 0.5 0.3 0.9-13.9-5.4-34.6-11.7-38.7-4-3.7 6.9 12.2 22.7 35.5 35.1 23.3 12.5 45.3 17 48.9 10.1 2-3.8-1.8-10.3-9.6-17.4-4.3-5.6-13.3-12.7-24.6-18.7-1.4-0.8-4-2-7.3-3.4-0.1-0.3-0.2-0.5-0.3-0.7 2.3 1.2 4.6 2.3 7 3.6z"/>
	<path id="Layer" fill-rule="evenodd" class="s1" d="m86.5 57.6c-0.7 0-1.3-0.6-1.3-1.4 0-0.7 0.6-1.3 1.3-1.3 0.7 0 1.3 0.6 1.3 1.3 0 0.8-0.6 1.4-1.3 1.4z"/>
	<path id="Layer" fill-rule="evenodd" class="s1" d="m56.5 50c0.6 1.2 0.9 2.6 1.5 3.9 2 5.6 3.8 10.9 5.6 15.4-1.8-0.7-3.6-1.5-5.5-2.3-1.8-5.9-3.8-12.6-6.1-19.3 1.4 0.7 3 1.4 4.5 2.3zm-11.8-24.9c3.7 5.8 7.7 13.8 11.6 24.6-1.6-0.8-3-1.5-4.5-2.3-2.3-7.2-5.4-14.2-9.2-20.7 0.7-0.6 1.3-1.1 2.1-1.6z"/>
	<path id="Layer" fill-rule="evenodd" class="s1" d="m21.3 10.2c8 0.2 14.4 5.8 19.7 13.8 0.5-0.5 1.1-1.1 1.8-1.7-8.2-11.3-15.5-13.1-21.5-12.1z"/>
	<path id="Layer" fill-rule="evenodd" class="s1" d="m98.5 69.1c-0.9-5.2-5.1-8.9-10.9-11.4 0.3-0.4 0.5-0.9 0.7-1.4 8.3 4.1 10.2 8.7 10.2 12.8z"/>
	<path id="Layer" fill-rule="evenodd" class="s1" d="m72.3 21.2c-0.7 0-1.3-0.6-1.3-1.3 0-0.8 0.6-1.4 1.3-1.4 0.7 0 1.3 0.6 1.3 1.4 0 0.7-0.6 1.3-1.3 1.3z"/>
	<path id="Layer" fill-rule="evenodd" class="s1" d="m59 51.2c20.5 11.2 34.9 24.2 32.1 29.4-2.8 5.2-22.2 0.3-43.1-10.9-21-11.2-35.6-25.1-33-29.8 2.5-4.7 15-1.9 31 5-0.1 0.2-0.2 0.4-0.2 0.5-8.9-3.4-15.2-4.4-16.7-1.6-1.5 2.8 5.8 10.4 17.3 17.4-0.2 0.4-0.1 1.1 0.1 1.7 0.7-0.3 1.5-0.4 2.4-0.3 0.9 0.5 1.8 1.1 2.7 1.5 14.4 7.6 27.6 11 29.4 7.4 1.9-3.6-15.2-16.5-22.4-20.3q-0.6-0.3-1-0.5c0.5 0.2 0.9 0.4 0.9 0.4zm24.7 24.1c0.3 0.7 0.9 1.1 1.6 0.8 0.8-0.2 1-0.9 0.9-1.7-0.2-0.6-1-1-1.7-0.8-0.7 0.2-1.2 0.9-0.8 1.7zm-52.3-19.7c0.2 0.9 1.2 1.3 1.9 1 0.8-0.2 1.2-1.1 1.1-1.9-0.3-0.7-1.2-1.1-2-1-0.9 0.2-1.2 1.2-1 1.9zm-11.1-14.1c0.1 0.7 0.9 1.1 1.6 0.9 0.7-0.3 1.1-1.1 0.9-1.6-0.2-0.8-0.9-1.2-1.7-1-0.8 0.2-1 1-0.8 1.7zm41.4 29.5c-0.7 0.2-1.1 1-0.9 1.8 0.2 0.8 1 1.3 1.8 1 0.8-0.2 1.2-1.1 1-1.8-0.2-0.8-1-1.3-1.9-1z"/>
	<path id="Layer" fill-rule="evenodd" class="s1" d="m42.9 25.7c-0.7 0-1.3-0.6-1.3-1.3 0-0.8 0.6-1.3 1.3-1.3 0.8 0 1.3 0.5 1.3 1.3 0 0.7-0.5 1.3-1.3 1.3z"/>
	<path id="Layer" fill-rule="evenodd" class="s1" d="m62.1 73.5c-0.6 0-1.1-0.5-1.1-1.1 0-0.6 0.5-1.1 1.1-1.1 0.7 0 1.2 0.5 1.2 1.1 0 0.6-0.5 1.1-1.2 1.1z"/>
	<path id="Layer" fill-rule="evenodd" class="s1" d="m70.7 21.1c-7.1 17.6-26.3 37.2-23.7 40.9 3.1-1 7.8 1.8 7.3 1.2-4.5-3.3 1.6-11.9 8-22.1 4.2-6.1 7.5-12.6 10.2-19.4-0.6-0.2-1.2-0.4-1.8-0.6z"/>
	<path id="Layer" fill-rule="evenodd" class="s1" d="m70.7 1.2c3.5 4.6 3.3 10.6 1.3 16.9q0.8 0.3 1.5 0.6c2.8-9.6 0.6-14.5-2.8-17.5z"/>
	<path id="Layer" fill-rule="evenodd" class="s1" d="m84.2 56.4c-15.8-5.7-39.1-5.3-40-9.1 2.6-1.5 3.7-6.2 3.6-5.5-0.6 4.9 8.7 6.2 19.2 8.2 6.1 1 12.1 2.7 17.9 4.8-0.2 0.5-0.4 1-0.7 1.6z"/>
	<path id="Layer" fill-rule="evenodd" class="s1" d="m84.7 75.9c-0.5 0-1-0.5-1-1 0-0.6 0.5-1 1-1 0.6 0 1 0.4 1 1 0 0.5-0.4 1-1 1z"/>
	<path id="Layer" fill-rule="evenodd" class="s1" d="m32.8 56.4c-0.7 0-1.2-0.5-1.2-1.1 0-0.7 0.5-1.2 1.2-1.2 0.6 0 1.1 0.5 1.1 1.2 0 0.6-0.5 1.1-1.1 1.1z"/>
	<path id="Layer" fill-rule="evenodd" class="s1" d="m21.4 42.1c-0.5 0-1-0.5-1-1 0-0.6 0.5-1 1-1 0.6 0 1 0.4 1 1 0 0.5-0.4 1-1 1z"/>
	<path id="Layer" class="s1" d="m79.7 28.5h3.1v5.4l4.4-5.4h3.6l-5.5 7 6 8.9h-3.6l-4.9-7.1v7.1h-3.1z"/>
	<path id="Layer" class="s1" d="m114.3 30.8l-2.1 2c-1.3-1.4-3.1-2.3-4.9-2.3-2.9 0-5.5 2.3-5.5 5.3v0.1c0 0.9 0.3 2 0.8 2.8 0.4 0.8 1.1 1.4 1.9 2 0.9 0.4 1.9 0.7 2.9 0.7 0.8 0 1.7-0.3 2.4-0.5 0.9-0.4 1.7-1.1 2.4-1.8l2.1 2.1c-0.9 1.2-2.1 1.8-3.4 2.5-1.1 0.5-2.3 0.7-3.5 0.6-2.3 0.1-4.5-0.7-6.1-2.4-2.6-2.8-3.1-6.9-1.2-10.3 0.7-1.3 1.7-2.3 3.1-3 1.3-0.8 2.8-1.2 4.3-1.2 2.5 0.2 5 1.3 6.8 3.4z"/>
	<path id="Layer" fill-rule="evenodd" class="s1" d="m122.5 27.8h3.3c1.2-0.1 2.5 0.1 3.7 0.6 0.8 0.2 1.4 0.7 1.8 1.5 0.4 0.7 0.8 1.7 0.6 2.6 0 1-0.3 2-0.8 2.8-0.6 0.8-1.5 1.2-2.4 1.6-1 0.2-2.1 0.3-3.2 0.2v6.8h-3.1zm3.1 6.2h0.9c0.5 0 1.1 0 1.5-0.2 0.4-0.1 0.6-0.4 0.8-0.6 0.2-0.3 0.3-0.6 0.2-0.9 0-0.5-0.2-1-0.8-1.3-0.5-0.3-1.2-0.5-1.9-0.4h-0.9z"/>
	<path id="Layer" class="s1" d="m140.3 27.8h3.1v13.1h4.4v2.8h-7.5z"/>
	<path id="Layer" fill-rule="evenodd" class="s0" d="m145.7 26.3v-2.5h1.1c0.3 0 0.5 0 0.7 0.1 0.1 0 0.2 0 0.3 0.1 0.1 0.1 0.1 0.3 0.1 0.4 0 0.3-0.1 0.4-0.2 0.6-0.1 0.1-0.3 0.2-0.5 0.2 0.1 0.1 0.2 0.1 0.3 0.2 0.1 0.1 0.2 0.3 0.3 0.4l0.4 0.5h-0.7l-0.4-0.5c-0.2-0.1-0.3-0.3-0.4-0.4 0 0 0-0.1-0.1-0.1q-0.2 0-0.3 0h-0.1v1zm0.5-1.4c0.1 0 0.7 0 0.9 0 0.1 0 0.1-0.1 0.1-0.1 0-0.1 0.1-0.1 0.1-0.2 0-0.2 0-0.2-0.1-0.3 0-0.1-0.1-0.1-0.2-0.1 0 0-0.2 0-0.4 0h-0.4z"/>
	<path id="Layer" fill-rule="evenodd" class="s0" d="m146.7 22.5c1.6 0 2.7 1.3 2.7 2.7 0 1.5-1.1 2.6-2.7 2.6-1.4 0-2.6-1.1-2.6-2.6 0-0.8 0.4-1.3 0.8-1.8 0.5-0.6 1.1-0.9 1.8-0.9zm1.5 1.3c-0.9-0.9-2.2-0.9-2.9 0-0.8 0.7-0.8 2 0 2.8 0.9 0.6 2.1 0.8 2.9 0 0.8-0.9 0.8-2.2 0-2.8z"/>
</svg>