<svg version="1.2" xmlns="http://www.w3.org/2000/svg" viewBox="0 0 154 89" width="200" height="116">
	<title>New Project</title>
	<style>
		.s0 { fill: #faf7f2 } 
		.s1 { fill: #0174ba } 
		.s2 { fill: #c4e8fa } 
	</style>
	<path id="Layer" fill-rule="evenodd" class="s0" d="m151.3 46.4c-0.1 0-0.2 0-0.2 0q-0.2 0-0.3 0c-0.2 0-0.4 0-0.6 0.1-0.2 0.1-0.3 0.2-0.4 0.3v2.5h-0.6v-3.4h0.6v0.5c0.2-0.1 0.3-0.3 0.5-0.3 0.1-0.2 0.4-0.2 0.6-0.2 0.1 0 0.1 0 0.2 0 0 0 0.1 0 0.2 0zm-6.2 1.3c0 0.2 0 0.3 0.1 0.5 0.1 0.1 0.1 0.2 0.2 0.4 0.2 0.1 0.3 0.2 0.4 0.2 0.1 0 0.3 0.1 0.4 0.1 0.2 0 0.5 0 0.7-0.1 0.2-0.1 0.3-0.1 0.4-0.2v0.6c-0.2 0.1-0.3 0.1-0.5 0.3-0.2 0-0.5 0.1-0.7 0.1-0.4 0-1-0.1-1.3-0.5-0.4-0.3-0.6-0.8-0.5-1.3 0-0.5 0.1-1 0.5-1.4 0.3-0.3 0.8-0.5 1.2-0.4 0.4 0 0.8 0.1 1 0.4 0.2 0.4 0.4 0.7 0.3 1.2v0.1zm1.9-0.5c0-0.2-0.1-0.4-0.2-0.6-0.2-0.3-0.4-0.3-0.7-0.3-0.2 0-0.5 0.1-0.7 0.3q-0.4 0.3-0.4 0.6zm-3.9 2c-0.1 0-0.2 0-0.3 0.1q-0.2 0-0.3 0c-0.4 0-0.6-0.1-0.8-0.2-0.2-0.2-0.3-0.5-0.2-0.9v-1.8h-0.4v-0.4h0.4v-1h0.5v1h1.2v0.4h-1.2c0 0.3 0 1.9 0 2 0 0.2 0 0.3 0.1 0.4 0 0.1 0.1 0.1 0.3 0.2 0.1 0 0.2 0.1 0.3 0.1q0.2 0 0.3 0c0.1 0 0.2 0 0.2-0.1v0.2zm-3.2 0c-0.1 0-0.2 0-0.3 0.1q-0.2 0-0.3 0c-0.4 0-0.6-0.1-0.8-0.2-0.2-0.2-0.4-0.5-0.2-0.9v-1.8h-0.4v-0.4h0.4v-1h0.5v1h1.2v0.4h-1.2c0 0.3 0 1.9 0 2 0 0.2 0 0.3 0.1 0.4 0 0.1 0.1 0.1 0.2 0.2 0.2 0 0.3 0.1 0.4 0.1q0.1 0 0.3 0c0.1 0 0.2 0 0.2-0.1v0.2zm-3.5-1.5h-2.5c0 0.2 0 0.3 0.1 0.5 0 0.1 0.2 0.2 0.3 0.4 0.1 0.1 0.2 0.2 0.3 0.2 0.1 0 0.3 0.1 0.4 0.1 0.3 0 0.5 0 0.7-0.1 0.2-0.1 0.3-0.1 0.5-0.2v0.6c-0.3 0.1-0.4 0.1-0.6 0.3-0.2 0-0.4 0.1-0.7 0.1-0.4 0-1-0.1-1.3-0.5-0.3-0.3-0.6-0.8-0.4-1.3 0-0.5 0.1-1 0.4-1.4 0.3-0.3 0.8-0.5 1.2-0.4 0.5 0 0.8 0.1 1 0.4 0.2 0.4 0.5 0.7 0.4 1.2zm-0.6-0.5c0-0.2-0.1-0.4-0.2-0.7-0.2-0.2-0.5-0.2-0.7-0.2-0.2 0-0.5 0.1-0.8 0.2q-0.3 0.4-0.3 0.7zm-4 0.3c0 0.3 0 0.6-0.1 0.8-0.1 0.2-0.2 0.5-0.3 0.6-0.2 0.1-0.4 0.2-0.5 0.3-0.2 0.1-0.3 0.1-0.5 0.1-0.3 0-0.4 0-0.6-0.1-0.1 0-0.3-0.1-0.4-0.2v0.1h-0.6v-4.6h0.6v1.7c0.1-0.1 0.3-0.2 0.5-0.3 0.2-0.1 0.5-0.1 0.6-0.1 0.3 0 0.7 0.1 1 0.4q0.3 0.7 0.3 1.3zm-0.6 0c0-0.3 0-0.6-0.2-0.8q-0.1-0.4-0.6-0.4c-0.3 0-0.4 0-0.6 0.1-0.2 0.1-0.3 0.1-0.4 0.3v1.8c0.1 0.2 0.2 0.2 0.4 0.2 0.1 0 0.2 0 0.4 0 0.4 0 0.6-0.2 0.8-0.4 0.1-0.1 0.2-0.4 0.2-0.8zm-6.2 0.7c0 0.3-0.1 0.6-0.3 0.8q-0.5 0.3-1 0.3c-0.2 0-0.5 0-0.7-0.1-0.2 0-0.3-0.1-0.5-0.2v-0.7c0.2 0.1 0.3 0.2 0.5 0.4 0.2 0.1 0.5 0.1 0.7 0.1 0.2 0 0.4 0 0.5-0.1 0.2-0.2 0.3-0.3 0.3-0.4 0-0.1 0-0.2-0.1-0.3-0.2-0.1-0.4-0.1-0.5-0.2-0.1 0-0.2 0-0.3-0.1-0.1 0-0.2 0-0.4-0.2-0.2 0-0.4-0.2-0.6-0.3-0.1-0.1-0.2-0.3-0.2-0.5 0-0.2 0-0.3 0.1-0.5 0.1-0.1 0.1-0.2 0.2-0.3 0.1-0.1 0.2-0.2 0.4-0.2 0.3-0.2 0.4-0.2 0.6-0.2 0.2 0 0.4 0 0.7 0.2 0.2 0 0.3 0.1 0.5 0.2v0.5c-0.1-0.1-0.3-0.2-0.5-0.2-0.3-0.1-0.5-0.1-0.6-0.1-0.2 0-0.3 0-0.6 0.1-0.2 0.1-0.2 0.3-0.1 0.6 0 0 0 0.1 0.1 0.1 0.2 0.1 0.3 0.1 0.5 0.2 0.1 0 0.2 0 0.3 0.1 0.1 0 0.2 0 0.4 0.1q0.3 0 0.6 0.4c-0.1 0.2 0 0.3 0 0.5zm-4.4 0.7c0 0.4-0.1 0.9-0.5 1.2-0.3 0.3-0.7 0.5-1.2 0.5-0.2 0-0.3 0-0.5 0-0.3 0-0.4-0.2-0.6-0.2v-0.5c0.1 0 0.3 0.1 0.4 0.1 0.3 0 0.5 0.1 0.6 0.1 0.1 0 0.3 0 0.4-0.1 0.2 0 0.3-0.1 0.4-0.2 0.1-0.1 0.1-0.2 0.1-0.4q0-0.1 0-0.3v-0.3c-0.1 0.1-0.3 0.2-0.5 0.3-0.2 0.1-0.4 0.1-0.5 0.1-0.3 0-0.8-0.1-1-0.4-0.2-0.4-0.3-0.8-0.3-1.3 0-0.2 0-0.5 0.1-0.7 0.1-0.3 0.2-0.4 0.3-0.6 0.1-0.1 0.3-0.2 0.4-0.3 0.3-0.1 0.4-0.1 0.6-0.1 0.1 0 0.3 0 0.4 0.1 0.2 0 0.4 0.1 0.5 0.2v-0.1h0.5zm-0.5-0.6v-1.9c-0.1-0.1-0.2-0.1-0.5-0.1q-0.1 0-0.3 0c-0.3 0-0.5 0.1-0.8 0.4-0.2 0.2-0.3 0.5-0.2 0.9 0 0.3 0 0.5 0.2 0.8 0.1 0.3 0.5 0.4 0.7 0.4 0.2 0 0.3 0 0.4-0.1 0.2-0.1 0.4-0.3 0.5-0.4zm-4.1 0.9h-0.6c0-0.1 0-2.2 0-2.3 0-0.1 0-0.2-0.1-0.3 0-0.2-0.1-0.2-0.2-0.3-0.1 0-0.2-0.1-0.3-0.1-0.3 0-0.4 0-0.5 0.1-0.2 0.1-0.3 0.3-0.4 0.4v2.5h-0.6v-3.3h0.6v0.3c0.1-0.1 0.3-0.2 0.5-0.3 0.2-0.1 0.4-0.1 0.6-0.1 0.3 0 0.6 0.1 0.9 0.3q0.3 0.3 0.3 1zm-4.8 0h-0.5v-3.3h0.5zm0-3.9h-0.6v-0.6h0.6zm-2.5 3.9h-0.6c0-0.1 0-2.2 0-2.3 0-0.1 0-0.2-0.1-0.4 0-0.1-0.1-0.1-0.2-0.2-0.1 0-0.2-0.1-0.4-0.1-0.2 0-0.3 0-0.4 0.1-0.2 0.1-0.3 0.2-0.4 0.4v2.5h-0.6v-4.7h0.6v1.7c0.1-0.1 0.3-0.2 0.5-0.3 0.2-0.1 0.3-0.1 0.6-0.1 0.3 0 0.6 0.1 0.9 0.3q0.3 0.3 0.3 1zm-4.3 0c-0.2 0-0.3 0-0.4 0.1q-0.1 0-0.3 0c-0.3 0-0.6-0.1-0.8-0.2-0.2-0.2-0.3-0.6-0.2-0.9v-1.8h-0.3v-0.4h0.3v-1h0.5v1h1.3v0.4h-1.3c0 0.2 0 1.9 0 2 0 0.1 0 0.2 0.2 0.4 0 0.1 0.1 0.1 0.2 0.2 0.1 0 0.2 0.1 0.3 0.1q0.2 0 0.3 0 0.2 0 0.2 0zm0.1-0.2v-0.1q0 0.1 0 0.1zm-5.7-1.4h-2.5c0 0.2 0 0.3 0.1 0.6 0 0.1 0.1 0.2 0.2 0.3 0.2 0.1 0.3 0.2 0.4 0.2 0.1 0 0.3 0.1 0.4 0.1 0.2 0 0.5 0 0.7-0.1 0.2-0.1 0.3-0.1 0.4-0.2v0.7c-0.2 0.1-0.3 0.1-0.5 0.2-0.2 0-0.5 0.1-0.7 0.1-0.4 0-1-0.1-1.3-0.4-0.4-0.4-0.6-0.8-0.5-1.4 0-0.4 0.1-1 0.5-1.3 0.3-0.4 0.8-0.6 1.2-0.5 0.4 0 0.8 0.1 1 0.5 0.2 0.3 0.4 0.7 0.3 1.1zm-0.5-0.4c0-0.3-0.1-0.5-0.2-0.7-0.3-0.2-0.5-0.2-0.7-0.2-0.2 0-0.6 0.1-0.8 0.2q-0.3 0.3-0.3 0.7zm-3.7 2h-0.8l-1.3-1.5-0.3 0.3v1.2h-0.6v-4.7h0.6v3l1.6-1.7h0.7l-1.6 1.6zm-5.1 0h-0.5v-0.4c0 0-0.1 0.2-0.2 0.2-0.2 0.1-0.2 0.1-0.3 0.1-0.1 0-0.2 0.1-0.3 0.1-0.1 0-0.3 0-0.4 0-0.4 0-0.6-0.1-0.8-0.4-0.2-0.2-0.4-0.4-0.4-0.7 0-0.3 0-0.5 0.2-0.7 0.1-0.1 0.3-0.3 0.4-0.3 0.2-0.2 0.4-0.2 0.8-0.3 0.3 0 0.5-0.1 0.9-0.1v-0.1c0-0.1 0-0.2-0.1-0.3 0-0.1-0.2-0.1-0.3-0.2-0.1 0-0.2-0.2-0.3-0.2q-0.2 0-0.3 0c-0.3 0-0.4 0-0.5 0.2-0.2 0-0.3 0.1-0.5 0.2v-0.6c0.1 0 0.2-0.1 0.4-0.1q0.3 0 0.7 0c0.2 0 0.4 0 0.6 0.1 0.2 0 0.4 0.1 0.5 0.2q0.2 0.2 0.3 0.4c0.1 0.2 0.1 0.3 0.1 0.5zm-0.5-0.7v-0.9c-0.2 0-0.4 0-0.7 0-0.2 0-0.3 0-0.5 0.1-0.2 0-0.4 0.1-0.5 0.2-0.2 0.2-0.2 0.6 0 0.9 0.1 0.1 0.3 0.1 0.6 0.1 0.2 0 0.3 0 0.5-0.1 0.4-0.1 0.5-0.2 0.6-0.3zm-4 0.7h-0.6c0-0.1 0-2.2 0-2.3 0-0.1 0-0.2-0.1-0.3 0-0.1-0.1-0.1-0.2-0.3-0.1 0-0.2-0.1-0.3-0.1-0.2 0-0.4 0-0.5 0.1-0.2 0.2-0.3 0.3-0.4 0.4q0 0.1 0 0.3v2.1h-0.6c0-0.1 0-2.2 0-2.3 0-0.1 0-0.2-0.1-0.3 0-0.2-0.1-0.2-0.2-0.3-0.1 0-0.2-0.1-0.4-0.1-0.1 0-0.3 0-0.4 0.1-0.1 0.1-0.3 0.3-0.4 0.4v2.5h-0.6v-3.3h0.6v0.3c0.1-0.1 0.3-0.2 0.5-0.3 0.2-0.1 0.3-0.1 0.6-0.1 0.2 0 0.4 0 0.5 0.1 0.1 0.1 0.4 0.2 0.4 0.4 0.2-0.2 0.4-0.3 0.6-0.4 0.2-0.1 0.5-0.1 0.6-0.1 0.3 0 0.6 0.1 0.8 0.3 0.2 0.2 0.3 0.6 0.2 0.9z"/>
	<path id="Layer" class="s1" d="m79.9 26.4h3.3v5.8l4.6-5.8h3.9l-5.9 7.5 6.4 9.5h-3.8l-5.2-7.6v7.6h-3.3z"/>
	<path id="Layer" class="s1" d="m116.7 28.9l-2.3 2.1c-1.3-1.5-3.2-2.4-5.2-2.4-3.1 0-5.8 2.4-5.8 5.6v0.1c0 1 0.3 2.1 0.8 3 0.5 0.9 1.2 1.5 2.1 2.1 0.9 0.5 2 0.8 3 0.8 0.9 0 1.8-0.3 2.6-0.6 1-0.4 1.8-1.1 2.5-1.9l2.3 2.3c-1 1.2-2.3 1.9-3.6 2.6-1.2 0.5-2.5 0.8-3.8 0.7-2.4 0.1-4.7-0.8-6.4-2.6-2.8-3-3.3-7.3-1.3-11 0.7-1.3 1.8-2.4 3.3-3.2 1.4-0.8 3-1.2 4.5-1.2 2.7 0.2 5.4 1.4 7.3 3.6z"/>
	<path id="Layer" fill-rule="evenodd" class="s1" d="m125.4 25.7h3.5c1.3-0.1 2.7 0.1 4 0.6 0.8 0.3 1.4 0.8 1.9 1.6 0.4 0.8 0.8 1.8 0.6 2.8 0 1.1-0.3 2.1-0.8 3-0.7 0.8-1.6 1.3-2.6 1.7-1.1 0.2-2.2 0.3-3.4 0.2v7.2h-3.3zm3.3 6.6h1c0.5 0 1.1 0 1.6-0.2 0.4-0.1 0.6-0.4 0.8-0.6 0.2-0.3 0.3-0.7 0.2-1 0-0.5-0.2-1.1-0.8-1.4-0.6-0.3-1.3-0.5-2.1-0.4h-0.9z"/>
	<path id="Layer" class="s1" d="m144.3 25.7h3.3v13.9h4.7v3h-8z"/>
	<path id="Layer" fill-rule="evenodd" class="s1" d="m60.8 83.5c1.6 4.5 3.3 7.2 5 7.4 0.6-1.7 1.9-3.1 3.3-4.2-2.7-0.9-5.4-2-8.3-3.2z"/>
	<path id="Layer" fill-rule="evenodd" class="s1" d="m58.9 77c0.4 1.3 0.8 2.5 1.2 3.7 4 1.5 7.8 3 11.3 4 1.7-1 3-1.6 2.5-1.5-2.7 0.7-4.9-0.5-6.9-3-2.6-1-5.3-2-8.1-3.2z"/>
	<path id="Layer" fill-rule="evenodd" class="s2" d="m59.6 45.2c27.6 14.8 46.5 33.5 42.1 41.7-4.5 8.2-30.5 2.9-58.1-11.9-27.7-14.8-46.6-33.5-42.2-41.7 3.8-7 23.3-4.3 46.2 6 0.1 0.3 0.2 0.6 0.4 1-14.8-5.8-36.9-12.5-41.2-4.3-4 7.4 13 24.2 37.8 37.4 24.7 13.3 48.1 18 52 10.7 2.1-4-1.9-10.9-10.2-18.5-4.6-6-14.2-13.5-26.2-19.9-1.5-0.8-4.3-2.1-7.8-3.6-0.1-0.3-0.2-0.6-0.3-0.8 2.5 1.3 4.9 2.5 7.5 3.9z"/>
	<path id="Layer" fill-rule="evenodd" class="s1" d="m86.7 54.6c-0.8 0.2-1.1 1-0.9 1.8 0.2 0.8 1 1.1 1.8 0.9 0.6-0.2 1.1-1 0.8-1.7-0.2-0.8-1-1.2-1.7-1z"/>
	<path id="Layer" fill-rule="evenodd" class="s1" d="m55.2 49.3c0.6 1.3 1 2.8 1.6 4.2 2.1 5.9 4 11.6 5.9 16.4-1.9-0.8-3.8-1.6-5.8-2.5-1.9-6.3-4-13.4-6.5-20.5 1.5 0.7 3.2 1.5 4.8 2.4zm-12.6-26.5c4 6.2 8.2 14.7 12.4 26.2-1.7-0.8-3.2-1.6-4.8-2.4-2.5-7.7-5.8-15.1-9.8-22.1 0.7-0.6 1.4-1.1 2.2-1.7z"/>
	<path id="Layer" fill-rule="evenodd" class="s1" d="m17.7 7c8.6 0.2 15.4 6.1 21 14.7 0.5-0.6 1.2-1.2 1.9-1.8-8.7-12.1-16.5-14-22.9-12.9z"/>
	<path id="Layer" fill-rule="evenodd" class="s1" d="m99.9 69.6c-1-5.5-5.5-9.4-11.6-12.1 0.3-0.4 0.5-1 0.7-1.5 8.9 4.4 10.9 9.3 10.9 13.6z"/>
	<path id="Layer" fill-rule="evenodd" class="s1" d="m71.6 15.9c-0.8 0.2-1.2 1-0.9 1.8 0.2 0.8 1 1.1 1.7 0.9 0.7-0.2 1.2-1 0.9-1.7-0.2-0.8-1-1.2-1.7-1z"/>
	<path id="Layer" fill-rule="evenodd" class="s1" d="m57.8 50.6c21.9 11.9 37.2 25.7 34.2 31.3-3 5.5-23.6 0.3-45.9-11.6-22.3-11.9-37.8-26.7-35.1-31.7 2.7-5 16-2.1 33 5.3-0.1 0.2-0.2 0.4-0.2 0.5-9.5-3.6-16.2-4.7-17.8-1.7-1.6 3 6.2 11.1 18.4 18.5-0.2 0.5-0.1 1.2 0.2 1.8 0.7-0.3 1.6-0.4 2.5-0.3 1 0.6 1.9 1.2 2.9 1.6 15.3 8.1 29.3 11.7 31.3 7.9 2-3.8-16.2-17.6-23.9-21.6q-0.6-0.3-1-0.5c0.5 0.2 0.9 0.4 0.9 0.4zm26.3 25.6c0.3 0.8 1 1.2 1.7 0.9 0.8-0.2 1.1-1 1-1.8-0.3-0.7-1.1-1.1-1.9-0.9-0.7 0.2-1.2 1-0.8 1.8zm-55.6-20.9c0.2 0.9 1.2 1.3 2 1 0.8-0.2 1.3-1.1 1.1-2-0.3-0.7-1.2-1.2-2.1-1-0.9 0.2-1.3 1.2-1 2zm-11.9-15c0.2 0.7 1 1.1 1.8 0.9 0.7-0.3 1.1-1.1 0.9-1.7-0.2-0.8-1-1.2-1.8-1-0.8 0.2-1.1 1-0.9 1.8zm44.1 31.3c-0.8 0.3-1.2 1.1-1 2 0.2 0.8 1.1 1.3 2 1 0.8-0.2 1.2-1.1 1-1.9-0.2-0.8-1.1-1.4-2-1.1z"/>
	<path id="Layer" fill-rule="evenodd" class="s1" d="m40.3 20.7c-0.7 0.2-1.1 1-0.9 1.8 0.3 0.8 1 1.1 1.8 0.9 0.7-0.3 1.1-1 0.9-1.7-0.2-0.8-1-1.2-1.8-1z"/>
	<path id="Layer" fill-rule="evenodd" class="s1" d="m60.8 72c-0.7 0.2-1 0.9-0.8 1.5 0.2 0.7 0.9 1 1.6 0.8 0.6-0.2 1-0.9 0.7-1.4-0.1-0.8-0.9-1.1-1.5-0.9z"/>
	<path id="Layer" fill-rule="evenodd" class="s1" d="m70.3 18.6c-7.6 18.7-28 39.5-25.2 43.5 3.3-1.1 8.3 1.9 7.7 1.3-4.7-3.5 1.8-12.7 8.6-23.6 4.4-6.4 7.9-13.3 10.8-20.6-0.6-0.2-1.3-0.4-1.9-0.6z"/>
	<path id="Layer" fill-rule="evenodd" class="s1" d="m70.3-2.6c3.7 4.9 3.5 11.3 1.4 18q0.8 0.3 1.6 0.6c3-10.2 0.6-15.4-3-18.6z"/>
	<path id="Layer" fill-rule="evenodd" class="s1" d="m84.7 56.1c-16.8-6-41.6-5.6-42.6-9.7 2.8-1.5 3.9-6.6 3.8-5.8-0.6 5.2 9.3 6.6 20.5 8.7 6.5 1.1 12.8 2.9 19 5.1-0.2 0.6-0.4 1.1-0.7 1.7z"/>
	<path id="Layer" fill-rule="evenodd" class="s1" d="m84.9 74.8c-0.6 0.2-0.9 0.7-0.7 1.3 0.2 0.6 0.8 0.9 1.4 0.7 0.5-0.3 0.8-0.8 0.6-1.4-0.1-0.5-0.6-0.9-1.3-0.6z"/>
	<path id="Layer" fill-rule="evenodd" class="s1" d="m29.6 53.7c-0.7 0.3-1 0.9-0.8 1.6 0.2 0.7 0.9 1 1.5 0.8 0.7-0.3 1-0.9 0.8-1.5-0.2-0.6-0.9-1.1-1.5-0.9z"/>
	<path id="Layer" fill-rule="evenodd" class="s1" d="m17.6 38.8c-0.6 0.2-0.9 0.8-0.7 1.4 0.2 0.5 0.8 0.9 1.3 0.6 0.6-0.2 0.9-0.7 0.7-1.3-0.1-0.5-0.8-0.8-1.3-0.7z"/>
	<path id="Layer" class="s1" d="m79.9 26.4h3.3v5.8l4.6-5.8h3.9l-5.9 7.5 6.4 9.5h-3.8l-5.2-7.6v7.6h-3.3z"/>
	<path id="Layer" class="s1" d="m116.7 28.9l-2.3 2.1c-1.3-1.5-3.2-2.4-5.2-2.4-3.1 0-5.8 2.4-5.8 5.6v0.1c0 1 0.3 2.1 0.8 3 0.5 0.9 1.2 1.5 2.1 2.1 0.9 0.5 2 0.8 3 0.8 0.9 0 1.8-0.3 2.6-0.6 1-0.4 1.8-1.1 2.5-1.9l2.3 2.3c-1 1.2-2.3 1.9-3.6 2.6-1.2 0.5-2.5 0.8-3.8 0.7-2.4 0.1-4.7-0.8-6.4-2.6-2.8-3-3.3-7.3-1.3-11 0.7-1.3 1.8-2.4 3.3-3.2 1.4-0.8 3-1.2 4.5-1.2 2.7 0.2 5.4 1.4 7.3 3.6z"/>
	<path id="Layer" fill-rule="evenodd" class="s1" d="m125.4 25.7h3.5c1.3-0.1 2.7 0.1 4 0.6 0.8 0.3 1.4 0.8 1.9 1.6 0.4 0.8 0.8 1.8 0.6 2.8 0 1.1-0.3 2.1-0.8 3-0.7 0.8-1.6 1.3-2.6 1.7-1.1 0.2-2.2 0.3-3.4 0.2v7.2h-3.3zm3.3 6.6h1c0.5 0 1.1 0 1.6-0.2 0.4-0.1 0.6-0.4 0.8-0.6 0.2-0.3 0.3-0.7 0.2-1 0-0.5-0.2-1.1-0.8-1.4-0.6-0.3-1.3-0.5-2.1-0.4h-0.9z"/>
	<path id="Layer" class="s1" d="m144.3 25.7h3.3v13.9h4.7v3h-8z"/>
	<path id="Layer" fill-rule="evenodd" class="s0" d="m150.1 24.1v-2.7h1.2c0.3 0 0.5 0 0.7 0.1 0.1 0 0.2 0.1 0.3 0.2 0.1 0.1 0.1 0.3 0.1 0.4 0 0.3-0.1 0.4-0.2 0.6-0.1 0.1-0.3 0.2-0.5 0.2 0.1 0.1 0.2 0.1 0.3 0.2 0.1 0.2 0.2 0.4 0.3 0.5l0.4 0.5h-0.7l-0.4-0.5c-0.2-0.1-0.3-0.3-0.4-0.5 0 0-0.1-0.1-0.2-0.1q-0.2 0-0.3 0h-0.1v1.1zm0.5-1.5c0.2 0 0.8 0 1 0 0.1 0 0.1-0.1 0.1-0.1 0-0.1 0.1-0.1 0.1-0.2 0-0.2 0-0.2-0.1-0.3 0-0.1-0.1-0.1-0.2-0.1 0 0-0.2 0-0.4 0h-0.5z"/>
	<path id="Layer" fill-rule="evenodd" class="s0" d="m151.2 20.1c1.6 0 2.8 1.3 2.8 2.8 0 1.6-1.2 2.8-2.8 2.8-1.5 0-2.8-1.2-2.8-2.8 0-0.8 0.4-1.4 0.8-1.9 0.6-0.6 1.2-0.9 2-0.9zm1.5 1.3c-0.9-0.9-2.3-0.9-3 0-0.9 0.8-0.9 2.2 0 3 0.9 0.7 2.2 0.9 3 0 0.9-0.9 0.9-2.3 0-3z"/>
</svg>