<svg version="1.2" xmlns="http://www.w3.org/2000/svg" viewBox="0 0 194 112" width="194" height="112">
	<title>updated-svg</title>
	<style>
		.s0 { fill: #ffffff;stroke: #ffffff;stroke-miterlimit:10;stroke-width: .4 } 
		.s1 { fill: #faf7f2 } 
		.s2 { fill: #0174ba } 
		.s3 { fill: #c4e8fa } 
	</style>
	<path id="Layer" class="s0" d="m121.2 101.4c-4.7 9.5-33.2 4.4-63.5-11.2-30.3-15.6-50.9-35.7-46.1-45.1 4.8-9.3 33.2-4.4 63.5 11.3 30.3 15.5 50.9 35.6 46.1 45z"/>
	<path id="Layer" fill-rule="evenodd" class="s1" d="m181.2 58.2q0 0-0.2 0 0 0-0.1 0-0.1 0-0.1 0-0.1 0-0.1 0 0 0-0.2 0 0 0-0.1 0-0.1 0-0.1 0-0.2 0-0.2 0-0.1 0.1-0.1 0.1-0.1 0-0.1 0-0.1 0.1-0.3 0.1 0 0-0.1 0.1 0 0-0.1 0.2v2.6h-0.7v-3.8h0.7v0.5q0.1 0 0.2-0.1 0 0 0.2-0.1 0.1 0 0.1 0 0.1-0.1 0.2-0.1 0 0 0.2-0.2 0.1 0 0.1 0 0.1 0 0.1 0 0.2 0 0.3 0 0 0 0.1 0 0.1 0 0.3 0zm-4.4 0.7c0 0.1 0 0.5 0 0.6h-2.9q0 0.1 0 0.1 0 0.2 0.1 0.3 0 0 0 0.1 0 0.1 0 0.1 0 0.2 0.2 0.2 0 0.1 0 0.1 0.1 0 0.1 0.1 0 0 0.1 0.1 0.1 0 0.1 0.2 0.2 0 0.2 0 0 0 0.1 0.1 0 0 0.1 0 0.2 0 0.2 0 0.1 0 0.1 0 0.1 0 0.1 0 0.1 0 0.3 0 0.1 0 0.1 0 0.1 0 0.2-0.1 0.2 0 0.2 0 0.1 0 0.2-0.2 0 0 0.2 0 0 0 0.1-0.1 0 0 0.1-0.1v0.8q0 0-0.1 0.1-0.1 0-0.1 0-0.2 0-0.3 0 0 0.1-0.1 0.1-0.2 0-0.2 0-0.1 0-0.2 0-0.1 0.1-0.1 0.1-0.2 0-0.3 0-0.1 0-0.4-0.1-0.2 0-0.4 0-0.2-0.1-0.3-0.2-0.2 0-0.4-0.2-0.1-0.2-0.1-0.4-0.2-0.1-0.3-0.3 0-0.2-0.1-0.4 0-0.3 0-0.4 0-0.3 0-0.4 0.1-0.2 0.1-0.4 0.1-0.2 0.1-0.3 0.2-0.3 0.3-0.4 0.1-0.2 0.4-0.3 0.1-0.1 0.2-0.1 0.3-0.1 0.4-0.1 0.1 0 0.4 0 0.1 0 0.4 0 0.1 0 0.2 0 0.1 0.1 0.3 0.2 0.2 0 0.2 0.1 0.2 0.2 0.3 0.4 0.1 0.2 0.1 0.3 0.1 0.1 0.1 0.4zm-0.6 0.2q0-0.1 0-0.2 0-0.2-0.1-0.3 0-0.1 0-0.1-0.2-0.1-0.2-0.3-0.1 0-0.2-0.1 0 0-0.1 0-0.2-0.1-0.3-0.1 0 0-0.1 0-0.1 0-0.3 0-0.1 0-0.2 0.1-0.2 0-0.2 0-0.1 0.1-0.2 0.3 0 0-0.1 0.1 0 0.1-0.2 0.1 0 0.1 0 0.3-0.1 0.1-0.1 0.2zm-4.3 2.3q0 0-0.1 0 0 0-0.2 0-0.1 0-0.1 0-0.1 0.1-0.1 0.1 0 0-0.2 0-0.1 0-0.1 0-0.1 0-0.2 0-0.2 0-0.3-0.1-0.1 0-0.2-0.1-0.2 0-0.2-0.1-0.1-0.2-0.1-0.3-0.1-0.1-0.1-0.3-0.2-0.1-0.2-0.2c0-0.1 0-2.2 0-2.3h-0.3v-0.5h0.3v-1.2h0.7v1.2h1.4v0.5h-1.4v1.8q0 0.2 0.1 0.5 0 0.1 0 0.1 0 0 0 0.1 0 0 0.1 0.2 0.2 0.1 0.2 0.1 0 0 0.1 0 0 0 0.1 0 0.1 0 0.1 0 0 0 0.2 0 0.1 0 0.1 0 0 0 0.1 0 0.2 0 0.3-0.1zm-3.8 0q-0.2 0.1-0.2 0.1-0.1 0-0.1 0 0 0-0.1 0 0 0-0.1 0-0.2 0-0.2 0-0.1 0-0.1 0-0.1 0-0.3 0-0.1 0-0.2 0-0.1-0.1-0.1-0.1-0.2-0.2-0.3-0.2-0.1-0.1-0.1-0.2-0.1-0.1-0.1-0.3 0-0.1 0-0.2c0-0.1 0-2.3 0-2.4h-0.6v-0.5h0.6v-1.2h0.6v1.2h1.3v0.5h-1.3c0 0.2 0 2.1 0 2.3q0 0 0 0.1 0 0.1 0 0.1 0 0 0.1 0.1 0.1 0.2 0.1 0.2 0.2 0 0.2 0 0 0.1 0.1 0.1 0 0 0.1 0 0.2 0 0.2 0 0 0 0.1 0 0 0 0-0.1 0.1 0 0.1 0 0.1 0 0.3 0zm-4-1.9h-2.8q0 0.1 0 0.2 0 0 0 0.1 0 0 0 0.2 0 0.1 0 0.1 0.1 0.1 0.1 0.1 0 0.1 0 0.1 0.2 0 0.2 0.2 0 0 0.1 0.1 0 0 0.1 0 0 0.1 0 0.1 0.2 0 0.2 0 0.1 0 0.1 0.2 0.1 0 0.1 0 0.1 0 0.1 0 0.2 0 0.2 0 0.1 0 0.1 0 0.1 0 0.2 0 0.2 0 0.3 0 0 0 0.1 0 0.2-0.2 0.3-0.2 0 0 0.1 0 0-0.1 0.1-0.1 0.2 0 0.2-0.1 0.1 0 0.1 0v0.6q0 0-0.1 0.1-0.2 0-0.2 0-0.1 0-0.2 0.2 0 0-0.1 0-0.2 0-0.2 0-0.1 0-0.2 0 0 0.1-0.2 0.1-0.1 0-0.2 0-0.1 0-0.4 0-0.1-0.1-0.4-0.1-0.1-0.2-0.4-0.3-0.1 0-0.2-0.1-0.1-0.3-0.3-0.4-0.1-0.1-0.2-0.4 0-0.1 0-0.4-0.2-0.1-0.2-0.3 0-0.3 0.2-0.4 0-0.3 0-0.4 0.1-0.3 0.2-0.4 0-0.2 0.2-0.4 0.1-0.1 0.3-0.2 0.2-0.2 0.3-0.2 0.3-0.1 0.4-0.1 0.2 0 0.4 0 0.1 0 0.3 0 0.2 0 0.3 0 0.3 0.1 0.4 0.3 0.1 0 0.2 0.1 0.2 0.1 0.2 0.4 0.1 0.1 0.1 0.2 0.1 0.2 0.1 0.4c0 0.1 0 0.5 0 0.7zm-0.6-0.6q0-0.1 0-0.2 0-0.1 0-0.3-0.1-0.1-0.1-0.1 0-0.1-0.2-0.2-0.1 0-0.1-0.2-0.1 0-0.3 0-0.1-0.1-0.1-0.1-0.1 0-0.2 0-0.2 0-0.3 0-0.1 0-0.2 0.1 0 0-0.2 0-0.1 0.2-0.2 0.3 0 0-0.2 0.1 0 0.1-0.1 0.1 0 0.2 0 0.3 0 0.1 0 0.2zm-4.7 0.4q0 0.2 0 0.2 0 0.1 0 0.2 0 0.1 0 0.3 0 0.1-0.1 0.2 0 0 0 0.1-0.2 0.2-0.2 0.2 0 0.1-0.1 0.2 0 0-0.1 0.2 0 0-0.1 0.1 0 0-0.2 0.1 0 0-0.1 0 0 0.1-0.1 0.1 0 0-0.1 0-0.2 0.2-0.2 0.2-0.1 0-0.2 0 0 0-0.2 0-0.1 0-0.1 0-0.1 0-0.1 0-0.1 0-0.1 0-0.2 0-0.2-0.2-0.1 0-0.1 0-0.1 0-0.1 0-0.1-0.1-0.1-0.1-0.2 0-0.2 0l-0.1 0.1h-0.5v-5.3h0.6v1.9q0 0 0.2-0.1 0 0 0.1-0.2 0.1 0 0.1 0 0.1-0.1 0.1-0.1 0.2 0 0.3 0 0-0.1 0.1-0.1 0.1 0 0.1 0 0.2 0 0.3 0 0.1 0 0.3 0 0.1 0 0.3 0.1 0.2 0 0.3 0.1 0.1 0.2 0.1 0.3 0.1 0.1 0.3 0.4 0 0.1 0.1 0.4 0 0.1 0 0.3 0 0.2 0 0.4zm-0.6 0q0-0.1 0-0.2 0-0.2 0-0.3 0-0.1-0.2-0.2 0-0.2-0.1-0.3 0-0.1-0.1-0.2 0 0-0.1-0.2-0.2 0-0.3 0-0.1 0-0.1 0-0.2 0-0.3 0 0 0-0.1 0 0 0-0.1 0 0 0.2-0.2 0.2-0.1 0-0.1 0-0.1 0.1-0.1 0.1-0.1 0-0.1 0.1-0.2 0-0.2 0v2.3q0 0 0.2 0 0 0 0.1 0 0 0.1 0.1 0.1 0.1 0 0.1 0 0.2 0 0.2 0 0.1 0 0.1 0 0.1 0 0.1 0 0.1 0 0.3 0 0.1 0 0.2 0 0.2-0.1 0.2-0.1 0.1-0.1 0.2-0.1 0-0.2 0.1-0.3 0-0.1 0.2-0.4 0-0.1 0-0.2 0-0.1 0-0.3zm-7.2 0.8q0 0.1 0 0.2 0 0.2-0.1 0.3 0 0.1-0.1 0.3-0.1 0.1-0.1 0.1-0.3 0.1-0.4 0.1-0.2 0.1-0.3 0.1-0.1 0.2-0.2 0.2-0.3 0-0.4 0-0.1 0-0.1 0-0.2 0-0.3 0-0.1 0-0.3-0.2 0 0-0.1 0-0.1 0-0.1 0-0.1 0-0.1-0.1-0.2 0-0.3 0 0 0-0.1-0.1v-0.7q0.1 0 0.2 0 0 0.2 0.2 0.2 0.1 0.1 0.1 0.1 0.1 0 0.2 0.1 0.2 0 0.2 0 0.1 0 0.2 0 0 0 0.2 0.2 0.1 0 0.2 0 0 0 0.1 0 0.2 0 0.2-0.2 0.1 0 0.2 0 0 0 0.1 0 0-0.1 0.2-0.1 0 0 0-0.1 0.1 0 0.1-0.2 0 0 0-0.1 0 0 0-0.1-0.1-0.1-0.1-0.1 0 0 0-0.2-0.2 0-0.2 0-0.1 0-0.1-0.1-0.1 0-0.1 0-0.1 0-0.1 0-0.2 0-0.4-0.1-0.3 0-0.4-0.1-0.1 0-0.3 0-0.1 0-0.1-0.2-0.1 0-0.2-0.1 0 0-0.2-0.1 0 0-0.1-0.2 0 0 0-0.1 0-0.1-0.1-0.1 0-0.1 0-0.3 0 0 0-0.1 0 0 0.1 0 0-0.1 0-0.1 0-0.1 0-0.1 0-0.2 0.1-0.2 0 0 0-0.1 0 0 0.2-0.1 0.1-0.2 0.1-0.2 0.1 0 0.1 0 0.1-0.1 0.1-0.1 0.2 0 0.2 0 0.1 0 0.2-0.1 0 0 0.2 0 0.1 0 0.1 0 0.1 0 0.2 0 0 0 0.2 0 0.1 0 0.1 0 0.1 0 0.2 0 0 0.1 0.2 0.1 0.1 0 0.1 0 0.1 0 0.1 0 0.2 0.1 0.3 0.1 0 0 0.1 0v0.8h-0.1q0-0.1-0.1-0.1 0 0-0.2-0.1 0 0-0.1 0-0.1 0-0.1-0.2-0.2 0-0.3 0 0 0-0.1 0-0.1 0-0.1-0.1-0.2 0-0.3 0 0 0-0.1 0-0.1 0-0.1 0.1-0.2 0-0.2 0-0.1 0-0.2 0 0 0.2-0.2 0.3 0 0 0 0.1-0.1 0.1 0 0.3 0 0.1 0.2 0.1 0 0.1 0.1 0.1 0.1 0.1 0.1 0.1 0.2 0 0.2 0 0.2 0 0.5 0.2 0.1 0 0.3 0 0 0 0.2 0.1 0.1 0 0.1 0 0.1 0.1 0.3 0.1 0 0.2 0.1 0.2 0.1 0.1 0.1 0.1 0 0.1 0.1 0.2 0 0 0 0.2 0 0.1 0 0.1zm-5.1 0.8q0.2 0.1 0 0.3 0 0.2 0 0.4-0.1 0.1-0.1 0.4-0.1 0.1-0.2 0.3-0.2 0.1-0.3 0.2-0.2 0.1-0.4 0.1-0.2 0-0.4 0.2-0.1 0-0.3 0-0.2 0-0.2 0-0.1 0-0.1 0-0.1 0-0.1 0-0.1-0.2-0.3-0.2 0 0-0.1 0 0 0-0.1 0 0 0-0.2 0-0.1 0-0.1-0.1v-0.6q0.1 0 0.1 0.1 0.2 0 0.2 0 0.1 0 0.1 0 0.1 0 0.1 0 0.2 0.1 0.2 0.1 0.1 0 0.2 0 0 0 0.1 0 0.2 0 0.3 0 0 0 0.1 0 0 0 0.1 0 0 0 0.2 0 0 0 0.1-0.1 0 0 0.1 0 0.2 0 0.2-0.1 0 0 0.1 0 0-0.2 0-0.2 0.1-0.1 0.1-0.1 0 0 0-0.1 0 0 0-0.1 0-0.2 0-0.2c0-0.1 0-0.5 0-0.5q0 0-0.1 0.2 0 0-0.1 0.1 0 0-0.2 0-0.1 0.1-0.1 0.1-0.1 0-0.1 0-0.2 0-0.3 0.1 0 0-0.1 0-0.1 0-0.3 0-0.1 0-0.2 0-0.1-0.1-0.3-0.1-0.1-0.1-0.2-0.1-0.2-0.1-0.3-0.3-0.1-0.1-0.2-0.4 0-0.1-0.2-0.2 0-0.3 0-0.4 0-0.2 0-0.4 0-0.1 0-0.2 0-0.2 0-0.3 0-0.1 0-0.1 0-0.1 0.2-0.3 0-0.1 0-0.1 0.1-0.1 0.1-0.2 0 0 0.1-0.2 0 0 0.1-0.1 0 0 0.2-0.1 0 0 0.1-0.2 0 0 0.1 0 0-0.1 0.2-0.1 0.1 0 0.1 0 0.1-0.1 0.2-0.1 0 0 0.2 0 0 0 0.1 0 0.1 0 0.1 0 0.1 0 0.1 0 0.2 0 0.2 0 0.1 0 0.2 0 0 0.1 0 0.1 0.2 0 0.2 0 0.1 0 0.1 0.1 0.1 0 0.1 0l0.1-0.1h0.5zm-0.6-0.6v-2.2q0 0-0.1 0 0 0-0.1 0 0-0.1-0.2-0.1 0 0-0.1 0-0.1 0-0.1 0-0.2 0-0.2 0-0.1 0-0.1 0-0.1 0-0.2 0-0.2 0-0.3 0-0.1 0.1-0.1 0.1-0.1 0.1-0.3 0.1 0 0.2-0.1 0.3 0 0.1-0.1 0.3 0 0.1 0 0.2 0 0.3 0 0.4 0 0.1 0 0.2 0 0.2 0 0.3 0 0.1 0.1 0.3 0 0.1 0.1 0.1 0 0.1 0.2 0.2 0.1 0 0.1 0 0.1 0.2 0.2 0.2 0.2 0 0.3 0 0 0 0.1 0 0 0 0.1 0 0.2 0 0.2 0 0.1-0.2 0.1-0.2 0.1 0 0.1 0 0.2-0.1 0.2-0.1 0.1 0 0.1 0 0.1-0.1 0.1-0.1zm-4.7 1h-0.6c0-0.1 0-2.3 0-2.3q0-0.1 0-0.1 0-0.1 0-0.1 0-0.2 0-0.2 0 0 0-0.1 0 0-0.2 0 0-0.1 0-0.1 0-0.2 0-0.2 0 0-0.1 0 0-0.1 0-0.1 0 0-0.1 0 0 0 0-0.1 0 0-0.1 0 0 0-0.2 0 0 0-0.1 0-0.1 0-0.3 0 0 0-0.1 0 0 0-0.1 0 0 0.1-0.1 0.1 0 0-0.2 0-0.1 0.1-0.1 0.1-0.1 0-0.1 0.2-0.1 0-0.1 0.1v2.8h-0.7v-3.8h0.7v0.4q0 0 0.1-0.2 0.1 0 0.1-0.1 0.1 0 0.1 0 0.2-0.1 0.3-0.1 0 0 0.1 0 0.1-0.1 0.1-0.1 0.2 0 0.3 0 0 0 0.1 0 0.2 0 0.3 0 0.1 0 0.2 0.1 0.2 0 0.3 0.1 0.1 0 0.2 0.1 0 0.2 0.2 0.3 0 0.1 0.1 0.2 0 0.2 0 0.3 0 0.1 0 0.4zm-5.5 0h-0.6v-4h0.6zm0-4.4h-0.7v-0.8h0.7zm-2.9 4.6h-0.6c0 0 0-2.3 0-2.4q0-0.1 0-0.1 0-0.2 0-0.2 0-0.1 0-0.1-0.2-0.1-0.2-0.1 0 0 0-0.2 0-0.1-0.1-0.1 0-0.1-0.1-0.1-0.1 0-0.1 0 0 0-0.2 0 0-0.1-0.1-0.1 0 0-0.1 0 0 0-0.2 0 0 0.1-0.1 0.1 0 0-0.1 0 0 0-0.1 0 0 0.1-0.2 0.1-0.1 0-0.1 0.1-0.1 0-0.1 0-0.1 0.2-0.1 0.2v2.9h-0.7v-5.5h0.7v2.1q0-0.2 0.1-0.2 0-0.1 0.1-0.1 0.1 0 0.1-0.1 0.2 0 0.3 0 0-0.1 0.1-0.1 0.1 0 0.1 0 0.2 0 0.3 0 0 0 0.1 0 0.2-0.2 0.3 0 0.1 0 0.2 0 0.2 0.1 0.3 0.1 0.1 0.1 0.1 0.2 0.1 0 0.3 0.2 0 0.1 0.1 0.3 0 0.2 0 0.3 0 0.1 0 0.3zm-5 0q-0.1 0-0.1 0 0 0-0.1 0 0 0-0.1 0-0.2 0-0.2 0.1-0.1 0-0.1 0 0 0-0.1 0 0 0-0.2 0 0 0-0.1 0-0.1-0.1-0.2-0.1-0.2 0-0.3-0.2-0.1 0-0.2-0.1 0-0.1-0.2-0.3 0-0.1-0.1-0.2 0-0.1 0-0.3 0-0.1 0-0.2v-2.1h-0.4v-0.5h0.4v-1.1h0.6v1.1h1.4v0.5h-1.4c0 0.2 0 2.2 0 2.3q0 0.2 0 0.2 0.2 0 0.2 0 0 0.1 0 0.1 0 0 0 0.1 0 0 0.1 0 0 0.1 0.1 0.1 0.1 0 0.1 0 0.2 0 0.2 0 0 0 0.1 0 0.1 0 0.1 0 0 0 0.2 0 0.2-0.1 0.2-0.1h0.1zm-6.5-1.8h-2.9q0 0 0 0.2 0 0.1 0.1 0.1 0 0.1 0 0.1 0 0.1 0 0.3 0 0 0.2 0.1 0 0 0 0.1 0 0 0.1 0 0 0.2 0.1 0.2 0 0 0 0.1 0.1 0 0.1 0 0.2 0.1 0.2 0.1 0 0 0.1 0 0 0 0.1 0 0 0 0.2 0.1 0.1 0 0.1 0 0.1 0 0.1 0 0.1 0 0.3 0 0.1 0 0.1-0.1 0.1 0 0.2 0 0.2 0 0.2-0.1 0.1 0 0.2 0 0 0 0.2-0.1 0 0 0.1 0 0-0.2 0.1-0.2v0.8q0 0-0.1 0-0.1 0-0.1 0.1-0.2 0-0.3 0 0 0-0.1 0-0.2 0.1-0.2 0.1-0.1 0-0.2 0-0.1 0-0.1 0-0.2 0-0.3 0-0.1 0-0.4 0-0.2 0-0.4-0.1-0.2 0-0.3-0.1-0.2-0.1-0.4-0.3-0.1-0.1-0.3-0.2 0-0.3-0.1-0.4 0-0.3-0.1-0.4 0-0.2 0-0.5 0-0.1 0-0.4 0.1-0.1 0.1-0.4 0.1-0.1 0.1-0.3 0.2-0.2 0.3-0.3 0.1-0.1 0.4-0.2 0.1-0.2 0.2-0.3 0.3 0 0.4-0.1 0.1 0 0.4 0 0.1 0 0.4 0 0.1 0.1 0.2 0.1 0.1 0 0.3 0.1 0.2 0.2 0.2 0.3 0.2 0.1 0.3 0.2 0.1 0.2 0.1 0.4 0.1 0.1 0.1 0.3 0 0.2 0 0.4zm-0.6-0.6q0-0.1 0-0.2 0 0-0.1-0.1 0-0.2 0-0.3-0.2 0-0.2-0.1-0.1-0.1-0.2-0.1 0-0.2-0.1-0.2-0.2 0-0.3 0 0 0-0.1 0-0.1 0-0.3 0-0.1 0-0.2 0-0.2 0.2-0.2 0.2-0.1 0-0.2 0.1 0 0.1-0.1 0.1 0 0.1-0.2 0.3 0 0.1 0 0.1-0.1 0.1-0.1 0.2zm-4.2 2.5h-0.8l-1.6-1.8-0.4 0.5v1.3h-0.6v-5.5h0.6v3.6l1.9-2.1h0.8l-1.8 1.8zm-5.7 0h-0.7v-0.4q-0.1 0.1-0.2 0.1 0 0.2-0.1 0.2 0 0-0.2 0 0 0.1 0 0.1-0.1 0-0.1 0 0 0-0.1 0 0 0 0 0.1-0.2 0-0.2 0-0.1 0-0.1 0-0.1 0-0.1 0-0.1 0-0.1 0-0.2 0-0.2 0-0.1 0-0.2 0-0.1 0-0.3 0-0.1-0.1-0.2-0.1 0-0.1-0.2-0.3-0.1 0-0.1-0.1-0.1-0.1-0.1-0.2-0.1-0.2-0.1-0.3 0-0.1 0-0.1 0-0.1 0-0.3 0-0.1 0-0.1 0.1-0.1 0.1-0.3 0 0 0.1-0.1 0-0.1 0-0.1 0.1-0.1 0.1-0.1 0.2 0 0.3-0.2 0 0 0.1 0 0.2-0.1 0.2-0.1 0.1 0 0.2-0.1 0.1 0 0.3 0 0.1 0 0.1 0 0.5-0.1 1.1-0.1c0-0.2 0-0.3 0-0.3q0 0 0-0.1-0.1 0-0.1 0 0-0.2 0-0.2 0 0-0.1 0 0-0.1 0-0.1 0 0-0.1 0 0 0 0-0.1 0 0-0.2 0-0.1 0-0.1 0-0.1 0-0.1 0 0 0-0.2 0 0 0-0.1 0-0.1 0-0.1 0-0.1 0-0.3 0 0 0-0.1 0 0 0-0.1 0 0 0-0.1 0.1-0.2 0-0.2 0-0.1 0-0.2 0 0 0.1-0.2 0.1v-0.6q0.2-0.1 0.6-0.1 0.1 0 0.1-0.1 0.1 0 0.2 0 0.2 0 0.2 0 0.1 0 0.2 0 0 0 0.1 0 0.2 0 0.3 0 0 0 0.1 0 0.2 0.1 0.2 0.1 0.1 0 0.1 0 0.1 0 0.1 0 0.1 0.1 0.1 0.1 0.2 0 0.2 0.1 0.1 0 0.1 0 0.1 0.2 0.1 0.2 0 0 0.1 0.1 0 0 0 0.1 0 0 0 0.1 0.2 0.2 0.2 0.2 0 0.1 0 0.1 0 0.1 0 0.3zm-0.7-1.1v-1q-0.3 0-0.7 0 0 0-0.2 0-0.1 0-0.1 0-0.1 0.1-0.1 0.1-0.1 0-0.3 0 0 0-0.1 0 0 0-0.1 0.2-0.1 0.1-0.1 0.1-0.2 0.1-0.2 0.3-0.1 0.1-0.1 0.2 0 0.1 0.1 0.3 0 0.1 0.2 0.1 0 0.1 0.1 0.1 0.1 0 0.1 0.1 0.1 0 0.1 0 0.2 0 0.3 0 0 0 0.1 0 0.1 0 0.1 0 0.2-0.1 0.3-0.1 0 0 0.1 0 0-0.1 0.2-0.1 0 0 0.1 0 0-0.1 0.1-0.1 0 0 0.1-0.2zm-4.5 1.1h-0.7v-2.3q0-0.3-0.1-0.4 0-0.1 0-0.1 0-0.2 0-0.2 0 0 0-0.1-0.1-0.1-0.1-0.1 0-0.2-0.2-0.2-0.1 0-0.1 0 0-0.1-0.1-0.1 0 0-0.1 0 0 0-0.2 0 0 0-0.1 0 0 0-0.1 0.1 0 0-0.2 0 0 0-0.1 0 0 0.2-0.1 0.2-0.1 0-0.1 0.1-0.2 0-0.2 0-0.1 0.1-0.1 0.1 0 0.2 0 0.3 0 0 0 0.1v2.6h-0.6c0-0.2 0-2.6 0-2.7q0-0.1 0-0.1 0-0.2 0-0.2-0.2 0-0.2-0.1 0-0.1 0-0.1-0.1 0-0.1 0 0-0.2 0-0.2-0.1 0-0.1 0 0 0-0.1 0 0-0.1 0-0.1-0.2 0-0.2 0-0.1 0-0.1 0-0.1 0-0.1 0-0.1 0-0.1 0.1-0.2 0-0.2 0-0.1 0-0.1 0-0.1 0.2-0.1 0.2-0.2 0-0.3 0.1 0 0-0.1 0 0 0.1-0.1 0.1v3h-0.7v-4h0.7v0.5q0.1-0.1 0.2-0.1 0-0.1 0.1-0.1 0 0 0.2-0.2 0.1 0 0.1 0 0.1-0.1 0.1-0.1 0.2 0 0.3 0 0 0 0.1 0 0.1-0.1 0.1-0.1 0.2 0 0.3 0 0 0.1 0.1 0.1 0.1 0 0.1 0 0.2 0 0.3 0.1 0 0 0.1 0 0 0.2 0 0.2 0.2 0.1 0.2 0.1 0.1 0.1 0.1 0.1 0 0 0.1-0.1 0.1 0 0.1-0.1 0.2 0 0.3-0.2 0.1 0 0.1 0 0.1-0.1 0.3-0.1 0 0 0.1 0 0.1 0 0.1 0 0.2-0.1 0.3-0.1 0.1 0 0.2 0.1 0.2 0 0.3 0 0.1 0 0.2 0.1 0.2 0.2 0.2 0.2 0.1 0.1 0.1 0.2 0.1 0.1 0.1 0.4 0.2 0.1 0.2 0.3 0 0.1 0 0.2z"/>
	<path id="Layer" class="s2" d="m99.3 35.3h3.8v6.6l5.2-6.6h4.5l-6.7 8.6 7.3 10.8h-4.3l-6-8.6v8.6h-3.8z"/>
	<path id="Layer" class="s2" d="m141.4 38.2l-2.5 2.4q-0.6-0.6-1.3-1.1-0.6-0.6-1.4-0.9-0.7-0.3-1.6-0.5-0.8-0.2-1.7-0.3-1.3 0-2.5 0.5-1.3 0.5-2.2 1.4-0.9 1-1.4 2.2-0.5 1.2-0.5 2.5 0 0.5 0 0.9 0.1 0.5 0.3 0.9 0 0.5 0.2 0.9 0.1 0.4 0.4 0.8 0.1 0.3 0.4 0.7 0.2 0.4 0.6 0.7 0.3 0.2 0.6 0.5 0.4 0.2 0.7 0.5 0.5 0.2 0.9 0.4 0.4 0.1 0.9 0.2 0.3 0.1 0.7 0.1 0.5 0.2 0.9 0.2 0.4 0 0.8-0.2 0.4 0 0.7 0 0.4-0.1 0.8-0.2 0.4-0.1 0.8-0.3 0.4-0.2 0.7-0.5 0.4-0.1 0.8-0.5 0.4-0.2 0.8-0.5 0.2-0.4 0.6-0.6l2.4 2.5q-0.4 0.5-0.9 0.9-0.4 0.4-0.9 0.8-0.6 0.3-1.1 0.7-0.5 0.3-1.2 0.5-0.5 0.3-1 0.4-0.5 0.1-1 0.3-0.6 0.1-1.1 0.1-0.7 0.1-1.2 0.1-1 0-2-0.1-1-0.3-1.9-0.6-1-0.4-1.9-0.9-0.9-0.5-1.6-1.3-1.1-1.3-1.9-2.8-0.7-1.5-0.9-3.2-0.2-1.6 0.2-3.4 0.2-1.7 1-3.1 0.4-0.6 0.7-1.1 0.4-0.5 0.9-1 0.5-0.4 1.1-0.8 0.5-0.5 1.1-0.8 0.6-0.3 1.3-0.6 0.6-0.3 1.2-0.4 0.7-0.2 1.4-0.2 0.7-0.2 1.3-0.2 1.3 0 2.4 0.3 1.3 0.2 2.3 0.8 1.2 0.5 2.1 1.2 1 0.8 1.7 1.7z"/>
	<path id="Layer" fill-rule="evenodd" class="s2" d="m151.5 34.5h3.9q0.7-0.1 1.2 0 0.6 0 1.1 0 0.7 0.1 1.2 0.2 0.6 0.2 1.1 0.3 0.4 0.1 0.7 0.4 0.4 0.1 0.6 0.4 0.3 0.2 0.5 0.5 0.3 0.4 0.5 0.6 0.2 0.4 0.4 0.8 0.1 0.4 0.3 0.7 0 0.4 0.1 0.8 0 0.5 0 0.9 0 0.4 0 0.9-0.1 0.5-0.3 0.9-0.1 0.4-0.3 0.9-0.2 0.3-0.4 0.7-0.3 0.3-0.7 0.7-0.3 0.2-0.6 0.5-0.4 0.2-0.9 0.4-0.4 0.1-0.8 0.2-0.5 0.1-1 0.3-0.4 0-0.9 0-0.5 0.1-1 0.1-0.5 0-1 0v8.1h-3.7zm3.7 7.7c0.1 0 1.5 0 1.6 0q0.3 0 0.6 0 0.2 0 0.5-0.2 0.2 0 0.5 0 0.1-0.1 0.2-0.1 0.2-0.1 0.2-0.1 0.1-0.1 0.2-0.3 0.1-0.1 0.1-0.2 0.2 0 0.3-0.3 0-0.1 0-0.2 0.1-0.2 0.1-0.3 0-0.1 0-0.2 0-0.3 0-0.5-0.1-0.3-0.2-0.6-0.2-0.1-0.3-0.3-0.1-0.2-0.4-0.3-0.2-0.1-0.5-0.2-0.4 0-0.6-0.2-0.3 0-0.7 0-0.2 0-0.5 0h-1.1z"/>
	<path id="Layer" class="s2" d="m173.1 34.5h3.7v15.9h5.5v3.4h-9.2z"/>
	<path id="Layer" fill-rule="evenodd" class="s2" d="m77.4 100.7c1.9 4.9 3.8 8.1 5.7 8.3q0.3-0.7 0.8-1.4 0.4-0.7 0.9-1.3 0.4-0.5 1-1.2 0.5-0.5 1.2-0.9-4.6-1.6-9.6-3.5z"/>
	<path id="Layer" fill-rule="evenodd" class="s2" d="m75.3 93.2q0.6 2.1 1.4 4.2 6.8 2.6 12.9 4.6c2.1-1.3 3.5-1.8 2.8-1.7-2.9 0.8-5.4-0.6-7.7-3.4q-4.6-1.7-9.4-3.7z"/>
	<path id="Layer" fill-rule="evenodd" class="s3" d="m76 56.8c31.7 17 53.4 38.4 48.3 47.8-5 9.4-34.8 3.3-66.5-13.6-31.7-16.9-53.3-38.3-48.2-47.7 4.2-8.2 26.6-4.9 52.7 6.7q0.2 0.7 0.5 1.3c-17-6.8-42.3-14.3-47.3-4.8-4.5 8.4 14.8 27.6 43.2 42.7 28.4 15.2 55.1 20.6 59.6 12.2 2.5-4.7-2.2-12.4-11.6-21.1-5.4-7-16.3-15.5-29.9-22.8-1.8-1-5-2.5-9.1-4.2q-0.1-0.5-0.3-0.9 4.3 2.1 8.6 4.4z"/>
	<path id="Layer" fill-rule="evenodd" class="s2" d="m107.1 67.6c-0.7 0.2-1 0.7-1.2 1.4 0 0.6 0.4 1.3 0.9 1.5 0.5 0.4 1.3 0.3 1.8-0.1 0.5-0.4 0.8-1 0.5-1.7q0-0.4-0.2-0.6-0.3-0.3-0.6-0.4-0.2-0.1-0.6-0.1-0.2-0.1-0.6 0z"/>
	<path id="Layer" fill-rule="evenodd" class="s2" d="m70.9 61.3q0.9 2.3 1.8 4.9c2.3 6.7 4.5 13.2 6.8 18.7q-3.2-1.3-6.7-2.8c-2.1-7.3-4.4-15.3-7.2-23.3q2.5 1.1 5.3 2.5zm-14.4-30.1c4.6 7.1 9.5 16.8 14.3 29.9q-2.7-1.4-5.5-2.7-1-3.3-2.3-6.6-1.2-3.2-2.6-6.4-1.4-3.1-3-6.2-1.5-3.1-3.3-6.1 1.2-1 2.4-1.9z"/>
	<path id="Layer" fill-rule="evenodd" class="s2" d="m28 13.1c10 0.3 17.7 7 24.1 16.8q1-1 2.1-2c-9.9-13.9-18.8-16.1-26.2-14.8z"/>
	<path id="Layer" fill-rule="evenodd" class="s2" d="m122.2 84.8c-1.1-6.4-6.3-10.7-13.2-13.9q0.4-0.9 0.7-1.8c10.2 5.1 12.5 10.7 12.5 15.7z"/>
	<path id="Layer" fill-rule="evenodd" class="s2" d="m89.8 23.3c-0.7 0.2-1.1 0.7-1.2 1.4 0 0.6 0.3 1.3 0.9 1.6 0.5 0.3 1.3 0.3 1.8-0.2 0.5-0.4 0.6-1 0.5-1.7q-0.1-0.2-0.3-0.5-0.2-0.2-0.5-0.5-0.2-0.1-0.6-0.1-0.3 0-0.6 0z"/>
	<path id="Layer" fill-rule="evenodd" class="s2" d="m74 63c25.2 13.6 42.6 29.4 39.2 35.8-3.3 6.2-26.9 0.4-52.5-13.3-25.7-13.7-43.2-30.5-40.2-36.2 3.1-5.8 18.3-2.5 37.8 6.1q-0.1 0.2-0.2 0.5c-10.9-4.1-18.6-5.4-20.4-1.9-1.9 3.4 7.1 12.7 21.1 21.1q-0.1 0.2-0.1 0.5-0.1 0.3 0 0.5 0 0.3 0 0.5 0.1 0.3 0.3 0.5 0.3-0.1 0.6-0.1 0.4-0.1 0.8-0.1 0.3 0 0.7 0 0.4 0 0.8 0 1.5 0.9 3.3 1.9c17.4 9.3 33.6 13.4 35.9 9 2.3-4.4-18.6-20.1-27.4-24.8q-0.1 0-0.2-0.1zm31 27.2c-0.6 0.3-1.1 0.8-1.1 1.4-0.1 0.7 0.2 1.3 0.7 1.7 0.7 0.2 1.4 0.2 2-0.2 0.5-0.5 0.6-1.1 0.5-1.7q-0.2-0.3-0.3-0.7-0.2-0.2-0.5-0.4-0.4-0.1-0.6-0.1-0.4-0.1-0.7 0zm-63.5-24c-0.8 0.2-1.3 0.7-1.3 1.5-0.1 0.7 0.3 1.5 0.9 1.8 0.7 0.3 1.6 0.3 2.1-0.2 0.6-0.5 0.9-1.1 0.6-1.9q-0.1-0.4-0.3-0.6-0.2-0.4-0.6-0.5-0.4-0.1-0.6-0.3-0.4 0-0.8 0.2zm-13.7-17c-0.6 0.2-1.1 0.8-1.1 1.4-0.1 0.7 0.3 1.2 0.8 1.6 0.5 0.2 1.3 0.2 1.8-0.2 0.5-0.4 0.6-1.1 0.5-1.6q-0.1-0.4-0.3-0.7-0.2-0.2-0.5-0.3-0.2-0.2-0.6-0.3-0.3 0-0.6 0.1zm49.6 37.8c-0.8 0.3-1.3 0.9-1.3 1.6-0.1 0.7 0.3 1.4 0.9 1.7 0.7 0.4 1.4 0.3 1.9-0.1 0.7-0.5 0.9-1.3 0.7-1.9q0-0.4-0.3-0.6-0.2-0.3-0.5-0.5-0.4-0.2-0.8-0.2-0.3-0.1-0.6 0z"/>
	<path id="Layer" fill-rule="evenodd" class="s2" d="m54 28.8c-0.6 0.2-1 0.7-1.2 1.4 0 0.6 0.3 1.2 0.9 1.6 0.5 0.3 1.3 0.3 1.8-0.2 0.5-0.4 0.7-1.1 0.5-1.7q-0.1-0.3-0.2-0.5-0.3-0.3-0.5-0.5-0.3-0.1-0.7-0.1-0.4 0-0.6 0z"/>
	<path id="Layer" fill-rule="evenodd" class="s2" d="m77.4 87.4c-0.5 0.2-0.9 0.7-0.9 1.2-0.1 0.5 0.2 1.1 0.7 1.4 0.5 0.2 1.1 0.2 1.5-0.1 0.5-0.4 0.6-0.9 0.5-1.6q0-0.2-0.3-0.5-0.1-0.1-0.3-0.4-0.3-0.1-0.5-0.1-0.4 0-0.7 0.1z"/>
	<path id="Layer" fill-rule="evenodd" class="s2" d="m88.4 26.3c-8.8 21.4-32.1 45.2-29.1 49.8 3.9-1.3 9.6 2.2 8.8 1.7-5.3-4.2 2.1-14.7 10-27q1.9-2.8 3.5-5.6 1.7-2.9 3.2-5.9 1.7-2.9 3.1-6 1.2-3 2.5-6.1-1-0.5-2-0.9z"/>
	<path id="Layer" fill-rule="evenodd" class="s2" d="m88.4 2.2c4.2 5.6 4 12.7 1.5 20.4q1 0.4 1.9 0.8c3.4-11.7 0.6-17.7-3.4-21.2z"/>
	<path id="Layer" fill-rule="evenodd" class="s2" d="m104.8 69.2c-19.2-6.8-47.6-6.3-48.8-11 3.2-1.7 4.5-7.5 4.4-6.7-0.7 6 10.6 7.6 23.6 10q2.7 0.5 5.5 1.1 2.8 0.5 5.5 1.3 2.7 0.8 5.3 1.6 2.8 0.9 5.4 2-0.4 0.8-0.9 1.7z"/>
	<path id="Layer" fill-rule="evenodd" class="s2" d="m105 90.6c-0.3 0.2-0.7 0.5-0.7 1-0.2 0.6 0.1 1.1 0.6 1.3 0.4 0.1 0.9 0.1 1.3-0.1 0.4-0.4 0.6-0.9 0.5-1.3q-0.1-0.2-0.3-0.5-0.1-0.1-0.3-0.2-0.3-0.2-0.6-0.3-0.2 0-0.5 0.1z"/>
	<path id="Layer" fill-rule="evenodd" class="s2" d="m41.6 66.6c-0.5 0.1-0.8 0.6-1 1.1 0 0.5 0.3 1.2 0.8 1.4 0.5 0.3 1 0.1 1.5-0.1q0.7-0.7 0.4-1.5 0-0.3-0.3-0.4-0.1-0.3-0.3-0.4-0.3-0.1-0.5-0.1-0.3-0.2-0.6 0z"/>
	<path id="Layer" fill-rule="evenodd" class="s2" d="m27.9 49.5c-0.5 0.1-0.8 0.6-0.9 1 0 0.5 0.3 1 0.6 1.3 0.5 0.3 1.1 0.1 1.4-0.1 0.4-0.3 0.5-0.8 0.4-1.3q0-0.3-0.2-0.5-0.2-0.1-0.3-0.3-0.2-0.1-0.5-0.1-0.3 0-0.5 0z"/>
	<path id="Layer" class="s2" d="m99.3 35.3h3.8v6.6l5.2-6.6h4.5l-6.7 8.6 7.3 10.8h-4.3l-6-8.6v8.6h-3.8z"/>
	<path id="Layer" class="s2" d="m141.4 38.2l-2.5 2.4q-0.6-0.6-1.3-1.1-0.6-0.6-1.4-0.9-0.7-0.3-1.6-0.5-0.8-0.2-1.7-0.3-1.3 0-2.5 0.5-1.3 0.5-2.2 1.4-0.9 1-1.4 2.2-0.5 1.2-0.5 2.5 0 0.5 0 0.9 0.1 0.5 0.3 0.9 0 0.5 0.2 0.9 0.1 0.4 0.4 0.8 0.1 0.3 0.4 0.7 0.2 0.4 0.6 0.7 0.3 0.2 0.6 0.5 0.4 0.2 0.7 0.5 0.5 0.2 0.9 0.4 0.4 0.1 0.9 0.2 0.3 0.1 0.7 0.1 0.5 0.2 0.9 0.2 0.4 0 0.8-0.2 0.4 0 0.7 0 0.4-0.1 0.8-0.2 0.4-0.1 0.8-0.3 0.4-0.2 0.7-0.5 0.4-0.1 0.8-0.5 0.4-0.2 0.8-0.5 0.2-0.4 0.6-0.6l2.4 2.5q-0.4 0.5-0.9 0.9-0.4 0.4-0.9 0.8-0.6 0.3-1.1 0.7-0.5 0.3-1.2 0.5-0.5 0.3-1 0.4-0.5 0.1-1 0.3-0.6 0.1-1.1 0.1-0.7 0.1-1.2 0.1-1 0-2-0.1-1-0.3-1.9-0.6-1-0.4-1.9-0.9-0.9-0.5-1.6-1.3-1.1-1.3-1.9-2.8-0.7-1.5-0.9-3.2-0.2-1.6 0.2-3.4 0.2-1.7 1-3.1 0.4-0.6 0.7-1.1 0.4-0.5 0.9-1 0.5-0.4 1.1-0.8 0.5-0.5 1.1-0.8 0.6-0.3 1.3-0.6 0.6-0.3 1.2-0.4 0.7-0.2 1.4-0.2 0.7-0.2 1.3-0.2 1.3 0 2.4 0.3 1.3 0.2 2.3 0.8 1.2 0.5 2.1 1.2 1 0.8 1.7 1.7z"/>
	<path id="Layer" fill-rule="evenodd" class="s2" d="m151.5 34.5h3.9q0.7-0.1 1.2 0 0.6 0 1.1 0 0.7 0.1 1.2 0.2 0.6 0.2 1.1 0.3 0.4 0.1 0.7 0.4 0.4 0.1 0.6 0.4 0.3 0.2 0.5 0.5 0.3 0.4 0.5 0.6 0.2 0.4 0.4 0.8 0.1 0.4 0.3 0.7 0 0.4 0.1 0.8 0 0.5 0 0.9 0 0.4 0 0.9-0.1 0.5-0.3 0.9-0.1 0.4-0.3 0.9-0.2 0.3-0.4 0.7-0.3 0.3-0.7 0.7-0.3 0.2-0.6 0.5-0.4 0.2-0.9 0.4-0.4 0.1-0.8 0.2-0.5 0.1-1 0.3-0.4 0-0.9 0-0.5 0.1-1 0.1-0.5 0-1 0v8.1h-3.7zm3.7 7.7c0.1 0 1.5 0 1.6 0q0.3 0 0.6 0 0.2 0 0.5-0.2 0.2 0 0.5 0 0.1-0.1 0.2-0.1 0.2-0.1 0.2-0.1 0.1-0.1 0.2-0.3 0.1-0.1 0.1-0.2 0.2 0 0.3-0.3 0-0.1 0-0.2 0.1-0.2 0.1-0.3 0-0.1 0-0.2 0-0.3 0-0.5-0.1-0.3-0.2-0.6-0.2-0.1-0.3-0.3-0.1-0.2-0.4-0.3-0.2-0.1-0.5-0.2-0.4 0-0.6-0.2-0.3 0-0.7 0-0.2 0-0.5 0h-1.1z"/>
	<path id="Layer" class="s2" d="m173.1 34.5h3.7v15.9h5.5v3.4h-9.2z"/>
	<path id="Layer" fill-rule="evenodd" class="s1" d="m179.8 32.7v-3.2c0.1 0 1.4 0 1.5 0q0.1 0 0.1 0 0.1 0 0.3 0 0.1 0.1 0.1 0.1 0.1 0 0.1 0 0.2 0 0.2 0.2 0 0 0.1 0 0 0.1 0 0.1 0 0.1 0.1 0.1 0 0 0 0.2 0 0 0 0.1 0 0.1 0 0.1 0 0.1 0 0.1 0 0.2 0 0.3 0 0-0.1 0.1 0 0 0 0.1-0.1 0-0.1 0.2-0.2 0-0.3 0 0 0.1-0.1 0.1-0.2 0-0.2 0 0.2 0.1 0.2 0.1 0 0 0.1 0.2 0.1 0.1 0.1 0.1 0.2 0.1 0.2 0.1 0 0.1 0.1 0.1 0 0.2 0 0.2l0.4 0.6h-0.8l-0.4-0.6q-0.1-0.2-0.1-0.2 0-0.1-0.1-0.1 0-0.1 0-0.1-0.2-0.1-0.2-0.1-0.1-0.2-0.1-0.2 0 0-0.1 0-0.1 0-0.1 0-0.2 0-0.2 0h-0.1v1.3zm0.6-1.8c0 0 0.5 0 0.7 0q0 0 0.1 0 0.1 0 0.1-0.1 0.2 0 0.2 0 0 0 0.1 0 0-0.1 0.1-0.1 0 0 0-0.2 0 0 0-0.1 0 0 0-0.1 0 0-0.1-0.1-0.1 0-0.1-0.2-0.2 0-0.6 0h-0.5z"/>
	<path id="Layer" fill-rule="evenodd" class="s1" d="m181 28.1c1.4 0 2.8 1 3.1 2.4 0.2 1.6-0.5 3-1.9 3.6-1.4 0.5-2.9 0.1-3.8-1.1-0.8-1.3-0.7-3 0.3-4q0.3-0.2 0.6-0.4 0.2-0.2 0.5-0.2 0.3-0.2 0.6-0.3 0.3 0 0.6 0zm1.7 1.4q-0.3-0.4-0.8-0.6-0.4-0.1-0.9-0.1-0.5 0-1 0.1-0.4 0.2-0.7 0.6c-0.7 0.7-0.9 1.7-0.6 2.7 0.4 0.9 1.3 1.4 2.3 1.4 0.9 0 1.8-0.5 2.2-1.4 0.4-1 0.3-2-0.5-2.7z"/>
</svg>