<?xml version="1.0" encoding="utf-8"?>
<!-- Generator: Adobe Illustrator 24.0.1, SVG Export Plug-In . SVG Version: 6.00 Build 0)  -->
<svg version="1.1" id="Layer_1" xmlns="http://www.w3.org/2000/svg" xmlns:xlink="http://www.w3.org/1999/xlink" x="0px" y="0px"
	 viewBox="0 0 285 285" style="enable-background:new 0 0 285 285;" xml:space="preserve">
<style type="text/css">
	.st0{fill:#1F1E1D;}
	.st1{fill:#0174BA;}
	.st2{fill-rule:evenodd;clip-rule:evenodd;fill:#0174BA;}
	.st3{fill-rule:evenodd;clip-rule:evenodd;fill:#C4E8FA;}
	.st4{fill:#373435;}
</style>
<title>KCPL-sgv</title>
<path class="st0" d="M210.9,142.7L210.9,142.7c-0.1,0-0.2,0-0.2,0c-0.1,0-0.2,0-0.3,0c-0.2,0-0.3,0-0.5,0.1
	c-0.2,0.1-0.3,0.2-0.4,0.3v2.2H209v-3h0.5v0.4c0.2-0.1,0.3-0.3,0.5-0.3c0.1-0.1,0.3-0.1,0.5-0.1c0.1,0,0.1,0,0.2,0c0,0,0.1,0,0.2,0
	L210.9,142.7z M207,143.4c0-0.2-0.1-0.4-0.2-0.6c-0.2-0.2-0.4-0.2-0.6-0.2c-0.2,0-0.5,0.1-0.7,0.2c-0.2,0.2-0.3,0.4-0.3,0.6H207z
	 M207.5,143.8h-2.2c0,0.2,0,0.3,0.1,0.5c0.1,0.1,0.1,0.2,0.2,0.3c0.1,0.1,0.2,0.2,0.3,0.2c0.1,0,0.3,0.1,0.4,0.1
	c0.2,0,0.4,0,0.6-0.1c0.2-0.1,0.3-0.1,0.4-0.2h0v0.6c-0.2,0.1-0.3,0.1-0.5,0.2c-0.2,0-0.4,0.1-0.6,0.1c-0.4,0-0.9-0.1-1.2-0.4
	c-0.3-0.3-0.5-0.7-0.4-1.2c0-0.4,0.1-0.9,0.4-1.2c0.3-0.3,0.7-0.5,1.1-0.4c0.4,0,0.7,0.1,0.9,0.4c0.2,0.3,0.4,0.6,0.3,1V143.8z
	 M203.5,145.2c-0.1,0-0.2,0-0.3,0.1c-0.1,0-0.2,0-0.3,0c-0.3,0-0.5-0.1-0.7-0.2c-0.2-0.2-0.3-0.5-0.2-0.8v-1.6h-0.3v-0.4h0.3v-0.9
	h0.5v0.9h1.1v0.4h-1.1v1.4c0,0.2,0,0.3,0,0.4c0,0.1,0,0.2,0.1,0.3c0,0.1,0.1,0.1,0.2,0.2c0.1,0,0.2,0.1,0.3,0.1c0.1,0,0.2,0,0.3,0
	c0.1,0,0.2,0,0.2-0.1h0V145.2z M200.6,145.2c-0.1,0-0.2,0-0.3,0.1c-0.1,0-0.2,0-0.3,0c-0.3,0-0.5-0.1-0.7-0.2
	c-0.2-0.2-0.3-0.5-0.2-0.8v-1.6h-0.3v-0.4h0.3v-0.9h0.5v0.9h1.1v0.4h-1.1v1.4c0,0.2,0,0.3,0,0.4c0,0.1,0,0.2,0.1,0.3
	c0,0.1,0.1,0.1,0.2,0.2c0.1,0,0.2,0.1,0.3,0.1c0.1,0,0.2,0,0.3,0c0.1,0,0.2,0,0.2-0.1h0V145.2z M196.9,143.4c0-0.2-0.1-0.4-0.2-0.6
	c-0.2-0.2-0.4-0.2-0.6-0.2c-0.2,0-0.5,0.1-0.7,0.2c-0.2,0.2-0.3,0.4-0.3,0.6H196.9z M197.4,143.8h-2.2c0,0.2,0,0.3,0.1,0.5
	c0,0.1,0.1,0.2,0.2,0.3c0.1,0.1,0.2,0.2,0.3,0.2c0.1,0,0.3,0.1,0.4,0.1c0.2,0,0.4,0,0.6-0.1c0.2-0.1,0.3-0.1,0.4-0.2h0v0.6
	c-0.2,0.1-0.3,0.1-0.5,0.2c-0.2,0-0.4,0.1-0.6,0.1c-0.4,0-0.9-0.1-1.2-0.4c-0.3-0.3-0.5-0.7-0.4-1.2c0-0.4,0.1-0.9,0.4-1.2
	c0.3-0.3,0.7-0.5,1.1-0.4c0.4,0,0.7,0.1,0.9,0.4c0.2,0.3,0.4,0.6,0.3,1L197.4,143.8z M192.8,143.7c0-0.3,0-0.6-0.2-0.8
	c-0.1-0.2-0.3-0.3-0.6-0.3c-0.2,0-0.3,0-0.5,0.1c-0.2,0.1-0.3,0.1-0.4,0.2v1.7c0.1,0.1,0.2,0.1,0.4,0.1c0.1,0,0.2,0,0.4,0
	c0.3,0,0.5-0.1,0.7-0.3C192.7,144.3,192.8,144,192.8,143.7L192.8,143.7z M193.3,143.7c0,0.2,0,0.5-0.1,0.7c-0.1,0.2-0.2,0.4-0.3,0.5
	c-0.1,0.1-0.3,0.2-0.4,0.3c-0.2,0.1-0.3,0.1-0.5,0.1c-0.2,0-0.3,0-0.5-0.1c-0.1,0-0.3-0.1-0.4-0.2l0,0.1h-0.5V141h0.5v1.5
	c0.1-0.1,0.3-0.2,0.5-0.3c0.2-0.1,0.4-0.1,0.5-0.1c0.3,0,0.7,0.1,0.9,0.4C193.2,142.9,193.3,143.3,193.3,143.7L193.3,143.7z
	 M187.2,144.3c0,0.3-0.1,0.5-0.3,0.7c-0.3,0.2-0.6,0.3-0.9,0.3c-0.2,0-0.4,0-0.6-0.1c-0.2,0-0.3-0.1-0.5-0.2v-0.6h0
	c0.2,0.1,0.3,0.2,0.5,0.3c0.2,0.1,0.4,0.1,0.6,0.1c0.2,0,0.4,0,0.5-0.1c0.1-0.1,0.2-0.2,0.2-0.3c0-0.1,0-0.2-0.1-0.3
	c-0.1-0.1-0.3-0.1-0.4-0.2c-0.1,0-0.2,0-0.3-0.1c-0.1,0-0.2,0-0.3-0.1c-0.2,0-0.4-0.2-0.6-0.3c-0.1-0.1-0.2-0.3-0.2-0.5
	c0-0.1,0-0.2,0.1-0.4c0.1-0.1,0.1-0.2,0.2-0.3c0.1-0.1,0.2-0.2,0.4-0.2c0.2-0.1,0.3-0.1,0.5-0.1c0.2,0,0.4,0,0.6,0.1
	c0.2,0,0.3,0.1,0.5,0.2v0.5h0c-0.1-0.1-0.3-0.2-0.5-0.2c-0.2-0.1-0.4-0.1-0.5-0.1c-0.2,0-0.3,0-0.5,0.1c-0.2,0.1-0.2,0.3-0.1,0.5
	c0,0,0,0.1,0.1,0.1c0.1,0.1,0.2,0.1,0.4,0.2c0.1,0,0.2,0,0.3,0.1c0.1,0,0.2,0,0.3,0.1c0.2,0,0.4,0.1,0.6,0.3
	C187.1,144,187.2,144.1,187.2,144.3L187.2,144.3z M182.7,144.4v-1.7c-0.1-0.1-0.2-0.1-0.4-0.1c-0.1,0-0.2,0-0.3,0
	c-0.3,0-0.5,0.1-0.7,0.3c-0.2,0.2-0.3,0.5-0.2,0.8c0,0.3,0,0.5,0.2,0.8c0.1,0.2,0.4,0.3,0.6,0.3c0.2,0,0.3,0,0.4-0.1
	C182.4,144.6,182.6,144.5,182.7,144.4L182.7,144.4z M183.2,144.9c0,0.4-0.1,0.8-0.4,1.1c-0.3,0.3-0.7,0.4-1.1,0.4
	c-0.2,0-0.3,0-0.5,0c-0.2,0-0.3-0.1-0.5-0.1v-0.5h0c0.1,0,0.3,0.1,0.4,0.1c0.2,0,0.4,0.1,0.5,0.1c0.1,0,0.3,0,0.4-0.1
	c0.1,0,0.2-0.1,0.3-0.2c0.1-0.1,0.1-0.2,0.1-0.3c0-0.1,0-0.2,0-0.3v-0.3c-0.1,0.1-0.3,0.2-0.4,0.3c-0.2,0.1-0.4,0.1-0.5,0.1
	c-0.3,0-0.7-0.1-0.9-0.4c-0.2-0.3-0.3-0.7-0.3-1.1c0-0.2,0-0.5,0.1-0.7c0.1-0.2,0.2-0.3,0.3-0.5c0.1-0.1,0.3-0.2,0.4-0.3
	c0.2-0.1,0.3-0.1,0.5-0.1c0.1,0,0.3,0,0.4,0.1c0.1,0,0.3,0.1,0.4,0.2l0-0.1h0.5L183.2,144.9z M179,145.2h-0.5v-1.7
	c0-0.1,0-0.3,0-0.4c0-0.1,0-0.2-0.1-0.3c0-0.1-0.1-0.1-0.2-0.2c-0.1,0-0.2-0.1-0.3-0.1c-0.2,0-0.3,0-0.4,0.1
	c-0.2,0.1-0.3,0.2-0.4,0.3v2.3h-0.5v-3h0.5v0.3c0.1-0.1,0.3-0.2,0.5-0.3c0.2-0.1,0.3-0.1,0.5-0.1c0.3,0,0.6,0.1,0.8,0.3
	c0.2,0.2,0.3,0.5,0.3,0.9L179,145.2z M174.7,145.2h-0.5v-3h0.5L174.7,145.2z M174.7,141.7h-0.6v-0.5h0.6V141.7z M172.4,145.2h-0.5
	v-1.7c0-0.1,0-0.3,0-0.4c0-0.1,0-0.2-0.1-0.3c0-0.1-0.1-0.1-0.2-0.2c-0.1,0-0.2-0.1-0.3-0.1c-0.2,0-0.3,0-0.4,0.1
	c-0.2,0.1-0.3,0.2-0.4,0.3v2.3h-0.5V141h0.5v1.5c0.1-0.1,0.3-0.2,0.5-0.3c0.2-0.1,0.3-0.1,0.5-0.1c0.3,0,0.6,0.1,0.8,0.3
	c0.2,0.2,0.3,0.5,0.3,0.9L172.4,145.2z M168.5,145.2c-0.1,0-0.2,0-0.3,0.1c-0.1,0-0.2,0-0.3,0c-0.3,0-0.5-0.1-0.7-0.2
	c-0.2-0.2-0.3-0.5-0.2-0.8v-1.6h-0.3v-0.4h0.3v-0.9h0.5v0.9h1.1v0.4h-1.1v1.4c0,0.2,0,0.3,0,0.4c0,0.1,0,0.2,0.1,0.3
	c0,0.1,0.1,0.1,0.2,0.2c0.1,0,0.2,0.1,0.3,0.1c0.1,0,0.2,0,0.3,0c0.1,0,0.2,0,0.2-0.1h0L168.5,145.2z M162.9,143.4
	c0-0.2-0.1-0.4-0.2-0.6c-0.2-0.2-0.4-0.2-0.6-0.2c-0.2,0-0.5,0.1-0.7,0.2c-0.2,0.2-0.3,0.4-0.3,0.6H162.9z M163.4,143.8h-2.2
	c0,0.2,0,0.3,0.1,0.5c0,0.1,0.1,0.2,0.2,0.3c0.1,0.1,0.2,0.2,0.3,0.2c0.1,0,0.3,0.1,0.4,0.1c0.2,0,0.4,0,0.6-0.1
	c0.2-0.1,0.3-0.1,0.4-0.2h0v0.6c-0.2,0.1-0.3,0.1-0.5,0.2c-0.2,0-0.4,0.1-0.6,0.1c-0.4,0-0.9-0.1-1.2-0.4c-0.3-0.3-0.5-0.7-0.4-1.2
	c0-0.4,0.1-0.9,0.4-1.2c0.3-0.3,0.7-0.5,1.1-0.4c0.4,0,0.7,0.1,0.9,0.4c0.2,0.3,0.4,0.6,0.3,1L163.4,143.8z M159.6,145.2h-0.7
	l-1.2-1.3l-0.3,0.3v1h-0.5V141h0.5v2.7l1.5-1.5h0.6l-1.4,1.4L159.6,145.2z M154.5,144.5v-0.8c-0.2,0-0.3,0-0.6,0
	c-0.2,0-0.3,0-0.5,0.1c-0.1,0-0.3,0.1-0.4,0.2c-0.2,0.2-0.2,0.5,0,0.8c0.1,0.1,0.3,0.1,0.5,0.1c0.2,0,0.3,0,0.5-0.1
	C154.3,144.7,154.4,144.6,154.5,144.5L154.5,144.5z M155,145.2h-0.5v-0.3c0,0-0.1,0.1-0.2,0.1c-0.1,0.1-0.1,0.1-0.2,0.1
	c-0.1,0-0.2,0.1-0.3,0.1c-0.1,0-0.3,0-0.4,0c-0.3,0-0.5-0.1-0.7-0.3c-0.2-0.2-0.3-0.4-0.3-0.7c0-0.2,0-0.4,0.1-0.6
	c0.1-0.1,0.3-0.3,0.4-0.3c0.2-0.1,0.4-0.1,0.7-0.2c0.3,0,0.5-0.1,0.8-0.1v-0.1c0-0.1,0-0.2-0.1-0.3c0-0.1-0.1-0.1-0.2-0.2
	c-0.1,0-0.2-0.1-0.3-0.1c-0.1,0-0.2,0-0.3,0c-0.2,0-0.3,0-0.4,0.1c-0.2,0-0.3,0.1-0.5,0.2h0v-0.5c0.1,0,0.2-0.1,0.4-0.1
	c0.2,0,0.4,0,0.6,0c0.2,0,0.4,0,0.6,0.1c0.1,0,0.3,0.1,0.4,0.2c0.1,0.1,0.2,0.2,0.3,0.3c0.1,0.2,0.1,0.3,0.1,0.5L155,145.2z
	 M150.9,145.2h-0.5v-1.7c0-0.1,0-0.3,0-0.4c0-0.1,0-0.2-0.1-0.3c0-0.1-0.1-0.1-0.2-0.2c-0.1,0-0.2-0.1-0.3-0.1c-0.1,0-0.3,0-0.4,0.1
	c-0.2,0.1-0.3,0.2-0.4,0.3c0,0,0,0.1,0,0.1c0,0.1,0,0.1,0,0.2v1.9h-0.5v-1.7c0-0.1,0-0.3,0-0.4c0-0.1,0-0.2-0.1-0.3
	c0-0.1-0.1-0.1-0.2-0.2c-0.1,0-0.2-0.1-0.3-0.1c-0.1,0-0.3,0-0.4,0.1c-0.1,0.1-0.3,0.2-0.4,0.3v2.3h-0.5v-3h0.5v0.3
	c0.1-0.1,0.3-0.2,0.5-0.3c0.2-0.1,0.3-0.1,0.5-0.1c0.2,0,0.4,0,0.5,0.1c0.1,0.1,0.3,0.2,0.3,0.4c0.2-0.2,0.4-0.3,0.6-0.4
	c0.2-0.1,0.4-0.1,0.5-0.1c0.3,0,0.6,0.1,0.7,0.3c0.2,0.2,0.3,0.5,0.2,0.8L150.9,145.2z"/>
<polygon class="st1" points="146.6,124.7 149.6,124.7 149.6,129.9 153.7,124.7 157.2,124.7 151.9,131.5 157.7,140 154.3,140 
	149.6,133.2 149.6,140 146.6,140 "/>
<path class="st1" d="M179.7,127l-2,1.9c-1.2-1.4-2.9-2.2-4.7-2.2c-2.8,0-5.2,2.2-5.2,5c0,0,0,0.1,0,0.1c0,0.9,0.2,1.9,0.7,2.7
	c0.4,0.8,1.1,1.4,1.9,1.9c0.8,0.5,1.8,0.7,2.7,0.7c0.8,0,1.6-0.2,2.3-0.5c0.9-0.4,1.6-1,2.3-1.7l2,2.1c-0.9,1-2,1.7-3.2,2.3
	c-1.1,0.4-2.3,0.7-3.4,0.6c-2.2,0.1-4.3-0.7-5.8-2.3c-2.5-2.7-3-6.6-1.2-9.9c0.7-1.2,1.7-2.2,3-2.9c1.3-0.7,2.7-1.1,4.1-1.1
	C175.6,123.9,178,125,179.7,127"/>
<path class="st1" d="M190.5,130h0.9c0.5,0,1,0,1.5-0.2c0.3-0.1,0.5-0.3,0.7-0.5c0.2-0.3,0.3-0.6,0.2-0.9c0-0.5-0.2-1-0.7-1.3
	c-0.6-0.2-1.2-0.4-1.9-0.3h-0.8L190.5,130z M187.6,124.1h3.1c1.2-0.1,2.4,0.1,3.6,0.5c0.7,0.3,1.3,0.8,1.7,1.5
	c0.4,0.7,0.7,1.6,0.6,2.5c0,1-0.3,1.9-0.8,2.7c-0.6,0.7-1.4,1.2-2.3,1.5c-1,0.2-2,0.3-3.1,0.2v6.5h-2.9L187.6,124.1z"/>
<polygon class="st1" points="204.6,124.1 207.5,124.1 207.5,136.6 211.8,136.6 211.8,139.3 204.6,139.3 "/>
<path class="st2" d="M129.4,176.1c1.5,4,3,6.4,4.5,6.6c0.6-1.5,1.7-2.8,3-3.8C134.5,178.1,132,177.1,129.4,176.1"/>
<path class="st2" d="M127.7,170.2c0.4,1.2,0.7,2.3,1.1,3.3c3.6,1.4,7,2.7,10.2,3.6c1.5-0.9,2.7-1.4,2.2-1.3
	c-2.4,0.6-4.4-0.5-6.2-2.7C132.7,172.2,130.2,171.3,127.7,170.2"/>
<path class="st3" d="M128.3,141.6c24.9,13.3,41.9,30.1,37.9,37.5c-4,7.4-27.4,2.6-52.3-10.7c-24.9-13.3-41.9-30.1-37.9-37.5
	c3.4-6.3,20.9-3.8,41.5,5.4c0.1,0.3,0.2,0.6,0.4,0.9c-13.3-5.2-33.2-11.2-37.1-3.8c-3.6,6.6,11.7,21.7,34,33.6
	c22.3,11.9,43.3,16.2,46.8,9.6c1.9-3.6-1.7-9.8-9.1-16.6c-4.2-5.4-12.8-12.2-23.6-17.9c-1.4-0.7-3.9-1.9-7-3.3
	c-0.1-0.2-0.2-0.5-0.3-0.7C123.8,139.3,126,140.4,128.3,141.6"/>
<path class="st2" d="M152.7,150.1c-0.7,0.2-1,0.9-0.8,1.6s0.9,1,1.6,0.8c0.6-0.2,1-0.9,0.8-1.5C154.1,150.3,153.4,149.9,152.7,150.1
	C152.7,150.1,152.7,150.1,152.7,150.1"/>
<path class="st2" d="M120.1,143.2c2.2,6.3,4.1,12.7,5.8,18.4c1.8,0.8,3.5,1.5,5.2,2.2c-1.7-4.3-3.4-9.4-5.3-14.7
	c-0.5-1.3-0.9-2.6-1.4-3.8C122.9,144.5,121.4,143.8,120.1,143.2 M111.1,123c3.6,6.3,6.5,13,8.8,19.9c1.4,0.7,2.8,1.4,4.3,2.1
	c-3.8-10.3-7.6-17.9-11.2-23.5C112.3,122,111.7,122.5,111.1,123z"/>
<path class="st2" d="M90.6,107.3c7.8,0.2,13.9,5.5,18.9,13.2c0.5-0.5,1.1-1.1,1.7-1.6C103.4,108,96.4,106.3,90.6,107.3"/>
<path class="st2" d="M164.6,163.6c-0.9-5-4.9-8.5-10.4-10.9c0.2-0.4,0.4-0.9,0.6-1.4C162.8,155.3,164.6,159.7,164.6,163.6"/>
<path class="st2" d="M139.1,115.3c-0.7,0.2-1,0.9-0.8,1.6c0.2,0.7,0.9,1,1.6,0.8c0.6-0.2,1-0.9,0.8-1.5
	C140.5,115.5,139.8,115.1,139.1,115.3C139.1,115.3,139.1,115.3,139.1,115.3"/>
<path class="st2" d="M129.3,165.4c-0.7,0.2-1.1,1-0.9,1.8c0.2,0.7,1,1.1,1.8,0.9c0.7-0.2,1.1-1,0.9-1.7
	C130.9,165.6,130.1,165.1,129.3,165.4C129.4,165.4,129.3,165.4,129.3,165.4 M151.1,167.9c-0.7,0.2-1.1,0.9-0.8,1.6s0.9,1.1,1.6,0.8
	c0.7-0.2,1-0.9,0.9-1.6C152.5,168.1,151.8,167.7,151.1,167.9C151.1,167.9,151.1,167.9,151.1,167.9L151.1,167.9z M101.2,148.9
	c-0.8,0.2-1.2,1.1-0.9,1.8c0.2,0.8,1.1,1.2,1.8,0.9c0.7-0.2,1.2-1,1-1.8C102.8,149.2,102,148.7,101.2,148.9
	C101.2,148.9,101.2,148.9,101.2,148.9L101.2,148.9z M90.4,135.6c-0.7,0.2-1,0.9-0.8,1.6c0.2,0.7,0.9,1,1.6,0.8
	c0.6-0.2,1-0.9,0.8-1.5C91.8,135.8,91.1,135.4,90.4,135.6C90.4,135.6,90.4,135.6,90.4,135.6z M126.7,146.5
	c19.7,10.7,33.5,23.1,30.8,28.1c-2.7,5-21.2,0.3-41.3-10.4c-20.1-10.7-34-24-31.6-28.5s14.4-1.9,29.7,4.8c-0.1,0.1-0.2,0.3-0.2,0.4
	c-8.5-3.2-14.6-4.2-16-1.5c-1.4,2.7,5.6,10,16.6,16.6c-0.2,0.5-0.1,1.1,0.1,1.6c0.7-0.2,1.5-0.3,2.3-0.2c0.9,0.5,1.7,1,2.6,1.4
	c13.8,7.3,26.4,10.5,28.2,7.1c1.8-3.4-14.6-15.8-21.5-19.4s-0.1,0-0.1-0.1L126.7,146.5z"/>
<path class="st2" d="M111,119.6c-0.7,0.2-1,0.9-0.8,1.6c0.2,0.7,0.9,1,1.6,0.8c0.6-0.2,1-0.9,0.8-1.5
	C112.4,119.8,111.7,119.4,111,119.6C111,119.6,111,119.6,111,119.6"/>
<path class="st2" d="M129.4,165.7c-0.6,0.2-0.9,0.8-0.7,1.4s0.8,0.9,1.4,0.7c0.6-0.2,0.9-0.8,0.7-1.3
	C130.7,165.8,130,165.5,129.4,165.7C129.4,165.7,129.4,165.7,129.4,165.7"/>
<path class="st2" d="M138,117.7c-6.9,16.8-25.2,35.5-22.7,39.1c3-1,7.5,1.7,6.9,1.2c-4.2-3.2,1.6-11.4,7.8-21.2
	c3.9-5.8,7.1-12,9.7-18.5C139.1,118.1,138.5,117.9,138,117.7"/>
<path class="st2" d="M138,98.7c3.3,4.4,3.1,10.1,1.2,16.1c0.5,0.2,1,0.4,1.5,0.6C143.4,106.2,141.2,101.5,138,98.7"/>
<path class="st2" d="M150.9,151.4c-15.1-5.4-37.4-5-38.3-8.7c2.5-1.3,3.5-5.9,3.4-5.2c-0.5,4.7,8.4,5.9,18.5,7.8
	c5.8,1,11.5,2.6,17.1,4.6C151.4,150.4,151.2,150.9,150.9,151.4"/>
<path class="st2" d="M151.1,168.2c-0.5,0.2-0.8,0.7-0.6,1.2c0.2,0.5,0.7,0.8,1.2,0.6c0.5-0.2,0.8-0.7,0.6-1.2
	C152.2,168.3,151.7,168,151.1,168.2C151.1,168.2,151.1,168.2,151.1,168.2"/>
<path class="st2" d="M101.3,149.3c-0.6,0.2-0.9,0.8-0.7,1.4c0.2,0.6,0.8,0.9,1.4,0.7c0.6-0.2,0.9-0.8,0.7-1.3
	C102.5,149.5,101.9,149.1,101.3,149.3C101.3,149.3,101.3,149.3,101.3,149.3"/>
<path class="st2" d="M90.5,135.9c-0.5,0.2-0.8,0.7-0.6,1.2c0.2,0.5,0.7,0.8,1.2,0.6c0.5-0.2,0.8-0.7,0.6-1.2
	C91.6,136.1,91,135.8,90.5,135.9C90.5,135.9,90.5,135.9,90.5,135.9"/>
<polygon class="st1" points="146.6,124.7 149.6,124.7 149.6,129.9 153.7,124.7 157.2,124.7 151.9,131.5 157.7,140 154.3,140 
	149.6,133.2 149.6,140 146.6,140 "/>
<path class="st1" d="M179.7,127l-2,1.9c-1.2-1.4-2.9-2.2-4.7-2.2c-2.8,0-5.2,2.2-5.2,5c0,0,0,0.1,0,0.1c0,0.9,0.2,1.9,0.7,2.7
	c0.4,0.8,1.1,1.4,1.9,1.9c0.8,0.5,1.8,0.7,2.7,0.7c0.8,0,1.6-0.2,2.3-0.5c0.9-0.4,1.6-1,2.3-1.7l2,2.1c-0.9,1-2,1.7-3.2,2.3
	c-1.1,0.4-2.3,0.7-3.4,0.6c-2.2,0.1-4.3-0.7-5.8-2.3c-2.5-2.7-3-6.6-1.2-9.9c0.7-1.2,1.7-2.2,3-2.9c1.3-0.7,2.7-1.1,4.1-1.1
	C175.6,123.9,178,125,179.7,127"/>
<path class="st1" d="M190.5,130h0.9c0.5,0,1,0,1.5-0.2c0.3-0.1,0.5-0.3,0.7-0.5c0.2-0.3,0.3-0.6,0.2-0.9c0-0.5-0.2-1-0.7-1.3
	c-0.6-0.2-1.2-0.4-1.9-0.3h-0.8L190.5,130z M187.6,124.1h3.1c1.2-0.1,2.4,0.1,3.6,0.5c0.7,0.3,1.3,0.8,1.7,1.5
	c0.4,0.7,0.7,1.6,0.6,2.5c0,1-0.3,1.9-0.8,2.7c-0.6,0.7-1.4,1.2-2.3,1.5c-1,0.2-2,0.3-3.1,0.2v6.5h-2.9L187.6,124.1z"/>
<polygon class="st1" points="204.6,124.1 207.5,124.1 207.5,136.6 211.8,136.6 211.8,139.3 204.6,139.3 "/>
<path class="st4" d="M210.3,121.3h0.4c0.2,0,0.3,0,0.5,0c0.1,0,0.1-0.1,0.1-0.1c0-0.1,0.1-0.1,0.1-0.2c0-0.1,0-0.1-0.1-0.2
	c0-0.1-0.1-0.1-0.2-0.1c0,0-0.2,0-0.4,0h-0.4L210.3,121.3z M209.8,122.7v-2.5h1.1c0.2,0,0.4,0,0.6,0.1c0.1,0,0.2,0.1,0.3,0.2
	c0.1,0.1,0.1,0.3,0.1,0.4c0,0.2-0.1,0.3-0.2,0.5c-0.1,0.1-0.3,0.2-0.5,0.2c0.1,0.1,0.2,0.1,0.3,0.2c0.1,0.1,0.2,0.3,0.3,0.4l0.3,0.5
	h-0.6l-0.4-0.5c-0.1-0.1-0.2-0.3-0.3-0.4c0,0-0.1-0.1-0.2-0.1c-0.1,0-0.2,0-0.3,0h-0.1v1H209.8z"/>
<path class="st4" d="M212.1,120.2c-0.8-0.8-2-0.8-2.7,0l0,0c-0.8,0.8-0.8,2,0,2.7s2,0.8,2.7,0C212.9,122.1,212.9,120.9,212.1,120.2
	 M210.8,119.1c1.4,0,2.5,1.1,2.5,2.5c0,1.4-1.1,2.5-2.5,2.5s-2.5-1.1-2.5-2.5c0-0.7,0.3-1.3,0.7-1.7l0,0
	C209.5,119.3,210.1,119.1,210.8,119.1z"/>
</svg>
