<svg version="1.2" xmlns="http://www.w3.org/2000/svg" viewBox="0 0 512 512" width="60" height="60">
	<title>mail (1)</title>
	<style>
		.s0 { fill: #0474bb } 
	</style>
	<path id="Path 0" fill-rule="evenodd" class="s0" d="m254.5 0.1c15.3-0.1 23.2 0.4 33.8 1.9 7.5 1.1 17.6 2.9 22.5 4 4.8 1 12.5 3 17.2 4.4 4.7 1.3 12.6 3.9 17.5 5.7 4.9 1.8 16.2 6.9 25 11.3 8.8 4.5 20.5 11.1 26 14.8 5.5 3.6 14.7 10.4 20.5 15.1 5.8 4.6 15.9 14 22.5 20.8 6.6 6.8 15.9 17.6 20.6 23.9 4.7 6.3 10.7 14.9 13.3 19 2.6 4.1 8 14 12 22 4 8 9.1 19.9 11.5 26.5 2.3 6.6 5.5 17.2 7.1 23.5 1.6 6.3 3.4 14.2 3.9 17.5 0.6 3.3 1.8 10.9 2.6 17 0.9 6.3 1.5 18.3 1.5 28 0 9.4-0.7 22.1-1.5 28.5-0.8 6.3-2 14.2-2.6 17.5-0.5 3.3-2.3 11.2-3.9 17.5-1.6 6.3-4.8 16.9-7.1 23.5-2.4 6.6-7.5 18.5-11.5 26.5-4 8-9.4 17.9-12 22-2.6 4.1-8.6 12.7-13.3 19-4.7 6.3-14 17.1-20.6 23.9-6.6 6.8-16.7 16.2-22.5 20.8-5.8 4.7-15 11.5-20.5 15.1-5.5 3.7-17.2 10.3-26 14.8-8.8 4.4-21.4 10-28 12.3-6.6 2.3-17.2 5.5-23.5 7.1-6.3 1.6-14.2 3.3-17.5 3.9-3.3 0.6-10.7 1.7-16.5 2.6-6.5 0.9-17.6 1.5-29 1.5-13.6 0-22.3-0.6-33-2.1-8-1.2-21.2-3.8-29.5-5.9-8.2-2.1-19.5-5.4-25-7.4-5.5-2.1-16.7-7-25-11.1-8.2-4-18.4-9.5-22.5-12.1-4.1-2.6-12.7-8.6-19-13.3-6.8-5-17.7-14.7-26.6-23.5-8.8-8.9-18.5-19.8-23.5-26.6-4.7-6.3-10.7-14.9-13.3-19-2.6-4.1-8.3-14.7-12.6-23.5-4.4-8.8-9.9-22.1-12.4-29.5-2.5-7.4-5.7-18.4-7-24.5-1.4-6.1-3.4-17.4-4.5-25.3-1.5-9.9-2.1-19.4-2.1-31.4 0-9.8 0.7-22.5 1.5-29.3 0.9-6.6 2.7-17.6 4.1-24.5 1.4-6.9 4.8-19.3 7.5-27.5 3-9 8.3-21.8 13.3-32 4.7-9.3 11.9-22.2 16.3-28.7 4.3-6.4 11.5-16 15.9-21.5 4.5-5.4 13.5-15 20.1-21.3 6.5-6.3 17-15.4 23.3-20.1 6.3-4.7 15.2-10.9 19.8-13.8 4.5-2.8 13.1-7.6 19.2-10.6 6.1-3 15.5-7.3 21-9.5 5.5-2.2 15.1-5.5 21.3-7.4 6.1-1.8 16.1-4.3 22.2-5.5 6.1-1.2 15.1-2.7 20-3.5 4.9-0.7 18-1.4 29-1.5zm-132.4 155.5c-2.9 1.6-6.6 4.5-8.1 6.4-1.5 1.9-3.6 5.1-4.6 7-1.8 3.4-1.9 7.1-1.9 87v83.5c3.5 6.6 6.2 10.2 8.3 12.3 2.1 2 6.1 4.8 8.8 6.2l4.9 2.5c235.8 0.5 248.5 0.4 253.5-1.1 3-0.9 7.3-2.8 9.5-4.4 2.2-1.5 5.5-4.9 7.3-7.6 1.8-2.7 3.7-6.5 4.2-8.4 0.6-2.1 0.9-35.2 0.7-85l-0.2-81.5c-3.5-6.6-6.2-10.2-8.2-12.3-2.1-2-6-4.8-8.8-6.2l-5-2.5c-193-0.2-250.3 0-252 0.4-1.7 0.4-5.4 2-8.4 3.7zm133.9 19.4c57.2 0 104.2 0.3 104.4 0.8 0.2 0.4-23 21.4-51.6 46.7-28.6 25.3-52.3 46-52.8 46-0.4 0-24.1-20.7-52.7-46-28.6-25.3-51.8-46.3-51.6-46.7 0.2-0.5 47.2-0.8 104.3-0.8zm-125.3 16c0.5 0 7.8 6.2 16.4 13.7 8.5 7.6 26.4 23.5 39.7 35.3 13.3 11.8 24.1 21.5 24 21.6-0.2 0.1-17.7 13.7-39.1 30.3-21.3 16.5-39.4 30.3-40.2 30.6-1.3 0.4-1.5-7.3-1.5-65.5 0-36.3 0.3-66 0.8-66zm250.4 0c0.5 0 0.8 29.7 0.8 66 0 58.2-0.2 65.9-1.5 65.5-0.8-0.3-18.9-14.1-40.3-30.6-21.3-16.6-38.8-30.2-38.9-30.3-0.2-0.1 17.6-16 39.4-35.3 21.9-19.4 40.1-35.3 40.5-35.3zm-152 87c0.5 0 5 3.8 10 8.3 5.1 4.6 10.3 8.9 11.5 9.5 1.3 0.7 3.6 1.2 5.3 1.2 1.6 0 4-0.5 5.2-1.2 1.3-0.6 6.6-4.9 11.8-9.5 5.2-4.6 9.7-8.4 10-8.3 0.3 0 16.9 12.8 37 28.4 20.1 15.7 36.6 29 36.7 29.5 0.2 0.8-30.1 1.1-100.7 1.1-69.7 0-100.9-0.3-100.8-1 0.2-0.6 16.7-13.9 36.8-29.5 20.1-15.7 36.8-28.5 37.2-28.5z"/>
</svg>