<svg version="1.2" xmlns="http://www.w3.org/2000/svg" viewBox="0 0 512 512" width="20" height="20">
	<title>4213179</title>
	<style>
		.s0 { fill: #3c75ff } 
		.s1 { fill: #446cff } 
		.s2 { opacity: 1;fill: #347fff } 
		.s3 { fill: #1e9aff } 
		.s4 { fill: #13a7ff } 
		.s5 { fill: #4d61ff } 
		.s6 { opacity: 1;fill: #09b4ff } 
		.s7 { fill: #298cff } 
		.s8 { opacity: .3;fill: #4071ff } 
		.s9 { opacity: .7;fill: #416fff } 
		.s10 { opacity: .3;fill: #11aaff } 
	</style>
	<g id="Background">
		<path id="Path 1" class="s0" d="m232.1 363.7c-0.8 0.2-1.4 1.3-1.3 2.4 0.2 1.5-0.4 1.9-3.2 1.9-1.9 0-4.1 0.6-4.8 1.4-0.7 0.7-3.7 1.5-6.6 1.7-2.8 0.2-5.2 0.1-5.2-0.3 0-0.5-0.7-0.8-1.5-0.8-0.8 0-1.6-0.5-1.7-1-0.2-0.7-3.8-0.5-10.3 0.4-5.5 0.8-11.3 1.7-13 2.1-1.6 0.3-4 0.8-5.2 1.1-1.5 0.2-2.3 1.1-2.3 2.4 0 1.4-0.7 2-2.2 2-1.3 0-3.3 0.2-4.5 0.5-1.7 0.4-2.3 0-2.3-1.2 0-1.6-0.6-1.7-4.5-1-2.8 0.4-4.5 0.3-4.5-0.3 0-0.5 2.1-1.1 4.8-1.3l4.7-0.3c-7.8-0.3-9.5-0.8-9.5-1.6 0-0.9-2.4-1.6-6.7-2-3.8-0.5-8.7-0.8-11-0.8-2.4 0-5.2 0.6-6.3 1.3-1.7 1-2.2 0.9-2.8-0.1-0.5-1-1.6-1.1-4.7-0.3-2.2 0.5-4.3 0.8-4.7 0.6-0.5-0.3-2.5 0.2-4.5 1-2.1 0.9-4 1.1-4.3 0.6-0.3-0.5-1.6-0.4-3 0.1-2.4 0.9-1.7 1.7 17.5 20.4 11 10.7 20.1 19.2 20.3 18.9 0.1-0.3 1.9 1.4 4.1 3.8l3.8 4.2c9.5-5 13.2-6.5 14.3-6.5 1.1 0 4.8-0.9 8.3-2.1 4-1.3 6.3-1.7 6.5-1 0.1 0.6 0.8 0.8 1.5 0.5 0.6-0.4 46.2-0.6 101.2-0.6 55 0.1 104.9-0.2 110.8-0.6 6.4-0.4 11-1.2 11.5-1.9 0.4-0.6 2.5-1.4 4.7-1.6 2.2-0.3 5-0.8 6.3-1.1 1.2-0.3 2.2-0.8 2.2-1.1 0-0.3-1.3-2.4-2.9-4.7-1.6-2.4-4.2-5.5-5.8-7-1.5-1.5-11.6-8.6-22.3-15.8-10.7-7.1-20.3-13-21.2-13-1 0-2.7 0.5-3.8 1-1.1 0.6-2 1.7-2 2.5 0 0.8-1 1.7-2.2 2-1.3 0.3-3.3 0.5-4.5 0.5-1.3 0-2.3 0.5-2.3 1 0 0.6-2.3 0.9-5.5 0.8-3.1-0.2-5.9-0.8-6.3-1.5-0.5-0.8-7.9-1.1-25.7-1.1-13.7 0-29.7-0.6-35.5-1.2-5.8-0.7-11.5-1.6-12.7-2.1-1.3-0.5-2.7-0.9-3.3-0.9-0.6 0-1 1.4-1 3v3c-7-3.1-9.2-3.7-9.5-3.2-0.2 0.4-1.1 0.1-2-0.5-1.1-0.9-2.1-1-3.5-0.3-1.5 0.7-3.6 0.5-8-1-3.3-1.1-7-2-8.2-1.9-1.3 0-3 0.3-3.7 0.6z"/>
		<path id="Path 2" class="s1" d="m420.8 404.7c-0.3 0.4-2.3 0.8-4.5 1.1-2.2 0.2-4.5 0.8-5.1 1.4-0.5 0.6-5.9 1.5-11.8 1.9-6 0.5-55.9 0.8-110.9 0.7-55 0-100.6 0.2-101.3 0.6-0.6 0.3-1.3 0.1-1.5-0.5-0.1-0.7-2.4-0.3-6.5 1-3.4 1.2-7.1 2.1-8.2 2.1-1.1 0-4.7 1.4-8 3l-6 3c7.4 6.4 13.8 11.8 19 16 5.2 4.2 14.7 11.5 21 16.3 6.3 4.8 11.9 8.6 12.5 8.6 0.6 0 1.5-0.7 2.2-1.7 0.8-1 1.2-1.2 1.3-0.4 0 0.8 1 0.5 2.7-0.9 1.6-1.1 3.9-2.2 5.3-2.4 1.4-0.3 5.6-0.9 9.5-1.4 4.2-0.6 39.6-1 87-1.1 73.3 0 80.5 0.2 85.4 1.8 2.9 0.9 6.2 2.6 7.3 3.7 2 2 2 2 6.4-2.5 2.4-2.5 5.6-6.7 7.1-9.5 1.4-2.7 3.2-7.2 4-10 0.7-2.7 1.3-7.9 1.3-11.5 0-3.7-0.8-9.4-2-13.2-1.5-5.2-2.4-6.8-3.8-6.8-1 0-2.1 0.3-2.4 0.7z"/>
		<path id="Path 3" class="s2" d="m164.5 311c-0.3 0.6-1.6 1-3 1-2.1 0-2.5 0.5-2.8 3.3-0.2 2.9-0.5 3.2-3.7 3.5-2 0.2-4.3 1-5.3 1.8-0.9 0.8-1.4 1.6-1 1.8 0.5 0.3-3 1-7.7 1.6-6.1 0.8-8.6 0.9-8.8 0.1-0.1-0.8-1.4-0.8-4.4-0.1-2.4 0.6-4.5 0.7-4.8 0.2-0.3-0.5-5.9-0.8-12.5-0.7-6.6 0-12.6 0.4-13.3 0.8-0.6 0.4-1.3 0.2-1.4-0.4-0.2-0.9-1.2-0.9-4 0-2.1 0.6-4.3 0.9-4.8 0.6-0.5-0.3-2.7 0.2-4.7 1-2.4 1-4 1.2-4.3 0.5-0.3-0.5-1.9-0.1-3.7 1l-3.3 2c6.9 8.9 13 16.2 18.1 22 5 5.8 11.5 13.1 14.5 16.3 4.9 5.2 5.6 5.6 7.9 4.7 1.7-0.7 2.6-0.7 2.7 0 0.2 0.7 1.7 0.5 4-0.5 2.1-0.8 4.1-1.3 4.5-1 0.5 0.2 2.6-0.1 4.8-0.6 3.1-0.8 4.2-0.7 4.7 0.3 0.6 1 1.1 1.1 2.8 0 1.1-0.6 3.9-1.2 6.3-1.2 2.3 0 7.2 0.3 11 0.8 4.3 0.4 6.7 1.1 6.7 1.9 0 0.8 1.8 1.4 4.8 1.6l4.7 0.3c-7.4 0.3-9.5 0.8-9.5 1.4 0 0.6 1.7 0.7 4.5 0.2 3.9-0.6 4.5-0.5 4.5 1 0 1.3 0.6 1.7 2.2 1.3 1.3-0.3 3.3-0.5 4.5-0.5 1.6 0 2.3-0.6 2.3-2 0-1.3 0.8-2.2 2.2-2.4 1.3-0.3 3.6-0.8 5.3-1.1 1.7-0.4 7.5-1.3 13-2.1 6.5-0.9 10.1-1.1 10.3-0.4 0.1 0.5 0.9 1 1.7 1 0.8 0 1.5 0.3 1.5 0.7 0 0.5 2.4 0.6 5.2 0.4 2.9-0.2 5.9-1 6.6-1.7 0.7-0.8 2.9-1.4 4.8-1.4 2.7 0 3.4-0.4 3.4-2 0-1.1 0.7-2.2 1.5-2.5 0.8-0.3 2.5-0.5 3.7-0.5 1.5 0-0.4-1.5-5.7-4.5-4.4-2.5-12.3-7.8-17.5-11.8-5.2-4-16-13.6-24-21.3l-14.5-14.2-6.5 3.8c0-4-0.6-5-1.5-5-0.7 0-1.6 0.4-2 1zm131 19.4c-2.2 0.7-6 2.3-8.5 3.6-2.6 1.3-10.5 8.2-18.7 16.4-11.5 11.3-14 14.4-13 15.4 0.6 0.7 1.6 1.1 2.2 0.9 0.6-0.2 2.9 0.4 5.2 1.5l4.3 1.8c0-4.6 0.4-6 1-6 0.6 0 2 0.4 3.2 0.9 1.3 0.5 7 1.4 12.8 2.1 5.8 0.6 21.7 1.2 35.5 1.2 17.8 0 25.2 0.3 25.7 1.1 0.4 0.7 3.2 1.3 6.3 1.5 3.2 0.1 5.5-0.2 5.5-0.8 0-0.6 1-1 2.2-1 1.3 0 3.3-0.4 4.5-0.8 1.3-0.4 2.5-1.5 2.8-2.4 0.3-1.1 1.9-2.1 3.7-2.4 3.2-0.6 2.4-1.2-19.2-15.5-16.6-11-24.2-15.4-29-16.9-4.4-1.4-9.1-2-14.5-2-4.4 0.1-9.8 0.7-12 1.4z"/>
		<path id="Path 4" class="s3" d="m6.5 211.7c-1.1 0.2-1.9 0.5-1.8 0.6 0.2 0.1 1.6 4 3.2 8.7 1.5 4.7 4.5 12.6 6.6 17.5 2 5 5.8 13 8.3 18 2.6 4.9 5.3 9.5 5.9 10.2 0.7 0.7 2 1.3 2.8 1.3 0.9 0 1.5-0.9 1.5-2.5 0-2.2 0.5-2.5 4.2-2.7 3.4-0.2 4.4-0.7 4.6-2.3 0.2-1.7 1.3-2.1 7-2.7 3.7-0.5 11.4-0.8 17.2-0.7 6.8 0 9.8 0.3 8.5 0.9l-2 0.9c3.1 0.3 4.5 0.5 5 0.6 0.5 0.1 2.2 0.7 3.8 1.3 1.5 0.7 5.4 1.2 8.7 1.2 3.4 0 6.1 0.5 6.3 1.1 0.1 0.5 2.1 1.3 4.5 1.7 3.1 0.5 4.2 0.4 4.2-0.5 0-0.7 0.8-1.1 1.8-0.9 0.9 0.2 2.9 0.7 4.5 1l2.7 0.6v-13c8.6 0 9 0.2 9 2.5 0 1.9 0.5 2.5 2.3 2.5 1.2 0 3.2 0.2 4.5 0.5 1.2 0.3 2.2 1.2 2.2 2.3 0 1.3 1.1 1.9 4.7 2.5 2.7 0.4 5.6 0.7 6.6 0.7 0.9 0 1.7-0.6 1.7-1.2 0-0.7 6.7-8 14.9-16.3 11-11.1 15.6-16.5 17.8-21 1.7-3.3 3.3-7.5 3.7-9.2 0.6-3.3 0.6-3.3-3.2-3.2-2 0.1-37.9 0.1-79.7 0-41.8 0-77.7 0.3-79.8 0.7-2.7 0.5-3.7 0.4-3.7-0.5 0-0.8-1.2-1.3-3.3-1.2-1.7 0.1-4.1 0.3-5.2 0.6z"/>
		<path id="Path 5" class="s4" d="m152.8 151.6c-1.7 0.3-2.8 1-2.8 1.9 0 1.1-2 1.9-6.8 2.8-4.7 0.8-20.3 1.2-53.2 1.2-25.6 0-50.3-0.3-55-0.7-4.7-0.4-10.3-1.1-12.5-1.5-2.2-0.4-7.1-0.7-10.9-0.7l-6.9-0.1c-2.1 6.2-3.2 11.6-3.8 16-0.6 4.4-0.8 11.2-0.4 15 0.3 3.9 1 9.7 1.6 13 0.6 3.3 1.4 7.7 2 9.8l0.9 3.7c7.3-1.2 9.4-1.1 9.8-0.5 0.5 0.7 25.7 0.8 74.2 0.5 40.4-0.3 76.6-0.3 80.5 0.1 3.8 0.3 8.3 0.2 10-0.1 2.9-0.6 3-0.8 3.3-6.5 0.2-3.3-0.2-8.5-0.8-11.5-0.7-3-2.1-7.3-3.2-9.5-1.1-2.2-6.3-10.6-11.6-18.7-5.4-8.1-10.2-14.7-10.7-14.6-0.6 0-2.2 0.3-3.8 0.4z"/>
		<path id="Path 6" class="s5" d="m230 453.1c-3 0.4-6.8 1-8.5 1.3-1.7 0.2-4.2 1.4-5.8 2.5-1.9 1.5-2.8 1.7-3 0.8-0.2-0.7-0.9-0.3-1.5 1-1.1 2.2-0.6 2.7 10.3 9.8 6.3 4.1 15.9 10 21.3 13.1 5.3 3.1 13.5 7.6 18.2 9.9 4.7 2.3 13.7 6.3 20 8.8 6.3 2.5 16 5.7 21.5 7.1 5.5 1.4 14.3 3 19.5 3.6 5.2 0.6 12.2 0.8 15.5 0.5 3.3-0.4 8.9-1.3 12.5-2.1 3.6-0.9 9.6-3.2 13.5-5.1 5.8-3 10.7-7.3 27.9-24.2l20.9-20.6c-3.2-3.1-6.5-4.8-9.4-5.7-5-1.6-12-1.8-86.4-1.7-44.6 0.1-83.5 0.5-86.5 1z"/>
		<path id="Path 7" class="s6" d="m80.5 83.2c-3.3 0.4-8.9 2.2-12.5 3.9-5.7 2.6-9.6 6.1-31.6 28.2-19.3 19.5-25.7 26.6-28.2 31.2-1.7 3.3-3.2 6.2-3.2 6.5 0 0.3 3.5 0.8 7.7 1.2 4.3 0.4 9.2 1 10.8 1.3 1.6 0.3 6.8 0.9 11.5 1.3 4.7 0.4 29.4 0.7 55 0.7 32.9 0 48.5-0.4 53.3-1.3 4.7-0.8 6.7-1.6 6.7-2.7 0-0.9 0.9-1.5 2.3-1.5 1.2 0 2.8-0.4 3.4-0.8 0.9-0.5-4.1-8.7-16.1-26.7-10.3-15.5-19.2-27.7-22-30.3-2.5-2.3-7.4-5.5-10.8-7.2-3.5-1.6-8.3-3.2-10.8-3.5-2.5-0.3-5.6-0.7-7-0.9-1.4-0.1-5.2 0.1-8.5 0.6z"/>
		<path id="Path 8" class="s7" d="m114 258.5c0 5.7-0.2 6.4-1.8 6.1-0.9-0.2-2.9-0.7-4.5-1q-2.7-0.6-2.7 0.7c0 0.9-1.1 1-4.2 0.5-2.4-0.4-4.4-1.2-4.5-1.7-0.2-0.6-2.9-1.1-6.3-1.1-3.3 0-7.2-0.5-8.8-1.2-1.5-0.6-3.2-1.2-3.7-1.3-0.5-0.1-1.9-0.3-3-0.4l-2-0.2c3.3-1.5 0.3-1.8-6.5-1.8-5.8-0.1-13.5 0.2-17.2 0.7-5.7 0.6-6.8 1-7 2.7-0.2 1.6-1.2 2.1-4.5 2.3-3.8 0.2-4.3 0.5-4.3 2.7 0 2-0.4 2.4-2 2-1.1-0.3-2-0.3-2 0 0 0.3 2.1 4 4.7 8.3 2.5 4.2 7.8 12.4 11.6 18.2 3.9 5.8 10.9 15.7 15.6 22 4.7 6.3 8.8 11.8 9.1 12.3 0.3 0.5 2.1-0.1 4-1.2 2-1.2 3.7-1.6 4-1.1 0.3 0.7 1.9 0.5 4.3-0.5 2-0.8 4.2-1.3 4.7-1 0.5 0.3 2.7 0 4.8-0.6 2.8-0.9 3.8-0.9 4 0 0.1 0.6 0.8 0.8 1.5 0.4 0.6-0.4 6.6-0.8 13.2-0.8 6.6-0.1 12.2 0.2 12.5 0.7 0.3 0.5 2.4 0.4 4.8-0.2 3-0.7 4.3-0.7 4.5 0.1 0.1 0.8 2.6 0.7 8.7-0.1 4.7-0.6 8.2-1.3 7.8-1.6-0.5-0.2-0.2-1 0.5-1.8 0.6-0.8 3-1.5 5.2-1.7 3.7-0.4 4-0.6 4.3-3.7 0.2-2.7 0.6-3.2 2.7-3.2 1.4 0 2.7-0.4 3-1 0.3-0.6 1.2-1 2-1 0.9 0 1.6 1.1 1.8 2.5l0.2 2.5 6.5-4c-11.2-14-17.1-22.2-20.3-27.3-3.2-5-6.8-11.8-8-14.9l-2.2-5.7c-11.7-1-12.5-1.4-12.5-3.1 0-1.3-0.8-2.2-2.2-2.5-1.3-0.3-3.3-0.5-4.5-0.5-1.8 0-2.3-0.6-2.3-2.5 0-2.3-0.4-2.5-4.5-2.5h-4.5z"/>
		<path id="Path 11" class="s8" d="m187.5 324c3.8 3.9 7.2 7 7.5 7 0.3 0-2.5-3.1-6.2-7-3.7-3.8-7.1-7-7.5-7-0.4 0 2.4 3.1 6.2 7zm-65.5 63.3c7.4 7.5 13.6 13.7 13.8 13.7 0.1 0 0.2-0.1 0.2-0.2 0-0.2-6.2-6.4-13.7-13.8l-13.8-13.5z"/>
		<path id="Path 12" class="s9" d="m396 475.8l-21.5 21.7c33.7-33.3 43.5-43.1 43.5-43.3 0-0.1-0.1-0.2-0.3-0.2-0.1 0-9.9 9.8-21.7 21.7z"/>
		<path id="Path 13" class="s10" d="m36 114.8l-22.5 22.7c35.3-34.9 45.5-45.1 45.5-45.3 0-0.1-0.1-0.2-0.3-0.2-0.1 0-10.3 10.2-22.7 22.8zm122.2 132.4c-10.2 10.1-13.2 13.8-12.9 15.3l0.5 2c0.2-3.1 5.9-9.7 13.4-17.3 7.3-7.2 13-13.2 12.8-13.2-0.3 0-6.5 6-13.8 13.2z"/>
		<path id="Path 16" class="s7" d="m105 248.5c0 1.1 1.1 1.5 3.8 1.5l3.7-0.1c-5.4-2.3-7.1-2.9-7.3-2.9-0.1 0-0.2 0.7-0.2 1.5zm0 8.5c0 0.6 1.8 1 4 1 2.3 0 3.8-0.4 3.5-1-0.3-0.6-2.1-1-4-1-1.9 0-3.5 0.4-3.5 1z"/>
	</g>
</svg>